<svg xmlns="http://www.w3.org/2000/svg" width="620.111" height="440" viewBox="0 0 620.111 440"><g transform="translate(-34.742 -32.722)"><path d="m437.415 471.784-14.725-97.9-153.252-13.409c-1.238 1.426-7.616 49.971-15.269 111.309Z" fill="#231f20"/><path d="M437.415 472.723H254.168a.938.938 0 0 1-.919-1.069c13.675-109.7 14.894-111.122 15.475-111.8a.9.9 0 0 1 .788-.319l153.253 13.433a.919.919 0 0 1 .844.788l14.744 97.879a.9.9 0 0 1-.225.75.919.919 0 0 1-.713.338Zm-182.177-1.876h181.089l-14.462-96.078-151.939-13.3c-.845 3.358-4.278 25.98-14.688 109.378Z" fill="#231f20"/><path d="M302.995 209.68v186.641h93.883l-8.422-190.3-44.156-6.565Z" fill="#5200bc"/><path d="M396.878 397.26h-93.883a.938.938 0 0 1-.938-.938V209.68a.957.957 0 0 1 .713-.919l41.268-10.2a.75.75 0 0 1 .356 0l44.156 6.546a.938.938 0 0 1 .807.882l8.422 190.318a1.032 1.032 0 0 1-.263.694.957.957 0 0 1-.638.259Zm-92.945-1.876h91.914l-8.329-188.555-43.143-6.412-40.4 10Z" fill="#231f20"/><path fill="#fff" d="M294.554 387.805h99.492v20.502h-99.492z"/><path d="M394.028 409.23h-99.417a.938.938 0 0 1-.938-.938v-20.524a.938.938 0 0 1 .938-.938h99.417a.938.938 0 0 1 .938.938v20.484a.938.938 0 0 1-.938.975Zm-98.535-1.879h97.541v-18.608h-97.541Z" fill="#231f20"/><path fill="#fff" d="M330.626 387.805h27.33v20.502h-27.33z"/><path d="M357.956 409.23h-27.33a.938.938 0 0 1-.938-.938v-20.524a.938.938 0 0 1 .938-.938h27.33a.938.938 0 0 1 .938.938v20.484a.938.938 0 0 1-.938.975Zm-26.392-1.876h25.454v-18.611h-25.417Z" fill="#231f20"/><path d="m338.298 219.34 7.259 9.323-20.84 115.68 20.84 30.256 19.152-32.264-14.369-114.01 9.885-8.985-11.555-6.265Z" fill="#d1d3d4"/><path d="m86.454 193.417 27.293 15.194s-6.659 20.127-9.867 25.342l-31.701-14.275Z" fill="#5200bc"/><path d="M103.88 234.947a.863.863 0 0 1-.375-.094l-31.72-14.252a.994.994 0 0 1-.506-.563.957.957 0 0 1 0-.75l14.275-26.261a.9.9 0 0 1 .563-.45.957.957 0 0 1 .713 0l27.293 15.209a.9.9 0 0 1 .431 1.107c-.263.825-6.715 20.3-9.942 25.586a.957.957 0 0 1-.732.469Zm-30.407-15.663 30.013 13.506c2.889-5.327 7.953-20.24 9.116-23.729L86.81 194.693Z" fill="#231f20"/><path d="M112.134 205.46s40.817 16.451 72.781 18.439 73.306-8.535 73.306-8.535l11.255 53.629s-41.267 18.045-82.272 10.186-85.33-43.35-85.33-43.35Z" fill="#edbb48"/><path d="M308.623 87.116s0-23.354-6.3-42.6a92.814 92.814 0 0 1 48.9-10.73c23 1.276 44.775 14.894 44.775 14.894s-11.48 19.171-9.379 41.267c-.057.058-47.065-11.984-77.996-2.831Z" fill="#5200bc"/><path d="M386.562 90.943h-.225c-.469-.131-47.12-11.893-77.433-2.926a.9.9 0 0 1-.825-.131.976.976 0 0 1-.394-.75c0-.244 0-23.429-6.246-42.318a.9.9 0 0 1 .394-1.088 94.277 94.277 0 0 1 49.446-10.861c22.978 1.276 45.019 14.894 45.207 15.006a.919.919 0 0 1 .319 1.276c-.113.188-11.255 19.208-9.379 40.78a.957.957 0 0 1-.319.788.938.938 0 0 1-.545.224Zm-50.2-8.178a234.644 234.644 0 0 1 49.165 6.021c-1.332-19.1 7.109-35.94 9.21-39.767-4.052-2.382-23.466-13.131-43.556-14.294a93.659 93.659 0 0 0-47.72 10.223c5.252 16.488 6 35.884 6.115 40.93a102.755 102.755 0 0 1 26.786-3.114Z" fill="#231f20"/><path d="M322.747 36.62c-.131 0 5.384 29.094 5.14 49.652" fill="#231f20"/><path d="M327.85 87.21a.938.938 0 0 1-.919-.957c.131-11.442-1.482-27.405-4.821-47.458-.431-2.664-.469-2.87.375-3.1a.975.975 0 0 1 1.182.9c0 .225.131.882.3 1.876 3.339 20.165 4.971 36.24 4.84 47.8a.957.957 0 0 1-.957.938Z" fill="#231f20"/><ellipse cx="67.097" cy="25.923" rx="67.097" ry="25.923" transform="translate(281.142 78.562)" fill="#231f20"/><path d="M348.24 131.328c-38.154 0-68.035-11.8-68.035-26.805s29.881-26.861 68.035-26.861 68.035 11.855 68.035 26.861-29.881 26.805-68.035 26.805Zm0-51.828c-36.484 0-66.159 11.255-66.159 24.986s29.675 24.967 66.159 24.967 66.159-11.255 66.159-24.971S384.724 79.5 348.24 79.5ZM316.913 193.248l58.675.169-1.032 19.846H333.12l-20.127-8.535Z" fill="#231f20"/><path d="M374.557 214.2h-41.436a.806.806 0 0 1-.356 0l-20.127-8.535a.938.938 0 0 1-.525-1.163l3.92-11.48a.957.957 0 0 1 .882-.638l58.675.169a.9.9 0 0 1 .675.3.938.938 0 0 1 .263.694l-1.032 19.771a.957.957 0 0 1-.939.882Zm-41.267-1.876h40.348l.938-17.97-57.005-.169-3.414 10.017Z" fill="#231f20"/><path d="M309.767 92.968c-6.434 14.125-3.3 28.981-1.688 43.743a4.9 4.9 0 0 0 1.069 3.058c1.876 2.007 5.627.694 8.2.657 3.639 0 7.372.488 11.011.657 6.284.281 12.568.469 18.87.375 9.06-.113 18.176.581 27.18-.713 3.752-.544 6.471-.544 9-3.283a21.722 21.722 0 0 0 3.977-6.415c.544-1.313.994-2.645 1.407-3.958a53.254 53.254 0 0 0-.638-33.239c-39.916-7.691-76.25-1.576-78.388-.882Z" fill="#f0f0f0"/><path d="M360.732 142.471h-13.506c-5.5 0-11.517 0-18.908-.394-1.407 0-2.832-.169-4.258-.281-2.213-.188-4.483-.356-6.7-.356a18.831 18.831 0 0 0-2.1.206c-2.251.3-5.046.657-6.79-1.144a5.815 5.815 0 0 1-1.332-3.62 653.456 653.456 0 0 0-.713-6.04c-1.557-12.662-3.17-25.755 2.495-38.191a.938.938 0 0 1 .563-.506c2.851-.919 39-6.809 78.783.863a.975.975 0 0 1 .713.6 54.51 54.51 0 0 1 .657 33.764 41.378 41.378 0 0 1-1.444 4.052 22.769 22.769 0 0 1-4.07 6.678c-2.457 2.645-4.99 2.982-8.216 3.4l-1.351.188a97.2 97.2 0 0 1-13.825.788Zm-11.1-1.876h5.627a124.575 124.575 0 0 0 19.058-.732l1.369-.188c3.076-.394 5.083-.657 7.09-2.814a20.22 20.22 0 0 0 3.752-6.134 39.641 39.641 0 0 0 1.388-3.883 52.615 52.615 0 0 0-.45-32.132c-37.291-7.072-72.256-2.045-77-.919-5.233 11.836-3.658 24.517-2.157 36.784.244 2.026.506 4.033.713 6.059a4.221 4.221 0 0 0 .825 2.514c1.088 1.144 3.17.863 5.2.6a21.574 21.574 0 0 1 2.326-.225c2.27 0 4.614.169 6.865.356 1.407.113 2.814.225 4.183.3 7.372.338 13.356.45 18.758.375Z" fill="#231f20"/><path d="M320.984 130.334c-1.876-12.68-25.286-16.526-24.7-1.613a20.5 20.5 0 0 0 5.759 14.143 15.907 15.907 0 0 0 15.719 3.752" fill="#fff"/><path d="M313.256 148.342a17.426 17.426 0 0 1-11.874-4.8 21.44 21.44 0 0 1-6.04-14.781 9.567 9.567 0 0 1 9.379-10.561c7.278-.657 16.132 4.127 17.257 12.005a.938.938 0 0 1-.807 1.05.9.9 0 0 1-1.05-.788c-.975-6.847-8.8-10.973-15.231-10.392a7.71 7.71 0 0 0-7.616 8.61 19.677 19.677 0 0 0 5.477 13.506 14.819 14.819 0 0 0 14.688 3.6.938.938 0 0 1 1.2.563.957.957 0 0 1-.582 1.2 14.181 14.181 0 0 1-4.801.788Z" fill="#231f20"/><path d="M372.175 130.334c1.876-12.68 25.267-16.526 24.685-1.613a20.484 20.484 0 0 1-5.74 14.143 15.925 15.925 0 0 1-15.719 3.752" fill="#fff"/><path d="M379.902 148.342a14.292 14.292 0 0 1-4.821-.807.938.938 0 0 1-.563-1.2.919.919 0 0 1 1.2-.563 15.006 15.006 0 0 0 14.744-3.583 19.564 19.564 0 0 0 5.46-13.509 7.691 7.691 0 0 0-7.5-8.61c-6.434-.581-14.275 3.545-15.231 10.392a.947.947 0 0 1-1.876-.263c1.107-7.878 10-12.662 17.239-12.005a9.548 9.548 0 0 1 9.379 10.561 21.44 21.44 0 0 1-6.04 14.781 17.37 17.37 0 0 1-11.991 4.806Z" fill="#231f20"/><path d="M319.165 207.579s10.861 4.915 29.506 5.5 21.74-3.92 21.74-3.92l-.45-8.835-1.032-20.634-.975-19.208-42.559-1.317-2.026 15.625-.619 5.065Z" fill="#fff"/><path d="M351.878 214.07h-3.245c-18.608-.581-29.412-5.365-29.844-5.627a.9.9 0 0 1-.544-.975l6.228-48.339a.882.882 0 0 1 .957-.825l42.562 1.313a.919.919 0 0 1 .9.882l2.457 48.621a1.05 1.05 0 0 1-.169.581c-.337.467-3.526 4.369-19.302 4.369Zm-31.682-7.072a87.826 87.826 0 0 0 28.493 5.14c15.269.469 19.827-2.532 20.765-3.339l-2.382-47.345-40.855-1.238Z" fill="#231f20"/><path d="M322.747 179.93a36.241 36.241 0 0 0 13.543 11.255c8.985 4.783 22.509 10.261 33.67 9.1l-1.032-20.634a117.59 117.59 0 0 1-24.535-.6c-7.166-.788-14.537-1.632-21.028-4.3Z" fill="#231f20"/><path d="M366.791 201.408c-11.517 0-24.1-5.721-30.932-9.379a36.54 36.54 0 0 1-13.9-11.611.881.881 0 0 1-.15-.619l.619-5.065a.957.957 0 0 1 1.294-.75c6.565 2.682 14.106 3.489 20.765 4.221a116.168 116.168 0 0 0 24.385.6.938.938 0 0 1 .694.225.919.919 0 0 1 .319.675l1.032 20.634a.957.957 0 0 1-.844.994 31.2 31.2 0 0 1-3.282.075Zm-43.143-21.7a35.64 35.64 0 0 0 13.131 10.692c7.109 3.752 20.634 9.9 32.245 9.06l-.938-18.758a117.611 117.611 0 0 1-23.766-.694 83.134 83.134 0 0 1-20.221-3.827Z" fill="#231f20"/><path d="m383.823 101.466-1.876 51.265a32.022 32.022 0 0 1-.882 6.49 32.6 32.6 0 0 1-32.845 24.742l-3.752-.15a32.357 32.357 0 0 1-31.476-33.464l1.876-51.247s8.066 10.523 31.157 10.317 37.798-7.953 37.798-7.953Z" fill="#fff"/><path d="M349.421 184.92h-1.144l-3.752-.15a33.652 33.652 0 0 1-31.363-25.023 32.9 32.9 0 0 1-1.013-9.379l1.876-51.247a.957.957 0 0 1 .638-.863.976.976 0 0 1 1.032.319c.094.113 7.991 9.96 29.788 9.96h.638c22.509-.188 37.272-7.766 37.516-7.841a.881.881 0 0 1 .938 0 .9.9 0 0 1 .431.825l-1.876 51.247a32.346 32.346 0 0 1-.919 6.7 33.614 33.614 0 0 1-32.79 25.452Zm-33.764-83.585-1.726 49.033a31.194 31.194 0 0 0 .975 8.891 31.888 31.888 0 0 0 29.603 23.635l3.752.131a31.42 31.42 0 0 0 32.77-30.332l1.726-49.727a94.99 94.99 0 0 1-36.848 7.391c-17.82.169-26.861-5.965-30.238-9.023Z" fill="#231f20"/><path d="M347.715 130.934s8.854 20.765 4.108 21.14a20.334 20.334 0 0 1-8.2-.957" fill="#fff"/><path d="M350.097 153.068a20.446 20.446 0 0 1-6.809-1.069.938.938 0 1 1 .657-1.744 20.183 20.183 0 0 0 7.8.882.338.338 0 0 0 .281-.188c1.294-2.138-2.251-12.774-5.177-19.64a.938.938 0 1 1 1.726-.732c1.238 2.907 7.316 17.595 5.046 21.346a2.195 2.195 0 0 1-1.726 1.088Z" fill="#231f20"/><ellipse cx="2.232" cy="4.483" rx="2.232" ry="4.483" transform="translate(331.77 121.443)" fill="#231f20"/><ellipse cx="2.232" cy="4.483" rx="2.232" ry="4.483" transform="translate(360.245 121.443)" fill="#231f20"/><path d="M375.588 193.417c-.807 0-27.18 19.658-27.18 19.658l16.3 16.882 16.3-26.261Z" fill="#5200bc"/><path d="M364.709 230.858a.975.975 0 0 1-.675-.3l-16.3-16.882a.9.9 0 0 1-.244-.732.863.863 0 0 1 .375-.675c26.6-19.846 27.33-19.846 27.724-19.846a.938.938 0 0 1 .825.506l5.421 10.148a.938.938 0 0 1 0 .938l-16.282 26.261a.9.9 0 0 1-.694.431Zm-14.875-17.67 14.706 15.213 15.381-24.854-4.708-8.835c-3.245 2.1-16.207 11.649-25.379 18.477Z" fill="#231f20"/><path d="M316.911 193.248c.863 0 31.757 19.827 31.757 19.827l-18.757 16.882-18.85-26.261Z" fill="#5200bc"/><path d="M329.838 230.854h-.113a.919.919 0 0 1-.657-.375l-18.758-26.261a.9.9 0 0 1 0-1.013l5.928-10.336a.938.938 0 0 1 .807-.469c.338 0 1.144 0 32.264 19.977a.957.957 0 0 1 .431.713.938.938 0 0 1-.319.769l-18.758 16.882a.957.957 0 0 1-.825.113Zm-17.726-27.33 17.876 24.989 17.126-15.325c-10.917-7-26.261-16.882-29.806-18.758ZM350.509 175.803h-.882c-15.944-1.351-16.976-21.028-16.976-21.215a.938.938 0 0 1 1.463-.807c16.582 11.48 28.137 1.876 28.7 1.426a.938.938 0 0 1 1.05-.113.957.957 0 0 1 .488.938c-.094.807-2.514 19.771-13.843 19.771Zm-15.794-19.433c.638 4.708 3.4 16.544 15.006 17.52 8.16.657 11.386-11.067 12.361-16-4.014 2.42-14.293 6.659-27.368-1.5Z" fill="#231f20"/><path d="M349.984 168a44.719 44.719 0 0 1-14.05-2.42.919.919 0 0 1-.563-1.2.957.957 0 0 1 1.2-.563c.15 0 14.125 5.083 24.217 0a.938.938 0 0 1 1.257.431.957.957 0 0 1-.413 1.257A26.261 26.261 0 0 1 349.983 168Z" fill="#231f20"/><path d="M90.356 187.733s-33.164 19.583-21.928 30.632" fill="#fff"/><path d="M68.427 219.303a.919.919 0 0 1-.657-.281 8.01 8.01 0 0 1-2.532-7c1.369-11.255 23.691-24.535 24.629-25.1a.957.957 0 0 1 1.294.338.919.919 0 0 1-.338 1.276c-.225.15-22.51 13.393-23.729 23.71a6.19 6.19 0 0 0 1.988 5.44.938.938 0 0 1-.657 1.613Z" fill="#231f20"/><path d="M46.35 239.58s11.067-51.978 9.792-67.528-11.687-30.538-11.687-30.538 22.134-7.691 39.523-1.876c0 0-10.411 74.713-4.314 89.794s6.79 16.732 6.79 16.732-23.785 1.595-40.104-6.584Z" fill="#fff"/><path d="M81.145 247.196c-8.01 0-23.41-.863-35.209-6.753a.938.938 0 0 1-.506-1.05c.113-.507 11.011-52.016 9.773-67.322s-11.424-30.016-11.517-30.016a.938.938 0 0 1 .45-1.426c.919-.319 22.66-7.747 40.142-1.876a.957.957 0 0 1 .638 1.013c-.113.75-10.317 74.638-4.389 89.325s6.753 16.638 6.79 16.713a.938.938 0 0 1 0 .863.919.919 0 0 1-.732.45c-.356-.034-2.345.079-5.44.079Zm-33.764-8.122c13.693 6.547 32.545 6.359 37.647 6.171l-6.284-15.49c-5.8-14.556 3.039-81.072 4.2-89.588-14.519-4.5-32.357.319-37.028 1.726 2.4 3.752 10.054 16.451 11.161 30.013 1.2 14.781-8.272 60.607-9.66 67.172Z" fill="#231f20"/><path d="M62.725 143.784s-18.758 3.264-27.105 7c0 0 17.595 17.951 16.151 31.7s-12.287 51.15-12.287 51.15 11.611-1.257 30.407 3.864Z" fill="#fff"/><path d="M69.891 238.436h-.244c-18.383-5.008-30.013-3.845-30.013-3.845a.938.938 0 0 1-.807-.319.9.9 0 0 1-.188-.863c.113-.375 10.823-37.516 12.249-50.984 1.388-13.131-15.7-30.782-15.869-30.951a.919.919 0 0 1-.263-.825.975.975 0 0 1 .469-.732c8.4-3.752 26.542-6.922 27.312-7.053a.938.938 0 0 1 .732.188.9.9 0 0 1 .356.657l7.184 93.79a.919.919 0 0 1-.338.788.881.881 0 0 1-.58.149Zm-26.711-5.89a103.318 103.318 0 0 1 25.68 3.752l-7-91.407c-3.752.713-17.182 3.3-24.629 6.228 3.752 4.033 16.77 19.152 15.475 31.457s-9.979 43.218-11.855 50.027q.809-.057 2.328-.057Z" fill="#231f20"/><path d="M58.242 150.78s4.9 76.363 3.02 96.585c0 0 25.642 7.991 38.472 0 0 0-24.01-54.4-18.645-70.474s7-21.909 7-21.909Z" fill="#fff"/><path d="M83.996 251.867a86.794 86.794 0 0 1-23-3.62.9.9 0 0 1-.657-.975c1.876-19.9-2.983-95.665-3.039-96.435a.957.957 0 0 1 .3-.75.882.882 0 0 1 .769-.225l29.848 4.182a.919.919 0 0 1 .638.413.938.938 0 0 1 .131.769s-1.707 6.04-7.015 21.966c-5.177 15.569 18.383 69.254 18.627 69.8a.938.938 0 0 1-.375 1.163 30.932 30.932 0 0 1-16.226 3.714Zm-21.722-5.2c4.127 1.182 24.948 6.6 36.259.3-3-6.922-23.466-54.979-18.345-70.38 4.07-12.193 6-18.533 6.678-20.84l-27.611-3.879c.578 9.511 4.558 75.107 3.02 94.803Z" fill="#231f20"/><path d="M70.209 139.601s-10.261 78-2.495 95.1a43.481 43.481 0 0 0 32.958-5.309s-24.048-10.745-17.934-35.975 20.41-35.171 20.41-35.171Z" fill="#fff"/><path d="M77.825 236.861a39.9 39.9 0 0 1-10.373-1.257.9.9 0 0 1-.581-.525c-7.8-17.126 1.988-92.42 2.4-95.665a.957.957 0 0 1 .506-.713.919.919 0 0 1 .882 0l32.958 18.72a.957.957 0 0 1 0 1.594c-.15 0-14.087 10.073-20.052 34.627-5.852 24.179 17.182 34.8 17.407 34.908a.882.882 0 0 1 .544.788.863.863 0 0 1-.431.844 43.294 43.294 0 0 1-23.26 6.678Zm-9.379-2.945a43.143 43.143 0 0 0 30.369-4.464c-5.44-3-22.322-14.369-16.995-36.259 5.2-21.4 16.057-31.888 19.64-34.833l-30.5-17.257c-1.313 10.429-9.266 76.645-2.57 92.852Z" fill="#231f20"/><path d="M54.865 156.37s-2.063 53.629-7.034 70.1a94.577 94.577 0 0 1 31.157 0s-7.766-36.766 7.5-65.653c-.034-.02-14.497 4.182-31.623-4.447Z" fill="#fff"/><path d="M78.988 227.404H78.8a94.2 94.2 0 0 0-30.8 0 .957.957 0 0 1-1.069-1.2c4.877-16.169 6.978-69.4 7-69.854a.938.938 0 0 1 1.369-.788 46.088 46.088 0 0 0 30.894 4.352.919.919 0 0 1 .975.319.938.938 0 0 1 .113 1.032c-14.894 28.249-7.5 64.659-7.372 65.015a.975.975 0 0 1-.263.863.957.957 0 0 1-.657.263Zm-23.241-69.552c-.356 8.535-2.345 51.134-6.622 67.528a97.055 97.055 0 0 1 28.681 0c-1.163-6.809-5.627-37.722 6.9-63.139a48.452 48.452 0 0 1-28.962-4.389Z" fill="#231f20"/><path d="M90.355 211.444c-6.378-1.088-12.737-8.8-12.643-12.455a45.018 45.018 0 0 1-7.747 3.376 6.415 6.415 0 0 1-5.627 0 4.558 4.558 0 0 1-1.332-5.008 11.255 11.255 0 0 1 3.114-4.671 32.958 32.958 0 0 1 13.131-8.085c11.255-3.4 11.855-1.876 19.339 15.119" fill="#fff"/><path d="M90.356 212.327h-.147c-6.171-1.05-12.08-7.616-13.243-11.93a44.4 44.4 0 0 1-6.7 2.814 7.353 7.353 0 0 1-6.528-.206 5.459 5.459 0 0 1-1.669-6.059 11.93 11.93 0 0 1 3.414-4.858 33.427 33.427 0 0 1 13.487-8.31c12.005-3.62 12.962-1.463 20.352 15.325l.131.319a.938.938 0 0 1-.488 1.238.957.957 0 0 1-1.238-.469l-.131-.319c-7.391-16.77-7.672-17.426-18.083-14.294a31.645 31.645 0 0 0-12.737 7.86 10.5 10.5 0 0 0-2.926 4.07 3.752 3.752 0 0 0 .975 3.977c1.032.713 2.57.694 4.858 0a42.936 42.936 0 0 0 7.5-3.3.882.882 0 0 1 .938 0 .938.938 0 0 1 .469.825c0 3.3 5.965 10.5 11.855 11.517a.9.9 0 0 1 .769 1.069.919.919 0 0 1-.858.731Z" fill="#231f20"/><path d="M65.03 187.264a4.314 4.314 0 0 1 .263 1.369c.244 10.054-13.243 1.369-16.882-.169-6.715-2.814-4.3-11.255 2.682-11.555 3.4-.169 6.284 2.232 8.8 4.5l1.876 1.669a10.973 10.973 0 0 1 3.261 4.186Z" fill="#fff"/><path d="M61.487 194.355c-3.451 0-7.935-2.288-11.142-3.939-.919-.469-1.688-.863-2.232-1.088a6.584 6.584 0 0 1-4.427-7.316 7.672 7.672 0 0 1 7.5-6.04c3.639-.206 6.7 2.251 9.473 4.746l1.876 1.669a11.986 11.986 0 0 1 3.564 4.577 5.627 5.627 0 0 1 .3 1.651 5.346 5.346 0 0 1-2.063 5.027 5.009 5.009 0 0 1-2.849.713Zm-9.979-16.526h-.281a5.815 5.815 0 0 0-5.627 4.5 4.764 4.764 0 0 0 3.32 5.252c.581.244 1.388.657 2.345 1.144 3.339 1.707 9.567 4.877 12.061 3.32.825-.525 1.219-1.669 1.182-3.4a3.751 3.751 0 0 0-.206-1.107 10.223 10.223 0 0 0-3.039-3.752l-1.876-1.669c-2.514-2.176-5.1-4.3-7.953-4.3Z" fill="#231f20"/><path d="M46.481 189.76a7.5 7.5 0 0 0-2.757 0 6.453 6.453 0 0 0-3.752 4.671 6.19 6.19 0 0 0 .319 5.44 6.509 6.509 0 0 0 3.752 1.988 38.849 38.849 0 0 0 13.131.994c4.689-.45 9.923-5.44 5.027-9.642-3.565-2.945-11.384-2.945-15.72-3.451Z" fill="#fff"/><path d="M53.403 203.94a39.015 39.015 0 0 1-9.642-1.2 7.259 7.259 0 0 1-4.221-2.326 6.7 6.7 0 0 1-.469-6.284 7.072 7.072 0 0 1 4.464-5.2 8.329 8.329 0 0 1 3.114 0c.825.113 1.782.188 2.795.263 4.558.375 10.242.844 13.262 3.433a5.4 5.4 0 0 1 2.05 5.687 9.154 9.154 0 0 1-7.6 5.44 25.522 25.522 0 0 1-3.753.187Zm-8.4-13.393a3.321 3.321 0 0 0-.975.113c-1.726.45-2.682 2.439-3.17 4.033a5.1 5.1 0 0 0 .169 4.6 5.627 5.627 0 0 0 3.208 1.632 36.88 36.88 0 0 0 12.737.975 7.2 7.2 0 0 0 6-4.146 3.526 3.526 0 0 0-1.482-3.752c-2.57-2.195-8.122-2.645-12.193-2.983l-2.814-.319a12.16 12.16 0 0 0-1.482-.113Z" fill="#231f20"/><path d="M46.95 201.426c-3.62 0-8.347.807-7.709 5.627.413 3.245 3.939 5.44 6.959 5.759a35.265 35.265 0 0 0 12.605-.9 5.2 5.2 0 0 0 2.307-1.05 5.833 5.833 0 0 0 1.144-1.876 7.86 7.86 0 0 0 .957-3.32c-.04-5.14-12.849-4.24-16.263-4.24Z" fill="#fff"/><path d="M50.007 213.995a34 34 0 0 1-3.9-.206c-3.47-.375-7.316-2.926-7.8-6.584a5.327 5.327 0 0 1 1.125-4.352c1.388-1.576 3.752-2.345 7.5-2.363h1.426c4.127-.094 11.8-.263 14.687 2.551a3.639 3.639 0 0 1 1.182 2.72 8.76 8.76 0 0 1-1.032 3.752 6.828 6.828 0 0 1-1.369 2.157 6.34 6.34 0 0 1-2.72 1.276 36.689 36.689 0 0 1-9.1 1.05Zm-3.058-11.63c-3.058 0-5.121.582-6.115 1.726a3.489 3.489 0 0 0-.675 2.87c.356 2.7 3.47 4.671 6.134 4.971a34.777 34.777 0 0 0 12.286-.882 4.483 4.483 0 0 0 1.876-.844 4.6 4.6 0 0 0 .919-1.538 7.034 7.034 0 0 0 .882-2.926 1.763 1.763 0 0 0-.619-1.369c-2.326-2.27-10.035-2.1-13.337-2.026Zm.001-.938Z" fill="#231f20"/><path d="M45.412 213.094c-2.457 0-4.108-.394-5.327 2.12a5.065 5.065 0 0 0 .807 5.965 6.678 6.678 0 0 0 3.752 1.369 29.263 29.263 0 0 0 10.448-.675 3.32 3.32 0 0 0 2.87-2.363 6.621 6.621 0 0 0 .825-2.739c.074-4.315-10.561-3.658-13.375-3.677Z" fill="#fff"/><path d="M48.113 223.693a31.156 31.156 0 0 1-3.508-.206 7.5 7.5 0 0 1-4.352-1.613 6 6 0 0 1-1.013-7.053c1.332-2.776 3.283-2.739 5.365-2.682h1.876c3.433 0 9.848-.131 12.268 2.251a3.245 3.245 0 0 1 1.013 2.382 7.747 7.747 0 0 1-.9 3.133 5.628 5.628 0 0 1-1.182 1.876 5.328 5.328 0 0 1-2.326 1.069 30.014 30.014 0 0 1-7.241.843Zm-4.389-9.7a2.5 2.5 0 0 0-2.795 1.632 4.146 4.146 0 0 0 .6 4.858 6.021 6.021 0 0 0 3.3 1.125 28.231 28.231 0 0 0 10.111-.638 3.527 3.527 0 0 0 1.5-.638 3.939 3.939 0 0 0 .75-1.219 6.059 6.059 0 0 0 .732-2.345 1.444 1.444 0 0 0-.45-1.05c-1.876-1.876-8.216-1.744-10.936-1.707h-2.812Z" fill="#231f20"/><path d="M603.066 199.457s-12.4 5.158-21.684 3.1c0 0-4.146 23.579 5.927 34.383l35.884 4.089Z" fill="#5200bc"/><path d="M623.193 241.962h-.117l-35.884-4.07a.976.976 0 0 1-.563-.3c-10.279-11.011-6.359-34.2-6.19-35.171a.9.9 0 0 1 .413-.619.881.881 0 0 1 .713-.15c8.891 1.988 21.009-2.983 21.121-3.039a.938.938 0 0 1 1.219.45l20.127 41.568a.938.938 0 0 1-.844 1.351Zm-35.434-5.928 33.764 3.864-19-39.242c-2.87 1.069-12.437 4.352-20.446 3-.527 4.429-2.553 23.169 5.682 32.379Z" fill="#231f20"/><path d="M613.946 158.677a302.932 302.932 0 0 0-27.668 14.706s17.557 26.5 19.358 42.693-7.991 38.623-7.991 38.623 20.146 8.254 31.626 5.421Z" fill="#a28dc4"/><path d="M623.718 261.659c-11.442 0-25.736-5.8-26.43-6.1a.938.938 0 0 1-.525-.506.9.9 0 0 1 0-.732c.094-.225 9.679-22.509 7.916-38.154s-19-42-19.189-42.243a.951.951 0 0 1 .281-1.313 304.392 304.392 0 0 1 27.781-14.762.938.938 0 0 1 1.332.694l15.305 101.465a.938.938 0 0 1-.694 1.05 24.705 24.705 0 0 1-5.777.6Zm-24.835-7.5c3.864 1.482 19.527 7.109 29.319 5.215l-15.006-99.323c-3.977 1.876-17.5 8.46-25.642 13.6 3 4.614 17.351 27.48 19 42.3s-5.853 33.82-7.672 38.229Z" fill="#231f20"/><path d="M610.794 187.058s-4.389-23.5-7.728-31.495c0 0 31.232-3.62 41.042 0 0 0-6.79 41.549-5.627 57.549s3.02 41.83 9.21 49.052c0 0-18.233 6.453-33.764 1.032.019.019-.15-61.732-3.133-76.138Z" fill="#f6f0ff"/><path d="M627.976 266.348a43.274 43.274 0 0 1-14.331-2.251.975.975 0 0 1-.638-.882c0-.619-.188-61.807-3.133-75.951 0-.244-4.408-23.485-7.691-31.307a.957.957 0 0 1 0-.844.975.975 0 0 1 .713-.45c1.276-.15 31.57-3.6 41.474 0a.938.938 0 0 1 .6 1.032c0 .413-6.753 41.624-5.627 57.343v.863c1.144 15.25 3.058 40.78 8.929 47.645a.957.957 0 0 1 .188.844.9.9 0 0 1-.6.638 65.916 65.916 0 0 1-19.884 3.32Zm-13.13-3.752c12.643 4.127 27.068.431 31.307-.844-5.627-8.479-7.372-31.888-8.554-47.608v-.882c-1.125-15.006 4.5-51.022 5.459-56.987-9.041-2.739-33-.431-38.66.15 3.264 8.816 7.147 29.469 7.334 30.519 2.833 13.637 3.114 68.523 3.114 75.594Z" fill="#231f20"/><path d="M635.743 159.972a79.043 79.043 0 0 0-10.748 26.073c-3.6 16 2.851 64.527 2.851 64.527s14.762 3.358 23 0c0 0-13.262-18.852-12.324-37.516s15.322-41.544 15.322-41.544Z" fill="#a28dc4"/><path d="M641.107 253.011a68.3 68.3 0 0 1-13.543-1.519.957.957 0 0 1-.732-.807c-.263-1.988-6.434-48.771-2.832-64.865a79.1 79.1 0 0 1 10.9-26.392.919.919 0 0 1 1.275-.244l18.1 11.611a.938.938 0 0 1 .281 1.276c-.15.244-14.256 23-15.175 41.117s12.024 36.653 12.155 36.841a.957.957 0 0 1 .131.807.919.919 0 0 1-.544.6 27.275 27.275 0 0 1-10.017 1.576Zm-12.493-3.226c2.739.544 13.675 2.514 20.634.319-2.757-4.221-12.662-20.634-11.817-37.009.844-16.882 12.4-36.953 15.006-41.267l-16.543-10.637a81.5 81.5 0 0 0-10.092 25c-3.189 14.706 2.176 57.737 2.889 63.589Z" fill="#231f20"/><path d="M600.984 176.478s17.295 45.019 6.209 75.125c0 0 13.131 9.81 25.548 6.453 0 0-1.294-72.537 0-83.9 0-.004-20.127-2.836-31.757 2.322Z" fill="#5200bd"/><path d="M627.263 259.708c-10.636 0-20.165-7-20.634-7.353a.919.919 0 0 1-.319-1.069c10.842-29.525-6.021-74.019-6.19-74.469a.919.919 0 0 1 .488-1.182c11.724-5.215 31.438-2.514 32.264-2.4a.938.938 0 0 1 .807 1.032c-1.275 11.255 0 83.041 0 83.773a.938.938 0 0 1-.694.919 21.516 21.516 0 0 1-5.721.75Zm-18.945-8.46c2.551 1.726 13.281 8.4 23.466 6.078-.131-7.916-1.144-69.235 0-82.347-3.9-.45-19.6-1.876-29.544 2.026 2.232 6.302 15.85 46.369 6.077 74.243Z" fill="#231f20"/><path d="M618.109 200.189c-1.876 1.182-3.958 2.72-4.145 4.952-.206 2.532 2.195 4.577 4.614 5.365a21.1 21.1 0 0 0 9.567.338 76.093 76.093 0 0 0 8.422-1.707c4.314-1.125 9.379-3.1 10.8-7.822a7.616 7.616 0 0 0-3.433-9.041c-7.706-3.884-19.578 4.164-25.825 7.915Z" fill="#fff"/><path d="M623.489 212.213a17.108 17.108 0 0 1-5.215-.75c-2.7-.9-5.5-3.245-5.252-6.34.225-2.664 2.57-4.427 4.6-5.627l1.388-.863c6.622-4.127 17.726-11.011 25.342-7.109a8.516 8.516 0 0 1 3.9 10.167c-1.594 5.29-7.3 7.353-11.442 8.441a70.9 70.9 0 0 1-8.535 1.726 35.237 35.237 0 0 1-4.786.355Zm-4.9-11.255c-1.745 1.069-3.545 2.42-3.752 4.221s1.876 3.752 3.958 4.408a20.633 20.633 0 0 0 9.154.281 74.04 74.04 0 0 0 8.31-1.669c4.033-1.069 8.835-2.851 10.148-7.184a6.734 6.734 0 0 0-2.964-7.953c-6.7-3.414-17.22 3.133-23.5 7.034Z" fill="#231f20"/><path d="M631.372 207.354c-3 .638-6.415 1.594-7.71 4.371a6.49 6.49 0 0 0 1.688 7.091 13.806 13.806 0 0 0 6.94 3.264c7.241 1.576 24.16 1.5 21.2-10.3-2.325-9.322-15.76-5.795-22.118-4.426Z" fill="#fff"/><path d="M639.436 223.73a36.056 36.056 0 0 1-7.353-.732 14.35 14.35 0 0 1-7.391-3.508 7.5 7.5 0 0 1-1.876-8.16c1.426-3.039 4.858-4.145 8.366-4.9l1.107-.244c6.884-1.519 19.7-4.333 22.134 5.365a8.272 8.272 0 0 1-1.763 8.235c-2.887 2.912-8.27 3.944-13.224 3.944Zm-7.878-15.456c-2.832.6-5.928 1.444-7.053 3.845a5.628 5.628 0 0 0 1.5 6.04 12.793 12.793 0 0 0 6.471 3.02c5.627 1.2 15.006 1.163 18.758-2.7a6.434 6.434 0 0 0 1.294-6.471c-1.876-7.316-11.255-5.89-19.921-3.977Z" fill="#231f20"/><path d="M630.902 233.109a13.13 13.13 0 0 0-4.464.413 4.577 4.577 0 0 0-3.1 3.02c-.563 2.213 1.182 4.371 3.1 5.627a17.52 17.52 0 0 0 11.874 2.495c3.433-.469 9.942-3.864 6.7-8.16-2.723-3.639-10.133-3.264-14.11-3.395Z" fill="#fff"/><path d="M635.798 245.771a17.971 17.971 0 0 1-9.867-2.814c-2.138-1.407-4.2-3.9-3.508-6.64a5.627 5.627 0 0 1 3.752-3.752 13.319 13.319 0 0 1 4.8-.469h1.557c4.221 0 10.579.169 13.262 3.752a4.351 4.351 0 0 1 .75 4.521c-1.238 2.926-5.627 4.783-8.085 5.14a20.635 20.635 0 0 1-2.664.263Zm-6.078-11.818a9.117 9.117 0 0 0-2.982.394 3.752 3.752 0 0 0-2.514 2.42c-.45 1.876 1.182 3.62 2.72 4.614a16.676 16.676 0 0 0 11.255 2.364c2.12-.3 5.627-1.876 6.584-4.014a2.532 2.532 0 0 0-.488-2.664c-2.138-2.832-7.953-2.926-11.8-2.982h-1.594Z" fill="#231f20"/><path d="M632.178 219.735a15.663 15.663 0 0 0-5.365-.206 5.627 5.627 0 0 0-4.145 3.1c-.994 2.551.75 5.365 2.832 7.165a20.84 20.84 0 0 0 13.656 4.765c4.164 0 12.4-3.058 9.229-8.647-2.701-4.714-11.521-5.408-16.207-6.177Z" fill="#fff"/><path d="M639.062 235.491a21.984 21.984 0 0 1-14.181-4.99c-2.289-1.876-4.3-5.158-3.076-8.216a6.4 6.4 0 0 1 4.821-3.752 16.243 16.243 0 0 1 5.627.206l1.876.263c4.952.732 12.437 1.876 15.006 6.359a5.064 5.064 0 0 1 .169 5.308c-1.876 3.208-7.184 4.746-10.185 4.746Zm-10.411-15.175a7.952 7.952 0 0 0-1.651.15 4.558 4.558 0 0 0-3.451 2.514c-.844 2.138.844 4.614 2.551 6.1a19.639 19.639 0 0 0 13.131 4.539c2.626 0 7.184-1.369 8.591-3.752a3.227 3.227 0 0 0-.188-3.433c-2.138-3.752-9.06-4.765-13.656-5.44l-1.876-.281a21.441 21.441 0 0 0-3.451-.394Z" fill="#231f20"/><path d="M594.775 206.589a16.171 16.171 0 0 1 .619-2.626c3.358-10.017 11.255-8.647 18.946-5.627 3.283 1.313 16.394 6.1 14.781 11.4-1.876 6.359-15.832 2.532-20.315 2.42-.263 2.532 3.208 10.579-5.74 17.182" fill="#fff"/><path d="M603.066 230.332a.938.938 0 0 1-.563-1.688c6.753-4.971 5.984-10.767 5.534-14.237a10.72 10.72 0 0 1-.169-2.288.938.938 0 0 1 .957-.844 38.692 38.692 0 0 1 4.183.469c5.627.788 13.937 1.97 15.231-2.232.825-2.757-3.752-6.1-13.524-9.96l-.732-.3c-3.62-1.463-8.891-3.189-12.718-1.426a9.979 9.979 0 0 0-4.971 6.434 15 15 0 0 0-.6 2.476.919.919 0 0 1-1.069.769.938.938 0 0 1-.788-1.05 16.458 16.458 0 0 1 .675-2.795 11.93 11.93 0 0 1 5.965-7.5c4.427-2.045 9.923-.338 14.2 1.388l.732.3c4.9 1.876 16.376 6.453 14.612 12.249s-11.086 4.427-17.276 3.545c-1.126-.15-2.138-.3-2.983-.375a2.461 2.461 0 0 0 .131.938c.469 3.62 1.369 10.354-6.284 16a.976.976 0 0 1-.544.131Z" fill="#231f20"/><path d="M311.117 202.721s7.991 137.833 0 227.158c0 0-50.14.9-70.961-3.526 0 0 11.386-205.324 17.989-210.989ZM580.068 205.46s-40.817 16.451-72.8 18.439-73.287-8.535-73.287-8.535l-11.254 53.629s41.267 18.045 82.254 10.186 85.274-43.35 85.274-43.35Z" fill="#edbb48"/><path d="M381.009 202.721s-5.629 158.636-7.259 227.233c0 0 39.973 3 71.374-3.6 0 0-4.558-205.324-11.142-210.989Z" fill="#edbb48"/><path d="M445.124 385.723a.938.938 0 0 1-.938-.882l-7.5-147.306a.93.93 0 1 1 1.857-.094l7.5 147.306a.938.938 0 0 1-.882.975ZM241.675 385.723a.938.938 0 0 1-.863-1.013l12.005-147.287a.957.957 0 0 1 1.013-.863.938.938 0 0 1 .863 1.013L242.611 384.86a.938.938 0 0 1-.936.863ZM260.678 395.909a.938.938 0 0 1-.525-1.707l33.464-22.81a.938.938 0 0 1 1.313.244.975.975 0 0 1-.244 1.313l-33.483 22.795a.92.92 0 0 1-.525.165ZM426.179 391.632a.862.862 0 0 1-.525-.15l-33.483-22.81a.919.919 0 0 1-.244-1.294.938.938 0 0 1 1.294-.263l33.483 22.81a.938.938 0 0 1 .244 1.313.919.919 0 0 1-.769.394Z" fill="#231f20"/><path d="M77.15 273.438s4.971 28.493-12.849 49.221l31.888 16.076s13.487-29.019 8.254-59.069Z" fill="#fff"/><path d="M96.283 339.673a.863.863 0 0 1-.413-.113l-32-16.057a.975.975 0 0 1-.488-.657.919.919 0 0 1 .206-.788c17.332-20.146 12.68-48.17 12.643-48.452a.95.95 0 0 1 1.125-1.088l27.387 6.232a.9.9 0 0 1 .713.75c5.233 30.013-8.178 59.331-8.31 59.631a.994.994 0 0 1-.544.488.955.955 0 0 1-.319.056Zm-30.5-17.314 30.013 15.006c2.138-5.027 12.249-30.707 7.878-57.005l-25.417-5.7c.713 5.906 2.382 29.598-12.474 47.699Z" fill="#d1d3d4"/><path d="m607.98 277.265-27.5 16.094s17.314 46.895 53.591 51.659c0 0 4.765-24.141 19.189-28.85.002.001-35.901-4.693-45.28-38.903Z" fill="#5200bd"/><path d="M634.073 345.953h-.113c-36.428-4.727-54.192-51.791-54.4-52.26a.938.938 0 0 1 .394-1.144l27.5-16.094a.957.957 0 0 1 .844 0 .938.938 0 0 1 .544.619c9.116 33.183 44.156 38.172 44.494 38.229a.919.919 0 0 1 .825.844.938.938 0 0 1-.657.975c-13.712 4.464-18.5 27.893-18.552 28.137a.919.919 0 0 1-.882.694Zm-52.43-52.181c2.364 5.89 19.414 45.375 51.7 50.2.957-4.146 5.5-21.44 16.751-27.462-8.835-2.045-34.477-10.242-42.693-37.816Z" fill="#d1d3d4"/><path d="M521.767 307.54s-15 34.214-40.74 34.214l20.371 28.137s40.479-13.562 43.143-45.694Z" fill="#f5edfe"/><path d="M501.398 370.886a.975.975 0 0 1-.769-.394l-20.352-28.137a.919.919 0 0 1 0-.975.9.9 0 0 1 .825-.506c24.76 0 39.729-33.314 39.879-33.652a.938.938 0 0 1 1.407-.375l22.81 16.695a.9.9 0 0 1 .375.825c-2.7 32.376-43.387 46.37-43.8 46.5a.846.846 0 0 1-.375.019Zm-18.57-28.231 18.908 26.167c5.14-1.876 39.073-15.55 41.849-44.119l-21.459-15.719a84.262 84.262 0 0 1-10.375 16.264c-8.8 10.767-18.833 16.751-28.925 17.389Z" fill="#d1d3d4"/><path d="m172.477 295.666-18.645 20.2s22.209 38.829 51.734 35.04c0 0 4.464-18.983 12.512-27.5 0 .003-38.416-4.93-45.601-27.74Z" fill="#fff"/><path d="M201.421 352.128c-27.612 0-47.514-34.252-48.4-35.79a.919.919 0 0 1 .131-1.088l18.627-20.2a.919.919 0 0 1 .882-.263.9.9 0 0 1 .694.619c6.9 21.984 44.456 27.049 44.85 27.105a.919.919 0 0 1 .75.619.938.938 0 0 1-.188.957c-7.785 8.235-12.249 26.861-12.305 27.049a.919.919 0 0 1-.788.713 33.1 33.1 0 0 1-4.253.279Zm-46.426-36.147c2.926 4.783 23.522 36.9 49.8 34.064.825-3.264 4.764-17.8 11.461-25.961a100.245 100.245 0 0 1-18.645-5.121c-13.281-5.158-22.059-12.568-25.511-21.515Z" fill="#d1d3d4"/><path d="M208.062 167.062s-7.878 13.993 16.113 23.879l14.519-22.172s-24.817-13.431-30.632-1.707Z" fill="#fff"/><path d="M224.174 191.877a.806.806 0 0 1-.356 0c-9.379-3.752-15.006-8.779-17.145-14.669a13.524 13.524 0 0 1 .563-10.5 8.985 8.985 0 0 1 5.627-4.671c9.548-3.02 25.68 5.627 26.355 5.984a.919.919 0 0 1 .338 1.332l-14.519 22.191a.957.957 0 0 1-.863.338Zm-6.753-28.681a13.43 13.43 0 0 0-4.07.563 7.072 7.072 0 0 0-4.446 3.752 11.93 11.93 0 0 0-.431 9.041c1.876 5.177 6.978 9.623 15.363 13.131l13.524-20.634c-2.964-1.407-12.493-5.852-19.94-5.852Zm-9.379 3.864Z" fill="#d1d3d4"/><path d="M254.169 167.061s-1.747-28-29.731-23.39l-16.376 23.39s14.612-15.644 33.5 18.477Z" fill="#fff"/><path d="M241.563 186.476a.994.994 0 0 1-.788-.488c-7.3-13.131-15.006-20.634-22.3-21.515a12.043 12.043 0 0 0-9.717 3.226.938.938 0 0 1-1.463-1.163l16.373-23.414a.938.938 0 0 1 .619-.375c8.572-1.426 15.644 0 20.99 4.277 8.929 7.128 9.81 19.452 9.829 19.977a.9.9 0 0 1-.15.582l-12.567 18.481a.957.957 0 0 1-.826.412Zm-24.629-23.954a13.965 13.965 0 0 1 1.744 0c7.766.957 15.494 8.066 22.96 21.14l11.536-16.882c-.188-1.876-1.576-12.324-9.116-18.327-4.84-3.752-11.255-5.177-19.114-3.958l-13.337 19.077a13.506 13.506 0 0 1 5.365-1.05Z" fill="#d1d3d4"/><path d="M561.405 392.851s1.576-18.439 30.875-12.286l-.563 30.575s-32.394-3.339-30.312-18.289Z" fill="#5200bd"/><path d="M591.718 412.153h-.094c-.9-.094-21.834-2.345-28.906-11.386a10.242 10.242 0 0 1-2.232-7.953 15.438 15.438 0 0 1 6.228-10.279c5.721-4.258 14.387-5.215 25.755-2.814a.919.919 0 0 1 .75.919l-.563 30.594a.994.994 0 0 1-.319.675.957.957 0 0 1-.619.244Zm-10.43-31.889a22.041 22.041 0 0 0-13.412 3.752 13.844 13.844 0 0 0-5.534 8.985 8.272 8.272 0 0 0 1.876 6.547c5.759 7.353 22.341 9.979 26.618 10.561l.525-28.775a51.4 51.4 0 0 0-10.073-1.069Zm-19.883 12.624Z" fill="#d1d3d4"/><path d="M605.467 422.807s-19.865 25.567-43.556 2.982l-.413-32.939s3.752 24.385 43.987 4.183Z" fill="#a28dc4"/><path d="M582.039 436.05c-7.184 0-14.2-3.226-20.878-9.585a.957.957 0 0 1-.281-.675l-.432-32.92a.944.944 0 0 1 1.876-.169 14.069 14.069 0 0 0 7.278 9.529c7.5 3.883 19.79 1.876 35.34-6.04a.938.938 0 0 1 1.369.844v25.773a.956.956 0 0 1-.206.581c-.375.469-9.173 11.611-22.266 12.587-.6.057-1.2.075-1.8.075Zm-19.283-10.673c6.734 6.322 13.787 9.266 20.934 8.722 11.255-.825 19.377-10 20.746-11.63v-23.916c-15.682 7.672-27.687 9.379-35.64 5.327a15.72 15.72 0 0 1-6.321-5.927Zm42.712-2.57Z" fill="#d1d3d4"/><path d="M521.338 167.137s-21.084-3.02-29.187-11.442-14.857-13.129-29.357-14.669l-2.982 30.013a103.772 103.772 0 0 1 22.247 9.173c11.1 6.284 16.263 11.255 28.981 11.949Z" fill="#f5edfe"/><path d="M511.04 193.06c-10.336-.544-15.719-3.752-23.185-8.385-1.876-1.163-3.92-2.4-6.209-3.752a102.735 102.735 0 0 0-22-9.06.976.976 0 0 1-.713-1.013l2.983-30.013a.9.9 0 0 1 .338-.638.957.957 0 0 1 .657-.038c14.687 1.632 21.609 6.321 30.013 15.006 7.785 8.1 28.437 11.142 28.643 11.161a.938.938 0 0 1 .675.469.92.92 0 0 1 0 .825l-10.3 24.986a.938.938 0 0 1-.902.452Zm-50.215-22.753a106.693 106.693 0 0 1 21.7 9.041 182.006 182.006 0 0 1 6.246 3.752c7.053 4.314 12.211 7.5 21.647 8.085l9.6-23.279c-4.652-.769-21.347-4.033-28.55-11.517-7.841-8.141-14.369-12.624-27.856-14.294Z" fill="#d1d3d4"/><path d="M171.878 127.914s-6.434-11.367-24.1-12.774-26.265-11.255-26.265-11.255l15.006-17.557s7.747 5.946 21.121 4.727 26.768 6.528 28.137 8.647-13.899 28.212-13.899 28.212Z" fill="#fff"/><path d="M171.878 128.908a.9.9 0 0 1-.825-.469c0-.113-6.434-10.955-23.279-12.305-17.783-1.426-26.524-11.255-26.9-11.63a.938.938 0 0 1 0-1.219l15.007-17.576a.938.938 0 0 1 1.276-.131s7.672 5.721 20.484 4.539c13.787-1.257 27.462 6.7 29.037 9.06s-6.809 17.111-13.975 29.281a.957.957 0 0 1-.825.45Zm-49.015-25.12a40.873 40.873 0 0 0 25.061 10.411c14.5 1.163 21.59 8.835 23.9 11.949 6.809-11.667 13.468-24.385 13.131-26.149-1.032-1.482-13.843-9.379-27.236-8.066a33.52 33.52 0 0 1-21.046-4.427Z" fill="#d1d3d4"/><path d="M158.485 394.07s9.867 15.85-11.255 26.411l-16.207-35.64s21.478-1.332 27.462 9.229Z" fill="#fff"/><path d="M147.229 421.419a.879.879 0 0 1-.319 0 .938.938 0 0 1-.544-.488l-16.188-35.638a.919.919 0 0 1 .713-1.276c.9 0 22.116-1.313 28.324 9.623a18.251 18.251 0 0 1 1.876 13.712c-1.594 5.627-6.115 10.336-13.468 14.012a1.107 1.107 0 0 1-.394.056Zm-14.762-35.64 15.194 33.37c6.359-3.339 10.261-7.5 11.649-12.4a16.676 16.676 0 0 0-1.613-12.211c-4.8-8.441-20.465-8.816-25.229-8.647Z" fill="#d1d3d4"/><path d="M158.48 394.071s-9.491-2.1-19 10.223-27.818 4.221-27.818 4.221l-2.642-28.25s15.494 5.627 20.784-1.763a15.607 15.607 0 0 1 14.068-6.171Z" fill="#fff"/><path d="M124.42 412.022a36.276 36.276 0 0 1-13.131-2.664.938.938 0 0 1-.563-.769l-2.645-28.324a.957.957 0 0 1 .375-.825.919.919 0 0 1 .882-.131c.15 0 14.894 5.309 19.7-1.426a16.413 16.413 0 0 1 15.006-6.547.957.957 0 0 1 .657.413l14.612 21.815a.975.975 0 0 1 0 1.05.957.957 0 0 1-.975.394c-.375 0-9.1-1.763-18.083 9.867a19 19 0 0 1-15.832 7.147Zm-11.874-4.164c2.945 1.144 18.1 6.34 26.261-4.146 7.222-9.379 14.462-10.692 17.914-10.73l-13.374-19.846a14.444 14.444 0 0 0-12.793 5.813c-4.708 6.6-16.413 3.752-20.465 2.551Z" fill="#d1d3d4"/><path d="M344.3 434.663a.938.938 0 0 1-.807-.431c-.788-1.294-5.459-8.085-5.5-8.16a.882.882 0 0 1-.169-.525v-29.223a.938.938 0 1 1 1.876 0v28.96c.844 1.238 4.652 6.772 5.384 7.972a.938.938 0 0 1-.3 1.294.9.9 0 0 1-.488.113Z" fill="#fff"/><path d="M345.801 467.433a.938.938 0 0 1-.938-.938v-70.171a.938.938 0 1 1 1.876 0v70.23a.938.938 0 0 1-.938.879Z" fill="#fff"/></g></svg>