<svg xmlns="http://www.w3.org/2000/svg" width="251.36" height="71.44" viewBox="0 0 251.36 71.44"><path d="M138.25 2.32h26.19a46.18 46.18 0 0 1 9.8 1 23 23 0 0 1 8.12 3.35 16.73 16.73 0 0 1 5.55 6.3 21.54 21.54 0 0 1 2.05 9.9 19.82 19.82 0 0 1-3.73 12.18q-3.72 5-10.89 6.36L192.54 70h-17.87l-14.15-27h-7.36v27h-14.91Zm14.91 28H162c1.33 0 2.75-.05 4.25-.14a13.66 13.66 0 0 0 4.06-.86 7.07 7.07 0 0 0 3-2.25 6.81 6.81 0 0 0 1.2-4.3 7.15 7.15 0 0 0-1-4.11 7.09 7.09 0 0 0-2.68-2.34 11.89 11.89 0 0 0-3.73-1.1 30.57 30.57 0 0 0-4.11-.29h-9.75ZM251.36 44.31a31.9 31.9 0 0 1-1.77 10.82 23.77 23.77 0 0 1-5.27 8.57 24.19 24.19 0 0 1-8.71 5.69 36.56 36.56 0 0 1-24.14 0 24.23 24.23 0 0 1-8.72-5.69 23.75 23.75 0 0 1-5.26-8.57 31.9 31.9 0 0 1-1.77-10.82V3.77h14.54v40a16.15 16.15 0 0 0 1 5.69A13.68 13.68 0 0 0 214 54a12.47 12.47 0 0 0 4.25 3 13.18 13.18 0 0 0 5.33 1 12.94 12.94 0 0 0 5.32-1.07 12.62 12.62 0 0 0 4.19-3 13.51 13.51 0 0 0 2.75-4.52 16.15 16.15 0 0 0 1-5.69v-40h14.54ZM41.58 2.32H29.25L0 69.98h16.44l5.64-14.33 4.68-12.62L34.98 22l8.32 21.03-21.22 12.62h26.28l5.83 14.33h16.82L41.58 2.32z"/><path fill="#5200bc" d="m119.89 53.59 11.24 16.39h-17.85l-6.7-6.7"/><path d="M128.13 20.51A31.11 31.11 0 0 0 109.9 2.45a40.77 40.77 0 0 0-27.84 0 31.11 31.11 0 0 0-18.23 18.06A33.48 33.48 0 0 0 62.41 25L80 66.64q1 .48 2.1.9a40.93 40.93 0 0 0 27.84 0 31.18 31.18 0 0 0 18.23-18.06A38.74 38.74 0 0 0 130.72 35a38.65 38.65 0 0 0-2.59-14.49ZM114.58 43.6a19.8 19.8 0 0 1-4 6.77 18.39 18.39 0 0 1-6.32 4.47 22 22 0 0 1-16.46 0 18.39 18.39 0 0 1-6.32-4.47 19.8 19.8 0 0 1-4.05-6.77A25.16 25.16 0 0 1 76 35a25.33 25.33 0 0 1 1.41-8.56 19.84 19.84 0 0 1 4.05-6.82 18.53 18.53 0 0 1 6.32-4.47 22.09 22.09 0 0 1 16.46 0 18.53 18.53 0 0 1 6.32 4.47 19.84 19.84 0 0 1 4 6.82A25.33 25.33 0 0 1 116 35a25.16 25.16 0 0 1-1.42 8.6Z" fill="#5200bc"/></svg>