<?xml version="1.0" encoding="utf-8"?>
<!-- Generator: Adobe Illustrator 21.0.2, SVG Export Plug-In . SVG Version: 6.00 Build 0)  -->
<svg version="1.1" id="Ebene_1" xmlns="http://www.w3.org/2000/svg" xmlns:xlink="http://www.w3.org/1999/xlink" x="0px" y="0px"
	 viewBox="0 0 419 88" style="enable-background:new 0 0 419 88;" xml:space="preserve">
<style type="text/css">
	.st0{clip-path:url(#SVGID_2_);fill:url(#SVGID_3_);}
	.st1{clip-path:url(#SVGID_5_);fill:url(#SVGID_6_);}
	.st2{clip-path:url(#SVGID_8_);fill:url(#SVGID_9_);}
	.st3{clip-path:url(#SVGID_11_);}
	.st4{fill:url(#SVGID_12_);}
</style>
<g>
	<g>
		<g>
			<defs>
				<path id="SVGID_1_" d="M384.8,9.2c-1.5,0-5.8,0-10.8,6.1c0.1,0.1,0.1,0.2,0.2,0.2c1.3-1.5,2.9-3.1,4.7-4.2c1.6-1,3.5-1.7,5-1.9
					c1.1-0.1,4.8-0.1,9.1-0.1l0,0l-0.1-0.2l0,0h-8.1L384.8,9.2L384.8,9.2z"/>
			</defs>
			<clipPath id="SVGID_2_">
				<use xlink:href="#SVGID_1_"  style="overflow:visible;"/>
			</clipPath>
			
				<radialGradient id="SVGID_3_" cx="264.8737" cy="518.8943" r="2.5069" gradientTransform="matrix(24.9017 0 0 -24.9017 -6195.9312 12992.6484)" gradientUnits="userSpaceOnUse">
				<stop  offset="0" style="stop-color:#FFE631"/>
				<stop  offset="0.1374" style="stop-color:#FFD41C"/>
				<stop  offset="0.3217" style="stop-color:#FFC10C"/>
				<stop  offset="0.44" style="stop-color:#FFBA00"/>
				<stop  offset="0.6086" style="stop-color:#FEB600"/>
				<stop  offset="0.7543" style="stop-color:#FAA800"/>
				<stop  offset="0.8911" style="stop-color:#F39300"/>
				<stop  offset="0.9" style="stop-color:#F29100"/>
				<stop  offset="1" style="stop-color:#E67300"/>
			</radialGradient>
			<rect x="374" y="9.2" class="st0" width="19" height="6.3"/>
		</g>
	</g>
</g>
<g>
	<g>
		<g>
			<defs>
				<path id="SVGID_4_" d="M355.3,9.2L355.3,9.2l-15.8,27.3l-4.9,8.6l-0.6,1l-0.1,0.1l0,0l15,26v-0.1c-0.3-0.6-0.6-1.1-0.7-1.3
					c-0.6-1.4-1-3.4-0.9-5.3c0.3-5,2.9-10,4.3-12.3c3.2-5.5,9.3-16,9.3-16s6.1-10.6,9.3-16c1.3-2.3,4.3-7.1,8.5-9.9
					c1.6-1,3.5-1.7,5-1.9c1.1-0.1,4.9-0.1,9.1-0.1L355.3,9.2L355.3,9.2z"/>
			</defs>
			<clipPath id="SVGID_5_">
				<use xlink:href="#SVGID_4_"  style="overflow:visible;"/>
			</clipPath>
			
				<radialGradient id="SVGID_6_" cx="264.498" cy="520.4043" r="2.4876" gradientTransform="matrix(24.92 0 0 -24.92 -6207.6006 12977.7334)" gradientUnits="userSpaceOnUse">
				<stop  offset="0" style="stop-color:#FFE631"/>
				<stop  offset="0.1374" style="stop-color:#FFD41C"/>
				<stop  offset="0.3217" style="stop-color:#FFC10C"/>
				<stop  offset="0.44" style="stop-color:#FFBA00"/>
				<stop  offset="0.6086" style="stop-color:#FEB600"/>
				<stop  offset="0.7543" style="stop-color:#FAA800"/>
				<stop  offset="0.8911" style="stop-color:#F39300"/>
				<stop  offset="0.9" style="stop-color:#F29100"/>
				<stop  offset="1" style="stop-color:#E67300"/>
			</radialGradient>
			<rect x="333.9" y="9.2" class="st1" width="58.9" height="63"/>
		</g>
	</g>
</g>
<g>
	<g>
		<g>
			<defs>
				<path id="SVGID_7_" d="M409.5,54.1c-0.9,1.2-2.4,2.5-4.1,3.4c-4.5,2.3-10.1,2.5-12.8,2.5h-18.5h-18.5c-2.7,0-8.3-0.2-12.8-2.5
					c-1.7-0.9-3.2-2.2-4.1-3.4c-0.6-0.8-2.1-3.3-3.8-6.4l3.8,6.5l14.2,24.5l0,0h42.7l0,0L414,46.5C412,50.1,410.2,53.2,409.5,54.1
					 M334.1,46.5c0.2,0.4,0.5,0.8,0.7,1.2L334.1,46.5z"/>
			</defs>
			<clipPath id="SVGID_8_">
				<use xlink:href="#SVGID_7_"  style="overflow:visible;"/>
			</clipPath>
			
				<radialGradient id="SVGID_9_" cx="263.4079" cy="519.3177" r="2.4883" gradientTransform="matrix(24.9101 0 0 -24.9101 -6223.0537 12990.5273)" gradientUnits="userSpaceOnUse">
				<stop  offset="0" style="stop-color:#FFE631"/>
				<stop  offset="0.1374" style="stop-color:#FFD41C"/>
				<stop  offset="0.3217" style="stop-color:#FFC10C"/>
				<stop  offset="0.44" style="stop-color:#FFBA00"/>
				<stop  offset="0.6086" style="stop-color:#FEB600"/>
				<stop  offset="0.7543" style="stop-color:#FAA800"/>
				<stop  offset="0.8911" style="stop-color:#F39300"/>
				<stop  offset="0.9" style="stop-color:#F29100"/>
				<stop  offset="1" style="stop-color:#E67300"/>
			</radialGradient>
			<rect x="334.1" y="46.5" class="st2" width="80" height="32.3"/>
		</g>
	</g>
</g>
<g>
	<g>
		<g>
			<defs>
				<path id="SVGID_10_" d="M383.7,9.4c-1.5,0.2-3.4,0.8-5,1.9c-1.8,1.1-3.3,2.6-4.6,4.2c1.8,2.1,3.1,4.3,3.9,5.7
					c3.2,5.5,9.3,16,9.3,16s6.1,10.6,9.3,16c1.3,2.3,4,7.3,4.3,12.3c0.1,1.9-0.3,3.9-0.9,5.3c-0.4,1-2.2,4-4.2,7.5l18.5-32l0,0l0,0
					l0,0L393,9.3l0,0C388.6,9.2,384.8,9.2,383.7,9.4"/>
			</defs>
			<clipPath id="SVGID_11_">
				<use xlink:href="#SVGID_10_"  style="overflow:visible;"/>
			</clipPath>
			<g class="st3">
				
					<radialGradient id="SVGID_12_" cx="264.9158" cy="518.9402" r="2.4883" gradientTransform="matrix(24.9799 0 0 -24.9799 -6217.7515 13034.0371)" gradientUnits="userSpaceOnUse">
					<stop  offset="0" style="stop-color:#FFE631"/>
					<stop  offset="0.1374" style="stop-color:#FFD41C"/>
					<stop  offset="0.3217" style="stop-color:#FFC10C"/>
					<stop  offset="0.44" style="stop-color:#FFBA00"/>
					<stop  offset="0.6086" style="stop-color:#FEB600"/>
					<stop  offset="0.7543" style="stop-color:#FAA800"/>
					<stop  offset="0.8911" style="stop-color:#F39300"/>
					<stop  offset="0.9" style="stop-color:#F29100"/>
					<stop  offset="1" style="stop-color:#E67300"/>
				</radialGradient>
				<rect x="374.1" y="9.2" class="st4" width="40.1" height="69.1"/>
			</g>
		</g>
	</g>
</g>
<g>
	<path d="M27,50.6l5.2,1.7c-0.8,3-2.1,5.1-4,6.6S24,61,21.2,61c-3.5,0-6.4-1.2-8.6-3.7c-2.3-2.5-3.4-5.8-3.4-10.1
		c0-4.5,1.1-8,3.4-10.5s5.3-3.7,9-3.7c3.2,0,5.9,1,7.9,2.9c1.2,1.2,2.1,2.8,2.7,5l-5.3,1.3c-0.3-1.4-1-2.5-2-3.3s-2.2-1.2-3.6-1.2
		c-2,0-3.5,0.7-4.8,2.2c-1.2,1.4-1.8,3.8-1.8,7c0,3.4,0.6,5.8,1.8,7.3c1.2,1.5,2.8,2.2,4.7,2.2c1.4,0,2.6-0.5,3.7-1.4
		C25.8,54,26.5,52.6,27,50.6z"/>
	<path d="M34.8,50.5c0-1.7,0.4-3.4,1.2-5c0.8-1.6,2-2.8,3.5-3.7c1.5-0.8,3.2-1.3,5.1-1.3c2.9,0,5.3,1,7.1,2.9
		c1.8,1.9,2.8,4.4,2.8,7.3c0,3-0.9,5.4-2.8,7.4C49.8,60,47.5,61,44.7,61c-1.8,0-3.4-0.4-5-1.2c-1.6-0.8-2.8-2-3.6-3.6
		C35.2,54.6,34.8,52.7,34.8,50.5z M40,50.7c0,1.9,0.5,3.4,1.4,4.5s2,1.5,3.3,1.5s2.4-0.5,3.3-1.5s1.3-2.5,1.3-4.5
		c0-1.9-0.4-3.4-1.3-4.4s-2-1.5-3.3-1.5s-2.4,0.5-3.3,1.5S40,48.8,40,50.7z"/>
	<path d="M57.4,40.9H62v2.7c1.7-2.1,3.7-3.1,6-3.1c1.2,0,2.3,0.3,3.2,0.8c0.9,0.5,1.6,1.3,2.2,2.3c0.8-1,1.7-1.8,2.7-2.3
		c1-0.5,2-0.8,3.1-0.8c1.4,0,2.6,0.3,3.6,0.9c1,0.6,1.7,1.4,2.2,2.6c0.3,0.8,0.5,2.2,0.5,4.1v12.5h-5.1V49.3c0-1.9-0.2-3.2-0.5-3.8
		c-0.5-0.7-1.2-1.1-2.2-1.1c-0.7,0-1.4,0.2-2,0.7s-1.1,1.1-1.4,1.9c-0.3,0.9-0.4,2.2-0.4,4v9.4h-5.1V49.8c0-1.9-0.1-3.1-0.3-3.7
		c-0.2-0.6-0.5-1-0.8-1.2c-0.4-0.3-0.9-0.4-1.5-0.4c-0.8,0-1.5,0.2-2.1,0.6c-0.6,0.4-1.1,1.1-1.3,1.9c-0.3,0.8-0.4,2.2-0.4,4v9.5
		h-5.1V40.9z"/>
	<path d="M89.4,40.9h4.7v2.7c1.7-2.1,3.7-3.1,6-3.1c1.2,0,2.3,0.3,3.2,0.8c0.9,0.5,1.6,1.3,2.2,2.3c0.8-1,1.7-1.8,2.7-2.3
		c1-0.5,2-0.8,3.1-0.8c1.4,0,2.6,0.3,3.6,0.9c1,0.6,1.7,1.4,2.2,2.6c0.3,0.8,0.5,2.2,0.5,4.1v12.5h-5.1V49.3c0-1.9-0.2-3.2-0.5-3.8
		c-0.5-0.7-1.2-1.1-2.2-1.1c-0.7,0-1.4,0.2-2,0.7s-1.1,1.1-1.4,1.9c-0.3,0.9-0.4,2.2-0.4,4v9.4H101V49.8c0-1.9-0.1-3.1-0.3-3.7
		c-0.2-0.6-0.5-1-0.8-1.2c-0.4-0.3-0.9-0.4-1.5-0.4c-0.8,0-1.5,0.2-2.1,0.6c-0.6,0.4-1.1,1.1-1.3,1.9c-0.3,0.8-0.4,2.2-0.4,4v9.5
		h-5.1V40.9z"/>
	<path d="M132.9,54.3l5,0.9c-0.6,1.9-1.7,3.3-3.1,4.3c-1.4,1-3.1,1.5-5.3,1.5c-3.3,0-5.8-1.1-7.4-3.3c-1.3-1.8-1.9-4-1.9-6.7
		c0-3.2,0.8-5.8,2.5-7.6c1.7-1.8,3.8-2.8,6.3-2.8c2.8,0,5.1,1,6.7,2.9c1.6,1.9,2.4,4.9,2.4,8.8h-12.7c0,1.5,0.4,2.7,1.2,3.6
		c0.8,0.9,1.8,1.3,2.9,1.3c0.8,0,1.5-0.2,2-0.7S132.7,55.3,132.9,54.3z M133.2,49.1c0-1.5-0.4-2.6-1.1-3.4c-0.7-0.8-1.6-1.2-2.6-1.2
		c-1.1,0-2,0.4-2.7,1.2c-0.7,0.8-1.1,1.9-1.1,3.4H133.2z"/>
	<path d="M146.5,60.5h-5.1V40.9h4.7v2.8c0.8-1.3,1.5-2.2,2.2-2.6c0.6-0.4,1.4-0.6,2.2-0.6c1.2,0,2.3,0.3,3.3,1l-1.6,4.5
		c-0.9-0.6-1.6-0.8-2.4-0.8c-0.7,0-1.3,0.2-1.8,0.6c-0.5,0.4-0.9,1.1-1.2,2.2c-0.3,1-0.4,3.2-0.4,6.6V60.5z"/>
	<path d="M153.2,60.5v-4l7.2-8.4c1.2-1.4,2-2.4,2.6-2.9c-0.6,0-1.4,0.1-2.3,0.1l-6.8,0v-4.3h15.8v3.7l-7.3,8.6l-2.6,2.9
		c1.4-0.1,2.3-0.1,2.6-0.1h7.8v4.6H153.2z"/>
	<path d="M179.7,60.5l-9.4-27h5.8l6.7,20l6.5-20h5.7l-9.5,27H179.7z"/>
	<path d="M207.9,54.3l5,0.9c-0.6,1.9-1.7,3.3-3.1,4.3c-1.4,1-3.1,1.5-5.3,1.5c-3.3,0-5.8-1.1-7.4-3.3c-1.3-1.8-1.9-4-1.9-6.7
		c0-3.2,0.8-5.8,2.5-7.6c1.7-1.8,3.8-2.8,6.3-2.8c2.8,0,5.1,1,6.7,2.9c1.6,1.9,2.4,4.9,2.4,8.8h-12.7c0,1.5,0.4,2.7,1.2,3.6
		c0.8,0.9,1.8,1.3,2.9,1.3c0.8,0,1.5-0.2,2-0.7C207.2,56,207.6,55.3,207.9,54.3z M208.2,49.1c0-1.5-0.4-2.6-1.1-3.4
		c-0.7-0.8-1.6-1.2-2.6-1.2c-1.1,0-2,0.4-2.7,1.2c-0.7,0.8-1.1,1.9-1.1,3.4H208.2z"/>
	<path d="M234,60.5h-5.1v-10c0-2.1-0.1-3.5-0.3-4.1c-0.2-0.6-0.6-1.1-1.1-1.4s-1.1-0.5-1.8-0.5c-0.9,0-1.7,0.2-2.4,0.7
		c-0.7,0.5-1.2,1.1-1.4,2c-0.3,0.8-0.4,2.3-0.4,4.5v8.9h-5.1V40.9h4.7v2.9c1.7-2.2,3.8-3.3,6.3-3.3c1.1,0,2.1,0.2,3.1,0.6
		s1.6,0.9,2.1,1.6c0.5,0.6,0.8,1.4,1,2.2c0.2,0.8,0.3,2,0.3,3.5V60.5z"/>
	<path d="M247.2,40.9v4.1h-3.5V53c0,1.6,0,2.5,0.1,2.8c0.1,0.3,0.2,0.5,0.5,0.7c0.2,0.2,0.5,0.3,0.9,0.3c0.5,0,1.1-0.2,2-0.5l0.4,4
		c-1.2,0.5-2.5,0.8-4,0.8c-0.9,0-1.7-0.2-2.5-0.5s-1.3-0.7-1.6-1.2c-0.3-0.5-0.6-1.2-0.7-2c-0.1-0.6-0.2-1.8-0.2-3.7v-8.5h-2.3v-4.1
		h2.3v-3.9l5.1-3v6.9H247.2z"/>
	<path d="M262.5,60.5v-2.9c-0.7,1-1.6,1.9-2.7,2.5c-1.1,0.6-2.3,0.9-3.6,0.9c-1.3,0-2.4-0.3-3.5-0.9c-1-0.6-1.8-1.4-2.2-2.4
		c-0.5-1-0.7-2.5-0.7-4.3V40.9h5.1v9c0,2.8,0.1,4.4,0.3,5.1c0.2,0.6,0.5,1.1,1,1.5s1.1,0.5,1.9,0.5c0.9,0,1.6-0.2,2.3-0.7
		s1.2-1.1,1.4-1.8c0.3-0.7,0.4-2.5,0.4-5.3v-8.3h5.1v19.6H262.5z"/>
	<path d="M276.6,60.5h-5.1V40.9h4.7v2.8c0.8-1.3,1.5-2.2,2.2-2.6s1.4-0.6,2.2-0.6c1.2,0,2.3,0.3,3.3,1l-1.6,4.5
		c-0.9-0.6-1.6-0.8-2.4-0.8c-0.7,0-1.3,0.2-1.8,0.6c-0.5,0.4-0.9,1.1-1.2,2.2c-0.3,1-0.4,3.2-0.4,6.6V60.5z"/>
	<path d="M296.4,54.3l5,0.9c-0.6,1.9-1.7,3.3-3.1,4.3c-1.4,1-3.1,1.5-5.3,1.5c-3.3,0-5.8-1.1-7.4-3.3c-1.3-1.8-1.9-4-1.9-6.7
		c0-3.2,0.8-5.8,2.5-7.6c1.7-1.8,3.8-2.8,6.3-2.8c2.8,0,5.1,1,6.7,2.9c1.6,1.9,2.4,4.9,2.4,8.8h-12.7c0,1.5,0.4,2.7,1.2,3.6
		c0.8,0.9,1.8,1.3,2.9,1.3c0.8,0,1.5-0.2,2-0.7S296.2,55.3,296.4,54.3z M296.7,49.1c0-1.5-0.4-2.6-1.1-3.4c-0.7-0.8-1.6-1.2-2.6-1.2
		c-1.1,0-2,0.4-2.7,1.2s-1.1,1.9-1.1,3.4H296.7z"/>
	<path d="M303.4,54.9l5.1-0.8c0.2,1,0.7,1.8,1.3,2.3s1.6,0.8,2.8,0.8c1.3,0,2.3-0.2,3-0.7c0.4-0.3,0.7-0.8,0.7-1.4
		c0-0.4-0.1-0.7-0.4-1c-0.3-0.2-0.8-0.5-1.7-0.7c-4.1-0.9-6.7-1.8-7.8-2.5c-1.5-1.1-2.3-2.5-2.3-4.4c0-1.7,0.7-3.1,2-4.3
		s3.3-1.7,6.1-1.7c2.6,0,4.6,0.4,5.8,1.3c1.3,0.9,2.1,2.2,2.6,3.9l-4.8,0.9c-0.2-0.8-0.6-1.3-1.2-1.8c-0.6-0.4-1.4-0.6-2.4-0.6
		c-1.3,0-2.3,0.2-2.9,0.6c-0.4,0.3-0.6,0.6-0.6,1.1c0,0.4,0.2,0.7,0.5,0.9c0.5,0.3,2,0.8,4.7,1.5c2.7,0.6,4.6,1.4,5.6,2.3
		c1.1,0.9,1.6,2.2,1.6,3.9c0,1.8-0.7,3.3-2.2,4.6c-1.5,1.3-3.6,1.9-6.5,1.9c-2.6,0-4.7-0.5-6.2-1.6
		C304.8,58.3,303.8,56.8,303.4,54.9z"/>
</g>
</svg>
