<svg width="1526" height="1154" viewBox="0 0 1526 1154" fill="none" xmlns="http://www.w3.org/2000/svg">
<g clip-path="url(#clip0)">
<path d="M936.202 173.285C938.03 174.166 938.742 176.48 937.792 178.451L917.735 220.054C916.784 222.026 914.531 222.909 912.703 222.028C910.874 221.146 910.163 218.833 911.113 216.862L931.17 175.259C932.121 173.287 934.374 172.403 936.202 173.285Z" fill="#70C244"/>
<path d="M880.323 231.45C879.258 231.868 878.631 233.08 878.967 234.174L881.839 243.508C883.248 248.085 880.847 253.184 876.389 254.933C875.566 255.256 875.074 256.047 875.047 256.894L882.592 281.652C882.732 282.112 883.044 282.484 883.46 282.685C883.877 282.887 884.362 282.901 884.809 282.726L908.83 273.303C909.476 272.753 909.788 271.877 909.528 271.031C908.12 266.454 910.614 261.4 915.072 259.651L924.163 256.085C925.229 255.667 925.787 254.422 925.45 253.328L920.795 238.199C920.051 235.78 920.285 233.087 921.425 230.722C922.565 228.358 924.535 226.507 926.892 225.582C927.404 225.382 927.771 225.004 928.019 224.491C928.266 223.978 928.255 223.417 928.093 222.892L920.994 204.83L921.041 204.731L902.489 210.426C901.977 210.627 901.532 210.967 901.284 211.48C901.037 211.993 900.97 212.516 901.132 213.041C901.876 215.461 901.656 218.155 900.516 220.519C899.376 222.884 897.415 224.745 895.059 225.669L880.323 231.45Z" fill="#8CCE69"/>
<path d="M880.323 231.45C879.258 231.868 878.631 233.081 878.967 234.174L881.839 243.508C883.248 248.085 880.847 253.185 876.389 254.933C875.566 255.256 875.074 256.047 875.047 256.894L882.592 281.653C882.732 282.112 883.044 282.484 883.46 282.685C883.505 282.707 883.551 282.725 883.597 282.743L921.067 205.019L920.993 204.831L921.041 204.732L902.488 210.427C901.977 210.627 901.531 210.968 901.284 211.481C901.037 211.994 900.969 212.517 901.131 213.042C901.876 215.462 901.655 218.156 900.515 220.52C899.375 222.885 897.415 224.745 895.058 225.669L880.323 231.45Z" fill="#70C244"/>
<path d="M915.237 249.207C914.885 250.23 915.345 251.33 916.302 251.638L924.466 254.274C928.468 255.566 930.544 260.014 929.072 264.293C928.8 265.083 929.05 265.863 929.618 266.321L951.229 273.366C951.63 273.497 952.074 273.452 952.463 273.241C952.852 273.029 953.154 272.669 953.301 272.239L961.231 249.183C961.24 248.411 960.823 247.722 960.084 247.484C956.08 246.191 954.093 241.696 955.564 237.417L958.566 228.69C958.917 227.668 958.394 226.603 957.437 226.294L944.205 222.023C942.089 221.34 940.372 219.774 939.426 217.691C938.48 215.609 938.388 213.162 939.165 210.9C939.334 210.409 939.294 209.936 939.088 209.484C938.883 209.032 938.49 208.751 938.031 208.603L921.307 204.672L921.267 204.585L914.05 221.577C913.882 222.068 913.849 222.581 914.054 223.033C914.26 223.485 914.58 223.805 915.039 223.953C917.156 224.636 918.881 226.192 919.827 228.274C920.774 230.357 920.879 232.802 920.101 235.063L915.237 249.207Z" fill="#7D4800"/>
<path d="M915.237 249.207C914.885 250.23 915.345 251.33 916.302 251.638L924.466 254.274C928.468 255.566 930.544 260.014 929.073 264.293C928.801 265.083 929.05 265.863 929.618 266.32L951.229 273.367C951.63 273.498 952.074 273.452 952.463 273.241C952.505 273.218 952.545 273.193 952.585 273.167L921.482 204.713L921.308 204.672L921.268 204.585L914.051 221.577C913.882 222.068 913.85 222.581 914.055 223.033C914.26 223.485 914.581 223.805 915.04 223.954C917.156 224.637 918.882 226.193 919.828 228.275C920.775 230.357 920.88 232.802 920.102 235.064L915.237 249.207Z" fill="#633900"/>
<path d="M915.237 249.207C914.885 250.23 915.345 251.33 916.302 251.638L924.466 254.274C928.468 255.566 930.544 260.014 929.072 264.293C928.8 265.083 929.05 265.863 929.618 266.321L951.229 273.366C951.63 273.497 952.074 273.452 952.463 273.241C952.852 273.029 953.154 272.669 953.301 272.239L961.231 249.183C961.24 248.411 960.823 247.722 960.084 247.484C956.08 246.191 954.093 241.696 955.564 237.417L958.566 228.69C958.917 227.668 958.394 226.603 957.437 226.294L944.205 222.023C942.089 221.34 940.372 219.774 939.426 217.691C938.48 215.609 938.388 213.162 939.165 210.9C939.334 210.409 939.294 209.936 939.088 209.484C938.883 209.032 938.49 208.751 938.031 208.603L921.307 204.672L921.267 204.585L914.05 221.577C913.882 222.068 913.849 222.581 914.054 223.033C914.26 223.485 914.58 223.805 915.039 223.953C917.156 224.636 918.881 226.192 919.827 228.274C920.774 230.357 920.879 232.802 920.101 235.063L915.237 249.207Z" fill="#8CCE69"/>
<path d="M915.237 249.207C914.885 250.23 915.345 251.33 916.302 251.638L924.466 254.274C928.468 255.566 930.544 260.014 929.073 264.293C928.801 265.083 929.05 265.863 929.618 266.32L951.229 273.367C951.63 273.498 952.074 273.452 952.463 273.241C952.505 273.218 952.545 273.193 952.585 273.167L921.482 204.713L921.308 204.672L921.268 204.585L914.051 221.577C913.882 222.068 913.85 222.581 914.055 223.033C914.26 223.485 914.581 223.805 915.04 223.954C917.156 224.637 918.882 226.193 919.828 228.275C920.775 230.357 920.88 232.802 920.102 235.064L915.237 249.207Z" fill="#70C244"/>
<path d="M882.42 189.065C881.588 188.499 880.427 188.741 879.838 189.648L874.811 197.385C872.346 201.178 867.582 202.375 864.102 200.011C863.459 199.575 862.66 199.669 862.057 200.151L848.685 220.617C848.437 220.997 848.338 221.456 848.409 221.894C848.481 222.331 848.717 222.71 849.066 222.947L867.82 235.685C868.53 235.852 869.298 235.569 869.753 234.868C872.218 231.074 876.998 229.977 880.478 232.34L887.576 237.161C888.408 237.726 889.557 237.413 890.146 236.506L898.294 223.967C899.597 221.962 901.587 220.541 903.81 220.006C906.032 219.472 908.319 219.877 910.159 221.127C910.558 221.398 911.008 221.454 911.49 221.338C911.972 221.222 912.356 220.88 912.639 220.445L921.583 204.297L921.676 204.275L908.291 193.496C907.892 193.225 907.429 193.087 906.947 193.203C906.465 193.319 906.067 193.578 905.784 194.014C904.481 196.019 902.497 197.451 900.275 197.986C898.052 198.52 895.763 198.129 893.923 196.879L882.42 189.065Z" fill="#8CCE69"/>
<path d="M882.42 189.065C881.588 188.5 880.427 188.742 879.838 189.648L874.811 197.385C872.346 201.178 867.582 202.375 864.102 200.011C863.459 199.575 862.66 199.669 862.057 200.151L848.685 220.617C848.437 220.998 848.337 221.457 848.409 221.894C848.417 221.941 848.427 221.987 848.438 222.032L921.49 204.465L921.583 204.297L921.676 204.274L908.292 193.496C907.892 193.224 907.429 193.087 906.947 193.203C906.465 193.319 906.067 193.578 905.785 194.014C904.481 196.019 902.497 197.451 900.275 197.985C898.053 198.52 895.763 198.128 893.924 196.879L882.42 189.065Z" fill="#70C244"/>
</g>
<path d="M88.5203 974.123C86.0995 976.338 82.5072 976.352 80.4971 974.155L68.6028 961.156C61.2769 953.149 62.4949 940.068 71.317 931.996C73.7378 929.781 77.3301 929.766 79.3402 931.963C81.3506 934.16 81.0172 937.737 78.5967 939.952C74.6084 943.601 74.0581 949.515 77.3699 953.134L89.2642 966.134C91.2742 968.331 90.9415 971.907 88.5203 974.123Z" fill="#8CCE69"/>
<path opacity="0.2" d="M78.0928 953.924L69.3257 961.946L76.179 969.436L84.9461 961.414L78.0928 953.924Z" fill="black"/>
<path d="M157.291 947.859C134.127 922.542 114.408 946.401 86.5104 971.926C58.6131 997.451 33.1013 1014.98 56.265 1040.29C79.4285 1065.61 132.32 1078.01 160.218 1052.48C188.115 1026.96 180.454 973.175 157.291 947.859Z" fill="#70C244"/>
<path opacity="0.3" d="M56.265 1040.29C79.4285 1065.61 132.32 1078.01 160.218 1052.48L86.5101 971.926C58.6128 997.452 33.1013 1014.98 56.265 1040.29Z" fill="black"/>
<path opacity="0.3" d="M86.5105 971.927C58.8763 997.211 33.5921 1014.65 55.6305 1039.58C57.5271 1038.72 59.3401 1037.54 60.9818 1036.04L152.632 952.18C154.273 950.678 155.609 948.977 156.637 947.164C133.755 923.002 114.145 946.642 86.5105 971.927Z" fill="black"/>
<path d="M147.885 946.991C155.548 939.98 156.602 928.658 150.24 921.704C143.877 914.751 132.507 914.798 124.844 921.809L33.1936 1005.67C25.5307 1012.68 24.4763 1024 30.8389 1030.95C37.2014 1037.91 48.5717 1037.86 56.2346 1030.85L147.885 946.991Z" fill="#70C244"/>
<path d="M43.2018 1015.32C44.6984 1013.95 44.9043 1011.74 43.6616 1010.38C42.4189 1009.02 40.1983 1009.03 38.7016 1010.4C37.205 1011.77 36.9991 1013.98 38.2418 1015.34C39.4845 1016.7 41.7051 1016.69 43.2018 1015.32Z" fill="#8CCE69"/>
<path d="M79.3487 982.244C80.8454 980.875 81.0513 978.664 79.8086 977.305C78.5659 975.947 76.3452 975.956 74.8486 977.326C73.3519 978.695 73.1461 980.906 74.3887 982.264C75.6314 983.623 77.8521 983.613 79.3487 982.244Z" fill="#8CCE69"/>
<path d="M70.0797 1008.4C71.5763 1007.03 71.7822 1004.82 70.5395 1003.47C69.2968 1002.11 67.0762 1002.12 65.5795 1003.49C64.0829 1004.86 63.877 1007.07 65.1197 1008.42C66.3624 1009.78 68.583 1009.77 70.0797 1008.4Z" fill="#8CCE69"/>
<path d="M106.228 975.329C107.724 973.96 107.93 971.749 106.687 970.391C105.445 969.033 103.224 969.042 101.727 970.411C100.231 971.781 100.025 973.992 101.268 975.35C102.51 976.708 104.731 976.699 106.228 975.329Z" fill="#8CCE69"/>
<path d="M115.497 949.17C116.993 947.8 117.199 945.589 115.957 944.231C114.714 942.873 112.493 942.882 110.997 944.251C109.5 945.621 109.294 947.832 110.537 949.19C111.779 950.548 114 950.539 115.497 949.17Z" fill="#8CCE69"/>
<path d="M142.375 942.255C143.872 940.886 144.078 938.675 142.835 937.317C141.592 935.959 139.372 935.968 137.876 937.337C136.379 938.706 136.173 940.917 137.416 942.275C138.658 943.633 140.879 943.624 142.375 942.255Z" fill="#8CCE69"/>
<path d="M133.571 932.632C135.067 931.263 135.273 929.052 134.03 927.694C132.788 926.336 130.567 926.345 129.071 927.714C127.574 929.083 127.369 931.294 128.611 932.652C129.854 934.01 132.074 934.001 133.571 932.632Z" fill="white"/>
<path d="M97.4229 965.706C98.9196 964.337 99.1255 962.126 97.8828 960.768C96.6401 959.41 94.4194 959.419 92.9228 960.788C91.4262 962.157 91.2203 964.369 92.463 965.727C93.7056 967.085 95.9263 967.076 97.4229 965.706Z" fill="white"/>
<path d="M124.301 958.793C125.798 957.423 126.004 955.212 124.761 953.854C123.519 952.496 121.298 952.505 119.801 953.875C118.305 955.244 118.099 957.455 119.341 958.813C120.584 960.171 122.805 960.162 124.301 958.793Z" fill="white"/>
<path d="M88.1539 991.867C89.6505 990.497 89.8564 988.286 88.6137 986.928C87.3711 985.57 85.1504 985.579 83.6538 986.948C82.1571 988.318 81.9512 990.529 83.1939 991.887C84.4366 993.245 86.6573 993.236 88.1539 991.867Z" fill="white"/>
<path d="M61.275 998.781C62.7716 997.412 62.9775 995.201 61.7348 993.842C60.4922 992.484 58.2715 992.493 56.7749 993.863C55.2782 995.232 55.0723 997.443 56.315 998.801C57.5577 1000.16 59.7784 1000.15 61.275 998.781Z" fill="white"/>
<path d="M52.006 1024.94C53.5026 1023.57 53.7085 1021.36 52.4658 1020C51.2231 1018.64 49.0025 1018.65 47.5058 1020.02C46.0092 1021.39 45.8033 1023.6 47.046 1024.96C48.2887 1026.32 50.5093 1026.31 52.006 1024.94Z" fill="white"/>
<path d="M55.1896 1013.19C56.6862 1011.82 56.8921 1009.61 55.6494 1008.25C54.4067 1006.89 52.186 1006.9 50.6894 1008.27C49.1928 1009.64 48.9869 1011.85 50.2296 1013.21C51.4722 1014.57 53.6929 1014.56 55.1896 1013.19Z" fill="white"/>
<path d="M74.4967 995.523C75.9933 994.153 76.1992 991.942 74.9565 990.584C73.7138 989.226 71.4932 989.235 69.9965 990.604C68.4999 991.974 68.294 994.185 69.5367 995.543C70.7794 996.901 73 996.892 74.4967 995.523Z" fill="#8CCE69"/>
<path d="M130.388 944.384C131.885 943.014 132.091 940.803 130.848 939.445C129.605 938.087 127.385 938.096 125.888 939.465C124.391 940.835 124.186 943.046 125.428 944.404C126.671 945.762 128.892 945.753 130.388 944.384Z" fill="white"/>
<path d="M111.08 962.05C112.576 960.681 112.782 958.47 111.54 957.112C110.297 955.754 108.077 955.763 106.58 957.133C105.084 958.502 104.878 960.713 106.12 962.071C107.363 963.429 109.583 963.42 111.08 962.05Z" fill="#8CCE69"/>
<path d="M92.7887 978.786C94.2853 977.417 94.4912 975.206 93.2485 973.848C92.0058 972.49 89.7852 972.499 88.2885 973.868C86.7919 975.238 86.586 977.449 87.8287 978.807C89.0714 980.165 91.292 980.156 92.7887 978.786Z" fill="white"/>
<path opacity="0.3" d="M33.1926 1005.67C25.5297 1012.68 24.4753 1024 30.8379 1030.95C37.2005 1037.91 48.5707 1037.86 56.2336 1030.85L102.059 988.919L79.0177 963.737L33.1926 1005.67Z" fill="black"/>
<path d="M343.331 974.529C343.57 973.173 344.968 972.286 346.452 972.548L355.235 974.099C360.645 975.054 364.336 979.853 363.463 984.796C363.223 986.152 361.826 987.04 360.341 986.777C358.857 986.515 357.848 985.203 358.087 983.847C358.482 981.612 356.813 979.443 354.368 979.011L345.585 977.46C344.1 977.198 343.091 975.886 343.331 974.529Z" fill="#8CCE69"/>
<path opacity="0.2" d="M353.834 978.917L354.702 974.005L349.641 973.111L348.773 978.023L353.834 978.917Z" fill="black"/>
<path d="M324.851 1000.45C341.955 1003.47 342.054 990.422 344.815 974.791C347.575 959.161 351.952 946.868 334.847 943.847C317.742 940.826 293.147 949.549 290.387 965.179C287.627 980.809 307.746 997.429 324.851 1000.45Z" fill="#70C244"/>
<path opacity="0.3" d="M334.847 943.847C317.742 940.826 293.147 949.549 290.387 965.179L344.815 974.791C347.575 959.161 351.952 946.868 334.847 943.847Z" fill="black"/>
<path opacity="0.3" d="M344.814 974.791C347.548 959.309 351.865 947.102 335.321 943.937C334.856 944.699 334.524 945.55 334.361 946.47L325.293 997.819C325.13 998.739 325.15 999.652 325.327 1000.53C341.954 1003.22 342.08 990.274 344.814 974.791Z" fill="black"/>
<path d="M328.798 998.439C328.04 1002.73 331.234 1006.89 335.932 1007.71C340.631 1008.54 345.054 1005.74 345.812 1001.44L354.881 950.094C355.639 945.8 352.445 941.647 347.747 940.817C343.049 939.988 338.625 942.796 337.867 947.089L328.798 998.439Z" fill="#70C244"/>
<path d="M347.901 949.232C347.753 950.07 348.377 950.881 349.294 951.043C350.212 951.206 351.076 950.657 351.224 949.819C351.372 948.98 350.748 948.169 349.831 948.007C348.913 947.845 348.049 948.393 347.901 949.232Z" fill="#8CCE69"/>
<path d="M344.324 969.484C344.176 970.322 344.8 971.133 345.718 971.295C346.635 971.457 347.499 970.909 347.647 970.071C347.795 969.232 347.172 968.421 346.254 968.259C345.336 968.097 344.472 968.645 344.324 969.484Z" fill="#8CCE69"/>
<path d="M339.611 958.209C339.463 959.048 340.087 959.859 341.004 960.021C341.922 960.183 342.786 959.635 342.934 958.796C343.082 957.958 342.458 957.146 341.541 956.984C340.623 956.822 339.759 957.371 339.611 958.209Z" fill="#8CCE69"/>
<path d="M336.034 978.462C335.886 979.301 336.51 980.112 337.428 980.274C338.345 980.436 339.209 979.888 339.357 979.049C339.505 978.211 338.882 977.399 337.964 977.237C337.046 977.075 336.182 977.624 336.034 978.462Z" fill="#8CCE69"/>
<path d="M340.747 989.737C340.599 990.575 341.223 991.386 342.141 991.548C343.058 991.71 343.922 991.162 344.07 990.323C344.218 989.485 343.594 988.674 342.677 988.512C341.759 988.35 340.895 988.898 340.747 989.737Z" fill="#8CCE69"/>
<path d="M332.458 998.715C332.31 999.553 332.933 1000.36 333.851 1000.53C334.768 1000.69 335.632 1000.14 335.78 999.302C335.928 998.463 335.305 997.652 334.387 997.49C333.47 997.328 332.606 997.877 332.458 998.715Z" fill="#8CCE69"/>
<path d="M338.959 999.863C338.811 1000.7 339.435 1001.51 340.352 1001.67C341.27 1001.84 342.134 1001.29 342.282 1000.45C342.43 999.612 341.806 998.801 340.888 998.639C339.971 998.477 339.107 999.025 338.959 999.863Z" fill="white"/>
<path d="M342.536 979.611C342.388 980.449 343.012 981.26 343.929 981.422C344.847 981.584 345.711 981.036 345.859 980.198C346.007 979.359 345.383 978.548 344.465 978.386C343.548 978.224 342.684 978.772 342.536 979.611Z" fill="white"/>
<path d="M334.246 988.588C334.098 989.427 334.721 990.238 335.639 990.4C336.557 990.562 337.421 990.014 337.569 989.175C337.717 988.337 337.093 987.525 336.175 987.363C335.258 987.201 334.394 987.75 334.246 988.588Z" fill="white"/>
<path d="M337.822 968.336C337.674 969.174 338.298 969.985 339.216 970.147C340.133 970.31 340.997 969.761 341.145 968.923C341.294 968.084 340.67 967.273 339.752 967.111C338.834 966.949 337.97 967.497 337.822 968.336Z" fill="white"/>
<path d="M346.112 959.358C345.964 960.196 346.588 961.007 347.506 961.169C348.423 961.331 349.287 960.783 349.435 959.945C349.584 959.106 348.96 958.295 348.042 958.133C347.124 957.971 346.261 958.519 346.112 959.358Z" fill="white"/>
<path d="M341.4 948.083C341.251 948.921 341.875 949.732 342.793 949.895C343.711 950.057 344.574 949.508 344.723 948.67C344.871 947.831 344.247 947.02 343.329 946.858C342.412 946.696 341.548 947.244 341.4 948.083Z" fill="white"/>
<path d="M343.9 952.907C343.751 953.746 344.375 954.557 345.293 954.719C346.211 954.881 347.074 954.332 347.223 953.494C347.371 952.655 346.747 951.844 345.829 951.682C344.912 951.52 344.048 952.068 343.9 952.907Z" fill="white"/>
<path d="M341.989 963.725C341.841 964.563 342.465 965.375 343.383 965.537C344.3 965.699 345.164 965.15 345.312 964.312C345.461 963.473 344.837 962.662 343.919 962.5C343.001 962.338 342.137 962.886 341.989 963.725Z" fill="#8CCE69"/>
<path d="M336.459 995.039C336.311 995.878 336.934 996.689 337.852 996.851C338.77 997.013 339.634 996.465 339.782 995.626C339.93 994.788 339.306 993.977 338.388 993.814C337.471 993.652 336.607 994.201 336.459 995.039Z" fill="white"/>
<path d="M338.369 984.221C338.221 985.06 338.845 985.871 339.762 986.033C340.68 986.195 341.544 985.647 341.692 984.808C341.84 983.97 341.216 983.159 340.299 982.997C339.381 982.835 338.517 983.383 338.369 984.221Z" fill="#8CCE69"/>
<path d="M340.179 973.973C340.031 974.812 340.655 975.623 341.573 975.785C342.49 975.947 343.354 975.399 343.502 974.56C343.65 973.722 343.027 972.911 342.109 972.749C341.191 972.586 340.327 973.135 340.179 973.973Z" fill="white"/>
<path opacity="0.3" d="M354.882 950.094C355.64 945.8 352.446 941.647 347.748 940.817C343.049 939.988 338.626 942.796 337.868 947.089L333.333 972.764L350.348 975.769L354.882 950.094Z" fill="black"/>
<path d="M1331.77 245.252C1332.57 242.069 1335.55 240.073 1338.44 240.795L1355.54 245.066C1366.07 247.696 1372.27 259.276 1369.38 270.877C1368.58 274.06 1365.59 276.056 1362.7 275.334C1359.81 274.612 1358.12 271.446 1358.91 268.263C1360.22 263.018 1357.42 257.784 1352.66 256.594L1335.56 252.323C1332.67 251.602 1330.98 248.436 1331.77 245.252Z" fill="#8CCE69"/>
<path opacity="0.2" d="M1351.62 256.335L1354.5 244.806L1344.65 242.345L1341.77 253.874L1351.62 256.335Z" fill="black"/>
<path d="M1288.94 305.121C1322.23 313.438 1325.49 282.659 1334.66 245.973C1343.83 209.288 1355.42 180.589 1322.13 172.272C1288.84 163.954 1237.89 182.821 1228.73 219.506C1219.56 256.191 1255.65 296.803 1288.94 305.121Z" fill="#70C244"/>
<path opacity="0.3" d="M1322.13 172.272C1288.84 163.954 1237.89 182.821 1228.73 219.506L1334.66 245.973C1343.83 209.288 1355.42 180.589 1322.13 172.272Z" fill="black"/>
<path opacity="0.3" d="M1334.66 245.973C1343.74 209.634 1355.19 181.135 1323.05 172.515C1321.95 174.282 1321.08 176.267 1320.55 178.426L1290.43 298.945C1289.89 301.104 1289.72 303.26 1289.86 305.339C1322.28 312.85 1325.58 282.313 1334.66 245.973Z" fill="black"/>
<path d="M1297.26 300.65C1294.74 310.727 1300.11 320.748 1309.26 323.033C1318.4 325.318 1327.85 319.001 1330.37 308.924L1360.48 188.404C1363 178.327 1357.63 168.306 1348.49 166.021C1339.34 163.736 1329.89 170.053 1327.37 180.13L1297.26 300.65Z" fill="#70C244"/>
<path d="M1346.81 185.883C1346.32 187.851 1347.37 189.808 1349.15 190.254C1350.94 190.7 1352.79 189.467 1353.28 187.499C1353.77 185.531 1352.72 183.573 1350.93 183.127C1349.15 182.681 1347.3 183.915 1346.81 185.883Z" fill="#8CCE69"/>
<path d="M1334.93 233.417C1334.44 235.385 1335.49 237.342 1337.28 237.788C1339.06 238.235 1340.91 237.001 1341.4 235.033C1341.89 233.065 1340.84 231.108 1339.06 230.661C1337.27 230.215 1335.43 231.449 1334.93 233.417Z" fill="#8CCE69"/>
<path d="M1328.22 206.488C1327.73 208.456 1328.78 210.413 1330.56 210.859C1332.35 211.305 1334.19 210.072 1334.69 208.104C1335.18 206.135 1334.13 204.178 1332.34 203.732C1330.56 203.286 1328.71 204.52 1328.22 206.488Z" fill="#8CCE69"/>
<path d="M1316.34 254.022C1315.85 255.99 1316.9 257.948 1318.69 258.394C1320.47 258.84 1322.32 257.606 1322.81 255.638C1323.3 253.67 1322.25 251.713 1320.47 251.267C1318.68 250.821 1316.83 252.054 1316.34 254.022Z" fill="#8CCE69"/>
<path d="M1323.06 280.951C1322.57 282.919 1323.62 284.876 1325.4 285.323C1327.19 285.769 1329.03 284.535 1329.53 282.567C1330.02 280.599 1328.97 278.642 1327.18 278.195C1325.4 277.749 1323.55 278.983 1323.06 280.951Z" fill="#8CCE69"/>
<path d="M1304.47 301.557C1303.97 303.525 1305.02 305.482 1306.81 305.928C1308.59 306.374 1310.44 305.141 1310.93 303.173C1311.42 301.205 1310.38 299.248 1308.59 298.802C1306.8 298.356 1304.96 299.589 1304.47 301.557Z" fill="#8CCE69"/>
<path d="M1317.12 304.719C1316.63 306.687 1317.68 308.644 1319.46 309.09C1321.25 309.536 1323.1 308.302 1323.59 306.335C1324.08 304.367 1323.03 302.41 1321.24 301.964C1319.46 301.517 1317.61 302.751 1317.12 304.719Z" fill="white"/>
<path d="M1329 257.184C1328.5 259.152 1329.55 261.109 1331.34 261.555C1333.13 262.002 1334.97 260.768 1335.46 258.8C1335.96 256.832 1334.91 254.875 1333.12 254.428C1331.33 253.982 1329.49 255.216 1329 257.184Z" fill="white"/>
<path d="M1310.4 277.789C1309.91 279.758 1310.96 281.715 1312.75 282.161C1314.53 282.607 1316.38 281.373 1316.87 279.405C1317.36 277.437 1316.31 275.48 1314.53 275.034C1312.74 274.588 1310.9 275.821 1310.4 277.789Z" fill="white"/>
<path d="M1322.28 230.255C1321.79 232.223 1322.84 234.181 1324.62 234.627C1326.41 235.073 1328.26 233.839 1328.75 231.871C1329.24 229.903 1328.19 227.946 1326.4 227.5C1324.62 227.053 1322.77 228.287 1322.28 230.255Z" fill="white"/>
<path d="M1340.87 209.649C1340.38 211.617 1341.43 213.575 1343.22 214.021C1345 214.467 1346.85 213.233 1347.34 211.265C1347.83 209.297 1346.78 207.34 1345 206.894C1343.21 206.447 1341.36 207.681 1340.87 209.649Z" fill="white"/>
<path d="M1334.16 182.721C1333.66 184.689 1334.71 186.646 1336.5 187.093C1338.29 187.539 1340.13 186.305 1340.62 184.337C1341.12 182.369 1340.07 180.412 1338.28 179.965C1336.49 179.519 1334.65 180.753 1334.16 182.721Z" fill="white"/>
<path d="M1337.99 194.277C1337.5 196.245 1338.55 198.202 1340.33 198.648C1342.12 199.094 1343.97 197.861 1344.46 195.893C1344.95 193.925 1343.9 191.967 1342.11 191.521C1340.33 191.075 1338.48 192.309 1337.99 194.277Z" fill="white"/>
<path d="M1331.65 219.666C1331.16 221.634 1332.2 223.592 1333.99 224.038C1335.78 224.484 1337.62 223.25 1338.12 221.282C1338.61 219.314 1337.56 217.357 1335.77 216.911C1333.99 216.465 1332.14 217.698 1331.65 219.666Z" fill="#8CCE69"/>
<path d="M1313.28 293.164C1312.79 295.132 1313.84 297.089 1315.63 297.535C1317.41 297.982 1319.26 296.748 1319.75 294.78C1320.24 292.812 1319.19 290.855 1317.41 290.408C1315.62 289.962 1313.78 291.196 1313.28 293.164Z" fill="white"/>
<path d="M1319.63 267.773C1319.14 269.741 1320.19 271.698 1321.97 272.144C1323.76 272.59 1325.6 271.357 1326.1 269.389C1326.59 267.421 1325.54 265.464 1323.75 265.018C1321.97 264.572 1320.12 265.805 1319.63 267.773Z" fill="#8CCE69"/>
<path d="M1325.64 243.72C1325.15 245.688 1326.2 247.645 1327.98 248.091C1329.77 248.537 1331.61 247.304 1332.11 245.336C1332.6 243.367 1331.55 241.41 1329.76 240.964C1327.98 240.518 1326.13 241.752 1325.64 243.72Z" fill="white"/>
<path opacity="0.3" d="M1360.48 188.404C1363 178.327 1357.63 168.306 1348.49 166.021C1339.34 163.737 1329.89 170.054 1327.37 180.131L1312.31 240.391L1345.43 248.664L1360.48 188.404Z" fill="black"/>
<path d="M731.433 210.185C734.298 208.585 737.797 209.396 739.249 211.996L747.839 227.38C753.13 236.855 748.94 249.307 738.5 255.137C735.635 256.737 732.135 255.926 730.683 253.326C729.231 250.726 730.378 247.321 733.242 245.721C737.962 243.086 739.856 237.457 737.464 233.173L728.874 217.789C727.422 215.189 728.567 211.785 731.433 210.185Z" fill="#8CCE69"/>
<path opacity="0.2" d="M736.942 232.238L747.317 226.445L742.367 217.581L731.992 223.374L736.942 232.238Z" fill="black"/>
<path d="M658.468 219.95C675.198 249.91 699.87 231.219 732.884 212.784C765.899 194.349 794.754 183.151 778.025 153.191C761.296 123.231 712.666 99.0156 679.652 117.45C646.637 135.885 641.739 189.99 658.468 219.95Z" fill="#70C244"/>
<path opacity="0.3" d="M778.025 153.191C761.296 123.231 712.666 99.0156 679.652 117.45L732.885 212.784C765.899 194.349 794.754 183.151 778.025 153.191Z" fill="black"/>
<path opacity="0.3" d="M732.884 212.784C765.587 194.523 794.201 183.359 778.479 154.03C776.435 154.435 774.399 155.166 772.456 156.251L663.995 216.815C662.053 217.899 660.362 219.248 658.945 220.776C675.665 249.548 700.181 231.045 732.884 212.784Z" fill="black"/>
<path d="M667.424 222.955C658.355 228.019 654.729 238.796 659.324 247.025C663.919 255.254 674.996 257.82 684.064 252.757L792.526 192.193C801.594 187.13 805.221 176.353 800.626 168.124C796.031 159.894 784.954 157.328 775.885 162.392L667.424 222.955Z" fill="#70C244"/>
<path d="M785.002 180.5C783.231 181.489 782.522 183.594 783.42 185.201C784.317 186.808 786.481 187.31 788.252 186.321C790.023 185.332 790.731 183.227 789.834 181.62C788.936 180.012 786.773 179.511 785.002 180.5Z" fill="#8CCE69"/>
<path d="M742.224 204.388C740.453 205.377 739.745 207.481 740.642 209.089C741.54 210.696 743.703 211.197 745.474 210.208C747.245 209.219 747.954 207.115 747.056 205.507C746.159 203.9 743.995 203.399 742.224 204.388Z" fill="#8CCE69"/>
<path d="M757.254 181.056C755.483 182.045 754.775 184.15 755.672 185.757C756.57 187.364 758.733 187.866 760.504 186.877C762.276 185.888 762.984 183.783 762.086 182.176C761.189 180.568 759.026 180.067 757.254 181.056Z" fill="#8CCE69"/>
<path d="M714.476 204.943C712.705 205.932 711.997 208.037 712.894 209.644C713.792 211.251 715.955 211.752 717.726 210.763C719.497 209.774 720.206 207.67 719.308 206.062C718.411 204.455 716.247 203.954 714.476 204.943Z" fill="#8CCE69"/>
<path d="M699.446 228.274C697.675 229.263 696.967 231.368 697.864 232.975C698.762 234.583 700.925 235.084 702.696 234.095C704.468 233.106 705.176 231.001 704.278 229.394C703.381 227.787 701.217 227.285 699.446 228.274Z" fill="#8CCE69"/>
<path d="M671.698 228.83C669.927 229.819 669.218 231.923 670.116 233.531C671.013 235.138 673.176 235.639 674.947 234.65C676.718 233.661 677.426 231.557 676.529 229.949C675.632 228.342 673.468 227.841 671.698 228.83Z" fill="#8CCE69"/>
<path d="M678.056 240.218C676.285 241.207 675.577 243.312 676.475 244.919C677.372 246.526 679.535 247.027 681.306 246.038C683.077 245.049 683.785 242.945 682.888 241.338C681.99 239.731 679.827 239.229 678.056 240.218Z" fill="white"/>
<path d="M720.835 216.331C719.064 217.32 718.355 219.425 719.253 221.032C720.15 222.639 722.314 223.141 724.085 222.152C725.856 221.163 726.564 219.058 725.667 217.451C724.769 215.843 722.606 215.342 720.835 216.331Z" fill="white"/>
<path d="M693.087 216.886C691.316 217.875 690.608 219.98 691.505 221.587C692.403 223.195 694.566 223.696 696.337 222.707C698.109 221.718 698.817 219.613 697.919 218.006C697.022 216.398 694.859 215.897 693.087 216.886Z" fill="white"/>
<path d="M735.865 193C734.094 193.989 733.386 196.093 734.283 197.701C735.181 199.308 737.344 199.809 739.115 198.82C740.886 197.831 741.595 195.726 740.697 194.119C739.8 192.512 737.636 192.011 735.865 193Z" fill="white"/>
<path d="M763.614 192.444C761.843 193.433 761.134 195.538 762.032 197.145C762.929 198.753 765.093 199.254 766.864 198.265C768.635 197.276 769.343 195.171 768.446 193.564C767.548 191.957 765.385 191.455 763.614 192.444Z" fill="white"/>
<path d="M778.644 169.113C776.872 170.102 776.164 172.207 777.062 173.814C777.959 175.421 780.122 175.922 781.894 174.933C783.665 173.944 784.373 171.84 783.476 170.232C782.578 168.625 780.415 168.124 778.644 169.113Z" fill="white"/>
<path d="M772.846 179.819C771.074 180.808 770.366 182.913 771.264 184.52C772.161 186.128 774.325 186.629 776.096 185.64C777.867 184.651 778.575 182.546 777.678 180.939C776.78 179.332 774.617 178.83 772.846 179.819Z" fill="white"/>
<path d="M749.997 192.578C748.226 193.567 747.518 195.672 748.415 197.279C749.313 198.886 751.476 199.388 753.247 198.399C755.018 197.41 755.727 195.305 754.829 193.698C753.932 192.09 751.768 191.589 749.997 192.578Z" fill="#8CCE69"/>
<path d="M683.853 229.512C682.082 230.501 681.374 232.605 682.271 234.213C683.169 235.82 685.332 236.321 687.103 235.332C688.874 234.343 689.583 232.239 688.685 230.631C687.788 229.024 685.624 228.523 683.853 229.512Z" fill="white"/>
<path d="M706.703 216.753C704.932 217.742 704.224 219.846 705.122 221.453C706.019 223.06 708.182 223.562 709.953 222.573C711.724 221.584 712.432 219.479 711.535 217.872C710.637 216.265 708.474 215.764 706.703 216.753Z" fill="#8CCE69"/>
<path d="M728.35 204.665C726.579 205.654 725.871 207.759 726.768 209.366C727.666 210.973 729.829 211.475 731.6 210.486C733.371 209.497 734.08 207.392 733.182 205.785C732.285 204.177 730.121 203.676 728.35 204.665Z" fill="white"/>
<path opacity="0.3" d="M792.526 192.194C801.595 187.131 805.222 176.354 800.626 168.125C796.031 159.895 784.954 157.329 775.886 162.393L721.655 192.675L738.296 222.476L792.526 192.194Z" fill="black"/>
<path d="M1208.84 823.058C1210.61 824.883 1210.72 827.659 1209.07 829.259L1199.34 838.722C1193.34 844.551 1183.2 843.881 1176.73 837.229C1174.96 835.404 1174.86 832.628 1176.5 831.029C1178.15 829.429 1180.92 829.612 1182.69 831.437C1185.62 834.444 1190.2 834.747 1192.91 832.112L1202.65 822.649C1204.29 821.049 1207.06 821.232 1208.84 823.058Z" fill="#8CCE69"/>
<path opacity="0.2" d="M1193.5 831.537L1199.93 838.147L1205.54 832.694L1199.11 826.084L1193.5 831.537Z" fill="black"/>
<path d="M1186.77 770.447C1167.8 788.877 1186.75 803.623 1207.19 824.657C1227.64 845.691 1241.84 865.046 1260.8 846.616C1279.76 828.187 1287.97 787.046 1267.53 766.013C1247.08 744.979 1205.73 752.017 1186.77 770.447Z" fill="#70C244"/>
<path opacity="0.3" d="M1260.8 846.616C1279.76 828.187 1287.97 787.046 1267.53 766.013L1207.19 824.657C1227.64 845.691 1241.84 865.046 1260.8 846.616Z" fill="black"/>
<path opacity="0.3" d="M1207.19 824.656C1227.45 845.492 1241.57 864.673 1260.27 847.121C1259.55 845.673 1258.59 844.296 1257.39 843.058L1190.22 773.958C1189.02 772.72 1187.67 771.722 1186.25 770.966C1168.17 789.154 1186.94 803.821 1207.19 824.656Z" fill="black"/>
<path d="M1186.34 777.735C1180.72 771.957 1171.95 771.377 1166.74 776.439C1161.53 781.502 1161.86 790.289 1167.48 796.067L1234.64 865.168C1240.26 870.946 1249.04 871.526 1254.24 866.463C1259.45 861.401 1259.12 852.613 1253.5 846.836L1186.34 777.735Z" fill="#70C244"/>
<path d="M1241.84 857.231C1240.75 856.103 1239.03 855.99 1238.02 856.978C1237 857.967 1237.06 859.683 1238.16 860.812C1239.26 861.94 1240.97 862.053 1241.99 861.065C1243 860.076 1242.94 858.36 1241.84 857.231Z" fill="#8CCE69"/>
<path d="M1215.35 829.978C1214.25 828.85 1212.54 828.737 1211.52 829.725C1210.51 830.714 1210.57 832.43 1211.67 833.559C1212.76 834.687 1214.48 834.801 1215.5 833.812C1216.51 832.823 1216.45 831.107 1215.35 829.978Z" fill="#8CCE69"/>
<path d="M1235.8 836.6C1234.71 835.472 1232.99 835.358 1231.98 836.347C1230.96 837.336 1231.02 839.052 1232.12 840.18C1233.22 841.309 1234.93 841.422 1235.95 840.433C1236.97 839.445 1236.9 837.728 1235.8 836.6Z" fill="#8CCE69"/>
<path d="M1209.31 809.346C1208.22 808.218 1206.5 808.104 1205.49 809.093C1204.47 810.082 1204.53 811.798 1205.63 812.927C1206.73 814.055 1208.44 814.168 1209.46 813.179C1210.47 812.191 1210.41 810.474 1209.31 809.346Z" fill="#8CCE69"/>
<path d="M1188.86 802.724C1187.76 801.596 1186.05 801.482 1185.03 802.471C1184.02 803.46 1184.08 805.176 1185.18 806.304C1186.27 807.433 1187.99 807.546 1189 806.557C1190.02 805.569 1189.96 803.852 1188.86 802.724Z" fill="#8CCE69"/>
<path d="M1182.82 782.092C1181.72 780.964 1180.01 780.85 1178.99 781.839C1177.98 782.828 1178.04 784.544 1179.14 785.672C1180.23 786.8 1181.95 786.913 1182.97 785.925C1183.98 784.936 1183.92 783.22 1182.82 782.092Z" fill="#8CCE69"/>
<path d="M1175.61 789.097C1174.52 787.968 1172.8 787.855 1171.79 788.844C1170.77 789.832 1170.83 791.549 1171.93 792.677C1173.03 793.805 1174.74 793.918 1175.76 792.93C1176.78 791.941 1176.71 790.225 1175.61 789.097Z" fill="white"/>
<path d="M1202.11 816.351C1201.01 815.223 1199.3 815.109 1198.28 816.098C1197.26 817.087 1197.33 818.803 1198.42 819.931C1199.52 821.06 1201.23 821.173 1202.25 820.184C1203.27 819.196 1203.2 817.479 1202.11 816.351Z" fill="white"/>
<path d="M1196.07 795.719C1194.97 794.59 1193.26 794.477 1192.24 795.466C1191.22 796.454 1191.29 798.171 1192.38 799.299C1193.48 800.428 1195.19 800.541 1196.21 799.552C1197.23 798.563 1197.16 796.847 1196.07 795.719Z" fill="white"/>
<path d="M1222.56 822.973C1221.46 821.844 1219.75 821.731 1218.73 822.72C1217.71 823.708 1217.78 825.425 1218.87 826.553C1219.97 827.681 1221.69 827.795 1222.7 826.806C1223.72 825.817 1223.66 824.101 1222.56 822.973Z" fill="white"/>
<path d="M1228.6 843.605C1227.5 842.477 1225.79 842.364 1224.77 843.352C1223.75 844.341 1223.82 846.057 1224.91 847.186C1226.01 848.314 1227.72 848.427 1228.74 847.439C1229.76 846.45 1229.69 844.734 1228.6 843.605Z" fill="white"/>
<path d="M1249.05 850.227C1247.95 849.098 1246.24 848.985 1245.22 849.974C1244.2 850.963 1244.27 852.679 1245.37 853.807C1246.46 854.936 1248.18 855.049 1249.19 854.06C1250.21 853.072 1250.15 851.355 1249.05 850.227Z" fill="white"/>
<path d="M1239.89 848.01C1238.79 846.882 1237.08 846.768 1236.06 847.757C1235.04 848.746 1235.11 850.462 1236.2 851.591C1237.3 852.719 1239.01 852.832 1240.03 851.844C1241.05 850.855 1240.98 849.139 1239.89 848.01Z" fill="white"/>
<path d="M1225.74 833.453C1224.64 832.325 1222.93 832.211 1221.91 833.2C1220.89 834.189 1220.96 835.905 1222.05 837.033C1223.15 838.162 1224.86 838.275 1225.88 837.286C1226.9 836.298 1226.83 834.581 1225.74 833.453Z" fill="#8CCE69"/>
<path d="M1184.78 791.313C1183.68 790.184 1181.97 790.071 1180.95 791.06C1179.93 792.049 1180 793.765 1181.09 794.893C1182.19 796.022 1183.9 796.135 1184.92 795.146C1185.94 794.158 1185.87 792.441 1184.78 791.313Z" fill="white"/>
<path d="M1198.93 805.871C1197.83 804.743 1196.12 804.63 1195.1 805.618C1194.08 806.607 1194.15 808.323 1195.24 809.451C1196.34 810.579 1198.05 810.693 1199.07 809.704C1200.09 808.716 1200.02 806.999 1198.93 805.871Z" fill="#8CCE69"/>
<path d="M1212.33 819.662C1211.24 818.534 1209.52 818.42 1208.5 819.409C1207.49 820.398 1207.55 822.114 1208.65 823.242C1209.75 824.371 1211.46 824.484 1212.48 823.495C1213.49 822.507 1213.43 820.79 1212.33 819.662Z" fill="white"/>
<path opacity="0.3" d="M1234.64 865.169C1240.26 870.946 1249.03 871.527 1254.24 866.464C1259.45 861.402 1259.12 852.614 1253.5 846.837L1219.92 812.286L1201.06 830.618L1234.64 865.169Z" fill="black"/>
<path d="M511.701 237.899C509.037 235.984 508.286 232.471 510.024 230.053L520.309 215.746C526.644 206.934 539.697 205.445 549.406 212.425C552.07 214.34 552.821 217.853 551.083 220.271C549.345 222.689 545.775 223.096 543.111 221.181C538.722 218.025 532.821 218.699 529.958 222.683L519.673 236.989C517.934 239.407 514.366 239.815 511.701 237.899Z" fill="#8CCE69"/>
<path opacity="0.2" d="M529.333 223.552L519.684 216.616L513.758 224.859L523.407 231.795L529.333 223.552Z" fill="black"/>
<path d="M551.505 299.824C571.535 271.963 544.14 257.554 513.438 235.482C482.736 213.41 460.351 192.033 440.321 219.895C420.292 247.756 419 302.066 449.703 324.138C480.405 346.21 531.475 327.686 551.505 299.824Z" fill="#70C244"/>
<path opacity="0.3" d="M440.321 219.895C420.292 247.756 419 302.066 449.703 324.138L513.438 235.481C482.735 213.409 460.351 192.033 440.321 219.895Z" fill="black"/>
<path opacity="0.3" d="M513.438 235.482C483.025 213.618 460.775 192.446 440.889 219.128C442.122 220.807 443.649 222.339 445.455 223.638L546.32 296.15C548.127 297.449 550.066 298.408 552.051 299.042C571.009 271.693 543.851 257.346 513.438 235.482Z" fill="black"/>
<path d="M550.426 290.44C558.86 296.503 570.157 295.214 575.659 287.561C581.16 279.908 578.784 268.789 570.35 262.726L469.485 190.214C461.051 184.151 449.754 185.44 444.253 193.093C438.751 200.746 441.128 211.866 449.561 217.928L550.426 290.44Z" fill="#70C244"/>
<path d="M462.089 201.989C463.736 203.173 465.943 202.921 467.017 201.427C468.092 199.932 467.628 197.76 465.98 196.576C464.333 195.392 462.127 195.644 461.052 197.139C459.978 198.633 460.442 200.805 462.089 201.989Z" fill="#8CCE69"/>
<path d="M501.872 230.588C503.519 231.772 505.725 231.52 506.8 230.025C507.874 228.531 507.41 226.359 505.763 225.175C504.116 223.991 501.91 224.242 500.835 225.737C499.761 227.232 500.225 229.404 501.872 230.588Z" fill="#8CCE69"/>
<path d="M474.367 226.878C476.014 228.062 478.22 227.811 479.295 226.316C480.37 224.821 479.905 222.649 478.258 221.465C476.611 220.281 474.405 220.533 473.33 222.028C472.256 223.522 472.72 225.694 474.367 226.878Z" fill="#8CCE69"/>
<path d="M514.149 255.478C515.796 256.662 518.003 256.41 519.077 254.915C520.152 253.421 519.688 251.249 518.04 250.065C516.393 248.881 514.187 249.133 513.112 250.627C512.038 252.122 512.502 254.294 514.149 255.478Z" fill="#8CCE69"/>
<path d="M541.654 259.187C543.301 260.371 545.508 260.119 546.582 258.624C547.657 257.13 547.193 254.958 545.545 253.774C543.898 252.59 541.692 252.842 540.617 254.336C539.543 255.831 540.007 258.003 541.654 259.187Z" fill="#8CCE69"/>
<path d="M553.932 284.077C555.579 285.261 557.785 285.009 558.859 283.515C559.934 282.02 559.47 279.849 557.823 278.665C556.176 277.481 553.97 277.733 552.895 279.227C551.821 280.722 552.285 282.893 553.932 284.077Z" fill="#8CCE69"/>
<path d="M561.546 273.487C563.193 274.671 565.399 274.419 566.473 272.924C567.548 271.43 567.084 269.258 565.437 268.074C563.79 266.89 561.584 267.142 560.509 268.637C559.435 270.131 559.899 272.303 561.546 273.487Z" fill="white"/>
<path d="M521.763 244.887C523.41 246.072 525.616 245.82 526.691 244.325C527.766 242.83 527.301 240.659 525.654 239.475C524.007 238.29 521.801 238.542 520.726 240.037C519.652 241.532 520.116 243.703 521.763 244.887Z" fill="white"/>
<path d="M534.04 269.778C535.687 270.962 537.894 270.71 538.968 269.215C540.043 267.72 539.579 265.549 537.932 264.365C536.284 263.181 534.078 263.432 533.004 264.927C531.929 266.422 532.393 268.593 534.04 269.778Z" fill="white"/>
<path d="M494.258 241.178C495.905 242.362 498.112 242.11 499.186 240.616C500.261 239.121 499.797 236.949 498.149 235.765C496.502 234.581 494.296 234.833 493.221 236.328C492.147 237.822 492.611 239.994 494.258 241.178Z" fill="white"/>
<path d="M481.98 216.288C483.627 217.472 485.834 217.22 486.908 215.725C487.983 214.231 487.519 212.059 485.872 210.875C484.224 209.691 482.018 209.943 480.944 211.437C479.869 212.932 480.333 215.104 481.98 216.288Z" fill="white"/>
<path d="M454.476 212.579C456.123 213.763 458.329 213.511 459.404 212.016C460.478 210.522 460.014 208.35 458.367 207.166C456.72 205.982 454.514 206.234 453.439 207.728C452.365 209.223 452.829 211.395 454.476 212.579Z" fill="white"/>
<path d="M466.631 213.285C468.278 214.47 470.485 214.218 471.559 212.723C472.634 211.228 472.17 209.057 470.522 207.873C468.875 206.688 466.669 206.94 465.594 208.435C464.52 209.93 464.984 212.101 466.631 213.285Z" fill="white"/>
<path d="M487.88 228.561C489.527 229.745 491.733 229.493 492.808 227.998C493.882 226.504 493.418 224.332 491.771 223.148C490.124 221.964 487.917 222.216 486.843 223.71C485.768 225.205 486.233 227.377 487.88 228.561Z" fill="#8CCE69"/>
<path d="M549.391 272.781C551.038 273.965 553.244 273.713 554.319 272.219C555.393 270.724 554.929 268.552 553.282 267.368C551.635 266.184 549.429 266.436 548.354 267.931C547.28 269.425 547.744 271.597 549.391 272.781Z" fill="white"/>
<path d="M528.141 257.505C529.788 258.689 531.995 258.437 533.069 256.942C534.143 255.448 533.679 253.276 532.032 252.093C530.385 250.909 528.179 251.16 527.105 252.655C526.03 254.149 526.495 256.321 528.141 257.505Z" fill="#8CCE69"/>
<path d="M508.011 243.033C509.658 244.217 511.864 243.965 512.939 242.471C514.013 240.976 513.549 238.804 511.902 237.62C510.255 236.436 508.048 236.688 506.974 238.183C505.899 239.677 506.363 241.849 508.011 243.033Z" fill="white"/>
<path opacity="0.3" d="M469.485 190.213C461.052 184.15 449.755 185.439 444.253 193.092C438.751 200.745 441.128 211.865 449.562 217.927L499.994 254.183L519.918 226.469L469.485 190.213Z" fill="black"/>
<g clip-path="url(#clip1)">
<path d="M1127.92 370.219C1126.3 370.246 1124.68 369.574 1123.52 368.232L1111.54 354.321C1109.45 351.89 1109.67 348.181 1112.04 346.037C1114.42 343.893 1118.04 344.127 1120.13 346.558L1132.11 360.469C1134.21 362.9 1133.98 366.609 1131.61 368.753C1130.55 369.713 1129.24 370.196 1127.92 370.219Z" fill="#77BC1F"/>
<path d="M1107.16 357.203C1115.64 357.747 1122.94 351.145 1123.47 342.458L1126.26 297.208C1126.52 292.851 1123.29 289.096 1119.04 288.822C1114.78 288.549 1111.12 291.859 1110.86 296.216L1110.07 309.191C1109.93 311.534 1107.96 313.312 1105.67 313.166C1103.38 313.019 1101.65 310.999 1101.79 308.656L1104.4 265.536C1104.67 261.178 1101.43 257.424 1097.18 257.15C1092.92 256.877 1089.26 260.188 1089 264.544L1088.2 277.656C1088.06 279.998 1086.09 281.778 1083.81 281.63C1081.52 281.483 1079.78 279.465 1079.92 277.121L1081 259.4C1081.26 255.044 1078.03 251.288 1073.77 251.015C1069.52 250.74 1065.86 254.05 1065.59 258.408L1065.15 265.741C1065.01 268.083 1063.04 269.865 1060.75 269.716C1059.56 269.639 1058.52 269.055 1057.81 268.183L1057.81 268.182L1046.73 255.322C1043.21 251.237 1037.14 250.845 1033.15 254.446C1029.17 258.046 1028.79 264.275 1032.31 268.36L1043.39 281.221L1043.39 281.219C1044.15 282.045 1044.58 283.177 1044.51 284.397C1044.36 286.738 1042.4 288.519 1040.11 288.37L1032.95 287.91C1028.7 287.635 1025.03 290.946 1024.77 295.304C1024.51 299.661 1027.74 303.417 1032 303.689L1049.29 304.805C1051.58 304.953 1053.32 306.972 1053.18 309.315C1053.03 311.657 1051.07 313.436 1048.78 313.288L1035.98 312.464C1031.73 312.19 1028.06 315.5 1027.8 319.859C1027.54 324.215 1030.77 327.97 1035.02 328.244L1077.12 330.957C1079.4 331.103 1081.14 333.123 1081 335.466C1080.86 337.807 1078.89 339.589 1076.6 339.441L1063.94 338.623C1059.68 338.349 1056.02 341.659 1055.75 346.017C1055.49 350.376 1058.73 354.13 1062.98 354.403L1107.16 357.203Z" fill="#77BC1F"/>
<path opacity="0.5" d="M1032.31 268.363L1043.39 281.223L1043.39 281.222C1044.15 282.048 1044.58 283.179 1044.51 284.399C1044.36 286.74 1042.4 288.521 1040.11 288.372L1032.95 287.912C1028.7 287.638 1025.03 290.949 1024.77 295.307C1024.51 299.663 1027.74 303.42 1032 303.691L1049.29 304.807C1051.58 304.955 1053.32 306.974 1053.18 309.317C1053.03 311.659 1051.06 313.438 1048.78 313.29L1035.98 312.467C1031.73 312.193 1028.06 315.502 1027.8 319.861C1027.53 324.217 1030.77 327.972 1035.02 328.246L1077.12 330.959C1079.4 331.106 1081.14 333.125 1081 335.469C1080.86 337.81 1078.89 339.591 1076.6 339.443L1063.94 338.625C1059.68 338.352 1056.02 341.662 1055.75 346.02C1055.49 350.378 1058.73 354.132 1062.98 354.405L1107.15 357.203C1111.4 357.474 1115.35 355.961 1118.29 353.294L1033.15 254.448C1029.17 258.049 1028.79 264.278 1032.31 268.363Z" fill="#218649"/>
<path d="M372.1 454.9H405.5V492.5C405.5 509.1 418.9 522.5 435.5 522.5H790.2H1144.9C1161.5 522.5 1174.9 509.1 1174.9 492.5V454.9H1208.3C1224.9 454.9 1238.3 441.5 1238.3 424.9V376.4C1238.3 363.2 1229.6 351.5 1217 347.7L803.199 222.9C799 221.6 794.6 221 790.2 221C785.801 221 781.5 221.6 777.2 222.9L363.4 347.7C350.7 351.5 342.1 363.2 342.1 376.4V424.9C342.1 441.4 355.5 454.9 372.1 454.9Z" fill="black"/>
<path d="M1209.4 1052.6H1174.9V1015C1174.9 998.4 1161.5 985 1144.9 985H1105.3V552.6H990.699V985H843.6V552.6H736.8V985H589.7V552.6H475.1V985H435.5C418.9 985 405.5 998.4 405.5 1015V1052.6H371C354.4 1052.6 341 1066 341 1082.6V1123.4C341 1140 354.4 1153.4 371 1153.4H1209.4C1226 1153.4 1239.4 1140 1239.4 1123.4V1082.6C1239.4 1066 1226 1052.6 1209.4 1052.6Z" fill="#231F20"/>
<path d="M1156.72 652.295C1148.54 651.573 1141.82 643.72 1141.73 634.758L1141.21 588.078C1141.16 583.584 1144.45 580.234 1148.56 580.596C1152.66 580.958 1156.03 584.896 1156.07 589.391L1156.21 602.773C1156.23 605.189 1158.04 607.305 1160.25 607.502C1162.46 607.697 1164.23 605.896 1164.2 603.478L1163.75 559.001C1163.7 554.507 1166.99 551.157 1171.1 551.519C1175.2 551.881 1178.57 555.819 1178.61 560.314L1178.75 573.839C1178.78 576.255 1180.58 578.371 1182.79 578.567C1185 578.761 1186.77 576.96 1186.74 574.545L1186.56 556.266C1186.51 551.771 1189.8 548.421 1193.91 548.783C1198.01 549.145 1201.38 553.082 1201.42 557.578L1201.5 565.141C1201.52 567.557 1203.33 569.675 1205.54 569.87C1206.69 569.971 1207.72 569.532 1208.44 568.747L1208.44 568.745L1219.71 557.27C1223.29 553.625 1229.16 554.144 1232.82 558.426C1236.48 562.71 1236.54 569.135 1232.97 572.779L1221.69 584.253L1221.69 584.252C1220.92 584.982 1220.45 586.073 1220.46 587.331C1220.49 589.748 1222.3 591.864 1224.51 592.059L1231.41 592.668C1235.52 593.03 1238.89 596.968 1238.93 601.463C1238.98 605.959 1235.69 609.309 1231.58 608.944L1214.89 607.472C1212.68 607.278 1210.91 609.078 1210.94 611.495C1210.96 613.912 1212.77 616.028 1214.98 616.223L1227.33 617.313C1231.43 617.675 1234.8 621.613 1234.85 626.108C1234.89 630.603 1231.6 633.952 1227.5 633.59L1186.87 630.005C1184.67 629.81 1182.9 631.611 1182.92 634.028C1182.95 636.444 1184.76 638.561 1186.96 638.755L1199.19 639.834C1203.29 640.194 1206.66 644.133 1206.7 648.628C1206.75 653.123 1203.46 656.473 1199.35 656.11L1156.72 652.295Z" fill="#77BC1F"/>
<path opacity="0.5" d="M1232.97 572.779L1221.69 584.253L1221.69 584.252C1220.92 584.982 1220.45 586.073 1220.46 587.331C1220.49 589.748 1222.3 591.864 1224.51 592.059L1231.41 592.668C1235.52 593.03 1238.89 596.968 1238.93 601.463C1238.98 605.958 1235.69 609.309 1231.58 608.944L1214.89 607.472C1212.68 607.278 1210.91 609.078 1210.94 611.494C1210.96 613.912 1212.77 616.028 1214.98 616.223L1227.33 617.313C1231.44 617.675 1234.8 621.612 1234.85 626.108C1234.89 630.602 1231.6 633.952 1227.5 633.59L1186.87 630.005C1184.67 629.81 1182.9 631.61 1182.92 634.028C1182.95 636.444 1184.76 638.561 1186.96 638.755L1199.19 639.834C1203.29 640.194 1206.66 644.133 1206.7 648.628C1206.75 653.123 1203.46 656.473 1199.35 656.11L1156.72 652.295C1152.63 651.934 1148.91 649.791 1146.19 646.618L1232.82 558.426C1236.48 562.71 1236.55 569.135 1232.97 572.779Z" fill="#218649"/>
</g>
<path d="M239.78 767.779C237.302 759.944 241.972 750.73 250.211 747.202L293.104 728.777C297.235 727.007 301.593 728.757 302.836 732.687C304.079 736.617 301.737 741.236 297.605 743.006L285.303 748.275C283.082 749.226 281.823 751.709 282.49 753.823C283.159 755.936 285.501 756.877 287.723 755.924L328.61 738.411C332.741 736.642 337.099 738.392 338.342 742.321C339.585 746.25 337.243 750.87 333.111 752.641L320.678 757.966C318.456 758.917 317.198 761.4 317.866 763.514C318.534 765.626 320.877 766.566 323.098 765.616L339.901 758.418C344.033 756.649 348.39 758.399 349.633 762.328C350.876 766.257 348.535 770.877 344.403 772.648L337.45 775.625C335.228 776.577 333.969 779.061 334.637 781.173C334.985 782.272 335.787 783.055 336.788 783.418L336.79 783.417L351.715 789.413C356.455 791.316 358.231 796.934 355.685 801.959C353.137 806.984 347.23 809.515 342.491 807.61L327.565 801.613L327.566 801.611C326.597 801.183 325.408 801.166 324.252 801.661C322.03 802.613 320.772 805.096 321.44 807.209L323.532 813.821C324.776 817.751 322.433 822.371 318.301 824.141C314.169 825.91 309.812 824.161 308.57 820.23L303.514 804.252C302.845 802.14 300.503 801.199 298.282 802.15C296.06 803.103 294.801 805.585 295.47 807.698L299.21 819.522C300.453 823.45 298.112 828.07 293.979 829.841C289.847 831.61 285.49 829.859 284.247 825.931L271.946 787.05C271.278 784.937 268.936 783.996 266.714 784.948C264.493 785.899 263.234 788.383 263.902 790.495L267.604 802.195C268.848 806.122 266.506 810.743 262.374 812.513C258.241 814.283 253.884 812.533 252.641 808.603L239.78 767.779Z" fill="#77BC1F"/>
<path opacity="0.5" d="M342.491 807.611L327.566 801.614L327.567 801.612C326.598 801.184 325.409 801.167 324.253 801.662C322.031 802.614 320.772 805.097 321.441 807.21L323.533 813.822C324.777 817.751 322.434 822.372 318.302 824.141C314.169 825.911 309.812 824.161 308.571 820.23L303.514 804.252C302.846 802.14 300.504 801.199 298.283 802.151C296.06 803.104 294.802 805.586 295.47 807.699L299.211 819.522C300.454 823.451 298.112 828.071 293.98 829.841C289.848 831.61 285.491 829.86 284.248 825.931L271.947 787.051C271.279 784.938 268.937 783.997 266.715 784.949C264.494 785.9 263.235 788.384 263.903 790.495L267.605 802.196C268.849 806.123 266.506 810.743 262.374 812.514C258.242 814.284 253.885 812.533 252.642 808.604L239.781 767.78C238.542 763.862 239.089 759.601 240.976 755.877L355.685 801.959C353.138 806.985 347.23 809.515 342.491 807.611Z" fill="#218649"/>
<g clip-path="url(#clip2)">
<path d="M339.391 605.855C338.436 608.636 335.195 610.043 332.151 608.999L267.919 586.962C264.875 585.918 263.181 582.817 264.135 580.036C265.089 577.255 268.33 575.847 271.374 576.892L335.606 598.928C338.65 599.973 340.345 603.074 339.391 605.855Z" fill="#70C244"/>
<path d="M244.561 534.924C243.76 533.457 241.881 532.754 240.348 533.42L227.268 539.101C220.855 541.886 212.992 539.269 209.639 533.132C209.02 531.998 207.78 531.421 206.54 531.521L171.832 546.484C171.188 546.762 170.703 547.274 170.484 547.907C170.266 548.54 170.333 549.242 170.669 549.857L188.735 582.922C189.652 583.762 190.985 584.067 192.17 583.552C198.584 580.767 206.398 583.528 209.75 589.664L216.588 602.178C217.389 603.644 219.304 604.243 220.837 603.577L242.038 594.37C245.428 592.897 249.393 592.79 253.044 594.043C256.695 595.295 259.746 597.829 261.519 601.074C261.903 601.777 262.521 602.245 263.313 602.516C264.105 602.788 264.92 602.68 265.656 602.36L290.688 589.145L290.84 589.197L279.193 563.398C278.809 562.694 278.232 562.108 277.44 561.837C276.648 561.565 275.874 561.554 275.138 561.874C271.747 563.347 267.783 563.474 264.132 562.222C260.481 560.969 257.417 558.45 255.645 555.207L244.561 534.924Z" fill="#8CCE69"/>
<path d="M244.561 534.924C243.759 533.457 241.88 532.754 240.348 533.42L227.268 539.101C220.855 541.886 212.992 539.269 209.639 533.132C209.019 531.999 207.779 531.421 206.54 531.521L171.832 546.484C171.188 546.762 170.703 547.274 170.484 547.907C170.461 547.975 170.442 548.044 170.426 548.113L290.425 589.282L290.686 589.144L290.839 589.197L279.192 563.398C278.808 562.694 278.231 562.108 277.439 561.836C276.647 561.564 275.873 561.554 275.137 561.874C271.746 563.346 267.782 563.474 264.131 562.221C260.48 560.969 257.416 558.45 255.644 555.206L244.561 534.924Z" fill="#70C244"/>
<path d="M224.996 588.176C223.443 587.838 221.923 588.683 221.647 590.112L219.281 602.314C218.121 608.296 212.017 612.022 205.516 610.608C204.316 610.347 203.225 610.835 202.661 611.729L196.298 644.04C196.18 644.64 196.326 645.273 196.705 645.799C197.083 646.324 197.662 646.699 198.315 646.841L233.337 654.463C234.464 654.348 235.391 653.633 235.605 652.528C236.765 646.545 242.956 642.938 249.455 644.352L262.711 647.236C264.264 647.574 265.72 646.644 265.998 645.214L269.832 625.438C270.445 622.275 272.415 619.542 275.279 617.835C278.142 616.127 281.689 615.59 285.126 616.337C285.871 616.5 286.553 616.363 287.175 615.993C287.796 615.622 288.134 615.009 288.267 614.322L290.975 589.57L291.094 589.498L265.036 581.903C264.29 581.741 263.537 581.778 262.916 582.149C262.294 582.52 261.885 583.034 261.752 583.72C261.139 586.884 259.184 589.628 256.322 591.335C253.458 593.043 249.916 593.599 246.481 592.851L224.996 588.176Z" fill="#7D4800"/>
<path d="M224.996 588.176C223.443 587.838 221.924 588.683 221.646 590.112L219.281 602.314C218.121 608.296 212.016 612.022 205.517 610.608C204.316 610.347 203.225 610.836 202.661 611.73L196.298 644.04C196.18 644.64 196.326 645.273 196.704 645.798C196.745 645.855 196.789 645.908 196.834 645.961L290.946 589.829L290.974 589.571L291.094 589.499L265.035 581.904C264.29 581.742 263.537 581.779 262.915 582.15C262.294 582.52 261.885 583.035 261.752 583.721C261.139 586.885 259.184 589.629 256.321 591.336C253.458 593.044 249.915 593.599 246.48 592.852L224.996 588.176Z" fill="#633900"/>
<path d="M224.996 588.176C223.443 587.838 221.923 588.683 221.647 590.112L219.281 602.314C218.121 608.296 212.017 612.022 205.516 610.608C204.316 610.347 203.225 610.835 202.661 611.729L196.298 644.04C196.18 644.64 196.326 645.273 196.705 645.799C197.083 646.324 197.662 646.699 198.315 646.841L233.337 654.463C234.464 654.348 235.391 653.633 235.605 652.528C236.765 646.545 242.956 642.938 249.455 644.352L262.711 647.236C264.264 647.574 265.72 646.644 265.998 645.214L269.832 625.438C270.445 622.275 272.415 619.542 275.279 617.835C278.142 616.127 281.689 615.59 285.126 616.337C285.871 616.5 286.553 616.363 287.175 615.993C287.796 615.622 288.134 615.009 288.267 614.322L290.975 589.57L291.094 589.498L265.036 581.903C264.29 581.741 263.537 581.778 262.916 582.149C262.294 582.52 261.885 583.034 261.752 583.72C261.139 586.884 259.184 589.628 256.322 591.335C253.458 593.043 249.916 593.599 246.481 592.851L224.996 588.176Z" fill="#8CCE69"/>
<path d="M224.996 588.176C223.443 587.838 221.924 588.683 221.646 590.112L219.281 602.314C218.121 608.296 212.016 612.022 205.517 610.608C204.316 610.347 203.225 610.836 202.661 611.73L196.298 644.04C196.18 644.64 196.326 645.273 196.704 645.798C196.745 645.855 196.789 645.908 196.834 645.961L290.946 589.829L290.974 589.571L291.094 589.499L265.035 581.904C264.29 581.742 263.537 581.779 262.915 582.15C262.294 582.52 261.885 583.035 261.752 583.721C261.139 586.885 259.184 589.629 256.321 591.336C253.458 593.044 249.915 593.599 246.48 592.852L224.996 588.176Z" fill="#70C244"/>
<path d="M306.69 530.946C307.364 529.653 306.802 528.02 305.374 527.321L293.195 521.353C287.224 518.427 284.619 511.759 287.435 506.352C287.955 505.353 287.673 504.217 286.862 503.428L254.631 487.536C254.032 487.24 253.345 487.173 252.721 487.348C252.097 487.524 251.587 487.927 251.305 488.47L236.134 517.603C236.019 518.653 236.57 519.713 237.673 520.254C243.645 523.18 246.107 529.888 243.292 535.294L237.55 546.32C236.878 547.613 237.542 549.216 238.969 549.916L258.709 559.589C261.865 561.136 264.295 563.769 265.475 566.885C266.655 569.999 266.478 573.362 264.989 576.22C264.666 576.841 264.666 577.498 264.922 578.173C265.178 578.849 265.745 579.346 266.43 579.682L291.57 589.906L291.62 590.036L304.906 568.965C305.229 568.345 305.346 567.655 305.09 566.979C304.834 566.303 304.385 565.773 303.699 565.437C300.542 563.89 298.098 561.267 296.918 558.153C295.737 555.037 295.895 551.673 297.383 548.816L306.69 530.946Z" fill="#8CCE69"/>
<path d="M306.69 530.946C307.363 529.654 306.801 528.021 305.374 527.321L293.194 521.353C287.224 518.427 284.619 511.759 287.434 506.352C287.954 505.354 287.673 504.217 286.862 503.429L254.631 487.536C254.032 487.241 253.345 487.173 252.721 487.348C252.654 487.367 252.589 487.39 252.525 487.414L291.308 589.8L291.571 589.907L291.62 590.037L304.907 568.966C305.23 568.346 305.347 567.656 305.091 566.98C304.835 566.304 304.385 565.774 303.7 565.438C300.542 563.891 298.098 561.268 296.918 558.154C295.738 555.038 295.895 551.674 297.384 548.817L306.69 530.946Z" fill="#70C244"/>
</g>
<g clip-path="url(#clip3)">
<path d="M1484.11 897.292C1485.52 898.008 1485.95 899.991 1485.08 901.721L1466.55 938.224C1465.68 939.954 1463.82 940.776 1462.41 940.06C1461 939.344 1460.57 937.361 1461.44 935.631L1479.97 899.128C1480.84 897.398 1482.7 896.576 1484.11 897.292Z" fill="#70C244"/>
<path d="M1435.93 949.036C1435.06 949.425 1434.48 950.49 1434.69 951.427L1436.43 959.429C1437.29 963.353 1435.06 967.826 1431.39 969.453C1430.71 969.753 1430.27 970.449 1430.2 971.183L1434.77 992.41C1434.86 992.805 1435.08 993.118 1435.4 993.282C1435.73 993.445 1436.11 993.446 1436.48 993.283L1456.27 984.518C1456.82 984.027 1457.12 983.26 1456.96 982.535C1456.1 978.612 1458.4 974.175 1462.07 972.549L1469.56 969.232C1470.44 968.843 1470.96 967.752 1470.76 966.814L1467.93 953.844C1467.47 951.77 1467.82 949.434 1468.87 947.359C1469.93 945.284 1471.61 943.634 1473.56 942.773C1473.98 942.587 1474.29 942.25 1474.52 941.8C1474.75 941.35 1474.77 940.865 1474.68 940.415L1470.07 924.97L1470.11 924.883L1454.92 930.283C1454.5 930.469 1454.12 930.775 1453.9 931.225C1453.67 931.675 1453.58 932.13 1453.68 932.58C1454.13 934.654 1453.8 936.99 1452.74 939.065C1451.69 941.14 1450.01 942.799 1448.07 943.659L1435.93 949.036Z" fill="#8CCE69"/>
<path d="M1435.93 949.036C1435.06 949.425 1434.48 950.49 1434.69 951.427L1436.43 959.43C1437.29 963.353 1435.06 967.826 1431.39 969.453C1430.71 969.753 1430.27 970.449 1430.2 971.183L1434.77 992.41C1434.86 992.805 1435.08 993.118 1435.4 993.282C1435.44 993.299 1435.47 993.314 1435.51 993.328L1470.11 925.132L1470.07 924.971L1470.11 924.884L1454.92 930.283C1454.5 930.47 1454.12 930.776 1453.9 931.226C1453.67 931.676 1453.58 932.13 1453.68 932.58C1454.13 934.655 1453.8 936.991 1452.74 939.066C1451.69 941.141 1450.01 942.8 1448.07 943.66L1435.93 949.036Z" fill="#70C244"/>
<path d="M1462.82 963.509C1462.48 964.403 1462.79 965.343 1463.53 965.585L1469.91 967.658C1473.04 968.674 1474.44 972.468 1473 976.208C1472.74 976.899 1472.89 977.567 1473.32 977.948L1490.2 983.494C1490.51 983.597 1490.87 983.546 1491.19 983.353C1491.52 983.16 1491.78 982.841 1491.92 982.466L1499.64 962.317C1499.69 961.648 1499.4 961.063 1498.82 960.876C1495.69 959.859 1494.37 956.021 1495.8 952.282L1498.72 944.656C1499.06 943.762 1498.71 942.854 1497.96 942.611L1487.62 939.253C1485.97 938.716 1484.69 937.405 1484.06 935.627C1483.42 933.85 1483.49 931.736 1484.25 929.759C1484.41 929.33 1484.41 928.921 1484.27 928.535C1484.13 928.15 1483.84 927.917 1483.48 927.8L1470.33 924.825L1470.3 924.751L1463.51 939.635C1463.35 940.064 1463.29 940.509 1463.43 940.895C1463.57 941.28 1463.81 941.549 1464.16 941.666C1465.82 942.203 1467.11 943.505 1467.74 945.282C1468.37 947.06 1468.31 949.172 1467.56 951.149L1462.82 963.509Z" fill="#7D4800"/>
<path d="M1462.82 963.509C1462.48 964.403 1462.79 965.342 1463.53 965.585L1469.91 967.657C1473.04 968.673 1474.43 972.468 1473 976.208C1472.74 976.898 1472.89 977.567 1473.32 977.948L1490.2 983.493C1490.51 983.596 1490.87 983.546 1491.19 983.353C1491.23 983.332 1491.26 983.309 1491.3 983.286L1470.46 924.856L1470.33 924.825L1470.3 924.751L1463.51 939.635C1463.35 940.064 1463.29 940.509 1463.43 940.895C1463.57 941.28 1463.81 941.549 1464.16 941.666C1465.82 942.203 1467.11 943.505 1467.74 945.282C1468.37 947.06 1468.31 949.172 1467.56 951.149L1462.82 963.509Z" fill="#633900"/>
<path d="M1462.82 963.509C1462.48 964.403 1462.79 965.343 1463.53 965.585L1469.91 967.658C1473.04 968.674 1474.44 972.468 1473 976.208C1472.74 976.899 1472.89 977.567 1473.32 977.948L1490.2 983.494C1490.51 983.597 1490.87 983.546 1491.19 983.353C1491.52 983.16 1491.78 982.841 1491.92 982.466L1499.64 962.317C1499.69 961.648 1499.4 961.063 1498.82 960.876C1495.69 959.859 1494.37 956.021 1495.8 952.282L1498.72 944.656C1499.06 943.762 1498.71 942.854 1497.96 942.611L1487.62 939.253C1485.97 938.716 1484.69 937.405 1484.06 935.627C1483.42 933.85 1483.49 931.736 1484.25 929.759C1484.41 929.33 1484.41 928.921 1484.27 928.535C1484.13 928.15 1483.84 927.917 1483.48 927.8L1470.33 924.825L1470.3 924.751L1463.51 939.635C1463.35 940.064 1463.29 940.509 1463.43 940.895C1463.57 941.28 1463.81 941.549 1464.16 941.666C1465.82 942.203 1467.11 943.505 1467.74 945.282C1468.37 947.06 1468.31 949.172 1467.56 951.149L1462.82 963.509Z" fill="#8CCE69"/>
<path d="M1462.82 963.509C1462.48 964.403 1462.79 965.342 1463.53 965.585L1469.91 967.657C1473.04 968.673 1474.43 972.468 1473 976.208C1472.74 976.898 1472.89 977.567 1473.32 977.948L1490.2 983.493C1490.51 983.596 1490.87 983.546 1491.19 983.353C1491.23 983.332 1491.26 983.309 1491.3 983.286L1470.46 924.856L1470.33 924.825L1470.3 924.751L1463.51 939.635C1463.35 940.064 1463.29 940.509 1463.43 940.895C1463.57 941.28 1463.81 941.549 1464.16 941.666C1465.82 942.203 1467.11 943.505 1467.74 945.282C1468.37 947.06 1468.31 949.172 1467.56 951.149L1462.82 963.509Z" fill="#70C244"/>
<path d="M1440.13 912.314C1439.49 911.846 1438.55 912.085 1438.02 912.884L1433.54 919.706C1431.34 923.05 1427.46 924.207 1424.81 922.251C1424.33 921.889 1423.68 921.991 1423.17 922.423L1411.25 940.47C1411.03 940.806 1410.92 941.205 1410.96 941.582C1410.99 941.958 1411.15 942.28 1411.42 942.476L1425.67 953.019C1426.23 953.145 1426.86 952.881 1427.27 952.263C1429.47 948.918 1433.36 947.846 1436 949.803L1441.4 953.793C1442.03 954.26 1442.97 953.96 1443.5 953.16L1450.76 942.104C1451.92 940.336 1453.6 939.056 1455.41 938.537C1457.22 938.018 1459.03 938.31 1460.43 939.345C1460.73 939.57 1461.09 939.606 1461.48 939.494C1461.87 939.381 1462.2 939.076 1462.45 938.692L1470.57 924.494L1470.64 924.472L1460.57 915.488C1460.27 915.264 1459.9 915.157 1459.51 915.269C1459.12 915.382 1458.79 915.616 1458.53 916C1457.37 917.768 1455.7 919.058 1453.89 919.577C1452.08 920.096 1450.27 919.815 1448.87 918.781L1440.13 912.314Z" fill="#8CCE69"/>
<path d="M1440.13 912.313C1439.49 911.846 1438.55 912.085 1438.02 912.884L1433.54 919.706C1431.34 923.05 1427.46 924.207 1424.81 922.25C1424.33 921.889 1423.68 921.991 1423.17 922.423L1411.25 940.47C1411.03 940.805 1410.92 941.205 1410.96 941.582C1410.96 941.622 1410.96 941.661 1410.97 941.7L1470.48 924.642L1470.57 924.494L1470.64 924.472L1460.57 915.488C1460.27 915.263 1459.91 915.156 1459.51 915.269C1459.12 915.381 1458.79 915.616 1458.53 916C1457.37 917.768 1455.7 919.057 1453.89 919.576C1452.08 920.095 1450.27 919.815 1448.87 918.78L1440.13 912.313Z" fill="#70C244"/>
</g>
<g clip-path="url(#clip4)">
<path d="M1279.68 456.736C1280.85 455.239 1283.55 455.398 1285.72 457.09L1331.5 492.788C1333.67 494.479 1334.49 497.064 1333.32 498.561C1332.15 500.057 1329.45 499.899 1327.28 498.207L1281.49 462.509C1279.32 460.817 1278.51 458.232 1279.68 456.736Z" fill="#70C244"/>
<path d="M1341.26 534.477C1341.64 535.699 1342.97 536.782 1344.25 536.856L1355.17 537.496C1360.52 537.809 1366.13 542.127 1367.74 547.241C1368.04 548.186 1368.9 548.975 1369.87 549.321L1398.81 551.089C1399.35 551.122 1399.8 550.949 1400.07 550.609C1400.34 550.268 1400.39 549.789 1400.23 549.276L1391.56 521.717C1390.99 520.864 1390.02 520.223 1389.03 520.165C1383.68 519.851 1378.12 515.456 1376.51 510.342L1373.23 499.912C1372.85 498.69 1371.47 497.663 1370.19 497.588L1352.5 496.552C1349.67 496.387 1346.62 495.14 1344.01 493.11C1341.41 491.082 1339.47 488.416 1338.62 485.712C1338.43 485.125 1338.03 484.616 1337.47 484.175C1336.9 483.735 1336.26 483.535 1335.65 483.499L1314.39 483.804L1314.28 483.72L1319.17 504.41C1319.35 504.996 1319.7 505.57 1320.27 506.01C1320.83 506.45 1321.43 506.714 1322.04 506.75C1324.87 506.916 1327.93 508.149 1330.53 510.178C1333.13 512.207 1335.09 514.867 1335.94 517.57L1341.26 534.477Z" fill="#8CCE69"/>
<path d="M1341.26 534.477C1341.64 535.699 1342.97 536.781 1344.25 536.856L1355.17 537.495C1360.52 537.809 1366.13 542.126 1367.74 547.241C1368.04 548.186 1368.9 548.975 1369.87 549.321L1398.81 551.089C1399.35 551.122 1399.8 550.949 1400.07 550.609C1400.1 550.572 1400.12 550.533 1400.15 550.494L1314.61 483.802L1314.39 483.805L1314.28 483.72L1319.17 504.41C1319.36 504.997 1319.71 505.57 1320.27 506.011C1320.83 506.451 1321.43 506.715 1322.04 506.75C1324.87 506.916 1327.93 508.15 1330.53 510.178C1333.13 512.208 1335.09 514.868 1335.94 517.571L1341.26 534.477Z" fill="#70C244"/>
<path d="M1364.59 506.249C1365.73 506.986 1367.03 506.94 1367.46 506.1L1371.19 498.929C1373.01 495.413 1378.28 495.01 1383.04 498.091C1383.92 498.66 1384.83 498.704 1385.4 498.308L1395.34 479.353C1395.53 479.001 1395.51 478.539 1395.3 478.071C1395.1 477.603 1394.71 477.166 1394.23 476.856L1368.58 460.257C1367.7 459.958 1366.88 460.116 1366.54 460.765C1364.71 464.282 1359.4 464.578 1354.64 461.498L1344.94 455.215C1343.8 454.479 1342.54 454.602 1342.1 455.443L1336.06 467.065C1335.1 468.923 1333.16 470.051 1330.7 470.213C1328.24 470.376 1325.43 469.549 1322.91 467.92C1322.37 467.567 1321.82 467.429 1321.29 467.465C1320.76 467.5 1320.4 467.788 1320.19 468.191L1314.24 483.432L1314.14 483.439L1332.92 497.044C1333.47 497.398 1334.05 497.623 1334.58 497.588C1335.12 497.553 1335.51 497.353 1335.72 496.95C1336.69 495.091 1338.62 493.951 1341.08 493.788C1343.54 493.625 1346.34 494.439 1348.86 496.067L1364.59 506.249Z" fill="#7D4800"/>
<path d="M1364.59 506.249C1365.73 506.986 1367.03 506.939 1367.46 506.099L1371.19 498.929C1373.01 495.413 1378.28 495.01 1383.04 498.091C1383.92 498.66 1384.83 498.703 1385.4 498.308L1395.34 479.352C1395.52 479 1395.51 478.539 1395.3 478.071C1395.28 478.02 1395.26 477.971 1395.23 477.922L1314.3 483.272L1314.24 483.432L1314.14 483.438L1332.92 497.044C1333.47 497.397 1334.05 497.623 1334.58 497.588C1335.12 497.552 1335.51 497.353 1335.72 496.949C1336.69 495.09 1338.62 493.95 1341.08 493.787C1343.54 493.624 1346.34 494.438 1348.86 496.067L1364.59 506.249Z" fill="#633900"/>
<path d="M1364.59 506.249C1365.73 506.986 1367.03 506.94 1367.46 506.1L1371.19 498.929C1373.01 495.413 1378.28 495.01 1383.04 498.091C1383.92 498.66 1384.83 498.704 1385.4 498.308L1395.34 479.353C1395.53 479.001 1395.51 478.539 1395.3 478.071C1395.1 477.603 1394.71 477.166 1394.23 476.856L1368.58 460.257C1367.7 459.958 1366.88 460.116 1366.54 460.765C1364.71 464.282 1359.4 464.578 1354.64 461.498L1344.94 455.215C1343.8 454.479 1342.54 454.602 1342.1 455.443L1336.06 467.065C1335.1 468.923 1333.16 470.051 1330.7 470.213C1328.24 470.376 1325.43 469.549 1322.91 467.92C1322.37 467.567 1321.82 467.429 1321.29 467.465C1320.76 467.5 1320.4 467.788 1320.19 468.191L1314.24 483.432L1314.14 483.439L1332.92 497.044C1333.47 497.398 1334.05 497.623 1334.58 497.588C1335.12 497.553 1335.51 497.353 1335.72 496.95C1336.69 495.091 1338.62 493.951 1341.08 493.788C1343.54 493.625 1346.34 494.439 1348.86 496.067L1364.59 506.249Z" fill="#8CCE69"/>
<path d="M1364.59 506.249C1365.73 506.986 1367.03 506.939 1367.46 506.099L1371.19 498.929C1373.01 495.413 1378.28 495.01 1383.04 498.091C1383.92 498.66 1384.83 498.703 1385.4 498.308L1395.34 479.352C1395.52 479 1395.51 478.539 1395.3 478.071C1395.28 478.02 1395.26 477.971 1395.23 477.922L1314.3 483.272L1314.24 483.432L1314.14 483.438L1332.92 497.044C1333.47 497.397 1334.05 497.623 1334.58 497.588C1335.12 497.552 1335.51 497.353 1335.72 496.949C1336.69 495.09 1338.62 493.95 1341.08 493.787C1343.54 493.624 1346.34 494.438 1348.86 496.067L1364.59 506.249Z" fill="#70C244"/>
<path d="M1293.01 516.44C1292.29 517.059 1292.47 518.31 1293.45 519.24L1301.85 527.176C1305.97 531.067 1306.92 536.28 1303.92 538.87C1303.36 539.349 1303.4 540.183 1303.9 540.967L1326.11 562.033C1326.53 562.424 1327.04 562.696 1327.55 562.789C1328.06 562.882 1328.51 562.788 1328.81 562.528L1345 548.569C1345.25 547.922 1345 547.048 1344.24 546.33C1340.12 542.438 1339.28 537.247 1342.29 534.656L1348.41 529.373C1349.13 528.754 1348.87 527.487 1347.89 526.558L1334.27 513.695C1332.1 511.639 1330.65 509.115 1330.23 506.691C1329.81 504.269 1330.48 502.135 1332.07 500.765C1332.41 500.468 1332.51 500.04 1332.42 499.514C1332.33 498.989 1331.98 498.476 1331.5 498.03L1313.83 483.015L1313.82 482.914L1300.33 492.241C1299.99 492.538 1299.79 492.949 1299.88 493.475C1299.97 494.001 1300.23 494.496 1300.71 494.942C1302.88 497 1304.35 499.522 1304.76 501.944C1305.18 504.368 1304.53 506.509 1302.94 507.878L1293.01 516.44Z" fill="#8CCE69"/>
<path d="M1293.01 516.44C1292.29 517.059 1292.47 518.31 1293.45 519.24L1301.85 527.176C1305.97 531.067 1306.92 536.279 1303.92 538.87C1303.36 539.349 1303.4 540.183 1303.9 540.967L1326.11 562.033C1326.53 562.424 1327.04 562.696 1327.55 562.789C1327.6 562.799 1327.66 562.806 1327.71 562.811L1314.02 483.171L1313.83 483.014L1313.82 482.913L1300.33 492.24C1299.99 492.538 1299.79 492.949 1299.88 493.474C1299.97 494 1300.23 494.495 1300.7 494.941C1302.88 496.999 1304.34 499.521 1304.76 501.943C1305.18 504.367 1304.53 506.508 1302.94 507.877L1293.01 516.44Z" fill="#70C244"/>
</g>
<g clip-path="url(#clip5)">
<path d="M1008.96 132.433C1007.57 130.588 1007.95 127.953 1009.81 126.548L1049.03 96.8998C1050.89 95.4946 1053.53 95.8511 1054.92 97.6958C1056.32 99.5406 1055.94 102.175 1054.08 103.581L1014.85 133.229C1013 134.634 1010.36 134.277 1008.96 132.433Z" fill="#70C244"/>
<path d="M1091.3 106.009C1092.55 106.178 1093.73 105.337 1093.91 104.091L1095.43 93.4588C1096.18 88.2463 1100.93 84.5803 1106.15 85.2856C1107.11 85.4158 1107.96 84.9124 1108.39 84.1029L1112.49 55.9412C1112.57 55.4181 1112.43 54.8877 1112.12 54.4672C1111.8 54.0467 1111.33 53.7706 1110.8 53.6997L1082.68 49.8996C1081.79 50.0852 1081.07 50.7697 1080.93 51.7326C1080.19 56.9459 1075.36 60.5164 1070.15 59.8114L1059.5 58.3732C1058.26 58.2047 1057.12 59.1146 1056.94 60.361L1054.48 77.5934C1054.09 80.3489 1052.6 82.8426 1050.37 84.5279C1048.14 86.2127 1045.33 86.949 1042.57 86.5765C1041.97 86.4954 1041.43 86.665 1040.95 87.0307C1040.46 87.3964 1040.21 87.9479 1040.13 88.5459L1038.71 109.952L1038.61 110.022L1059.6 114.497C1060.19 114.578 1060.79 114.488 1061.28 114.122C1061.76 113.756 1062.07 113.284 1062.16 112.686C1062.55 109.929 1064.03 107.427 1066.25 105.742C1068.48 104.057 1071.29 103.306 1074.05 103.679L1091.3 106.009Z" fill="#8CCE69"/>
<path d="M1091.3 106.01C1092.55 106.178 1093.73 105.337 1093.91 104.092L1095.43 93.4596C1096.18 88.247 1100.93 84.581 1106.15 85.2863C1107.11 85.4166 1107.96 84.9132 1108.39 84.1037L1112.49 55.9419C1112.57 55.4189 1112.43 54.8885 1112.12 54.468C1112.08 54.423 1112.05 54.3804 1112.01 54.3389L1038.72 109.729L1038.71 109.952L1038.61 110.022L1059.6 114.498C1060.19 114.579 1060.79 114.488 1061.28 114.123C1061.76 113.757 1062.07 113.284 1062.16 112.686C1062.55 109.93 1064.03 107.428 1066.26 105.743C1068.49 104.058 1071.29 103.306 1074.05 103.679L1091.3 106.01Z" fill="#70C244"/>
<path d="M1065.11 69.8844C1065.93 69.0794 1065.99 67.7612 1065.19 66.9445L1058.36 59.9726C1055.01 56.5546 1055.03 51.1069 1058.49 47.7378C1059.12 47.1156 1059.24 46.2219 1058.89 45.4704L1040.84 26.9483C1040.5 26.6042 1040.04 26.4085 1039.56 26.4043C1039.08 26.4 1038.61 26.5879 1038.27 26.9259L1019.67 45.077C1019.3 45.8236 1019.39 46.7186 1020.01 47.3499C1023.36 50.7685 1023.23 56.2153 1019.78 59.5838L1012.74 66.4538C1011.92 67.2586 1011.94 68.5772 1012.74 69.3945L1023.81 80.6941C1025.58 82.5009 1026.55 84.9509 1026.51 87.4883C1026.47 90.0248 1025.42 92.455 1023.6 94.2363C1023.2 94.6226 1023.02 95.1049 1023.01 95.6555C1023 96.2062 1023.26 96.6914 1023.64 97.0836L1038.32 109.937L1038.32 110.043L1053.38 97.4075C1053.78 97.021 1054.05 96.5396 1054.06 95.989C1054.07 95.4384 1053.9 94.9539 1053.51 94.5616C1051.74 92.7542 1050.77 90.3091 1050.8 87.7726C1050.84 85.2352 1051.88 82.8 1053.7 81.0196L1065.11 69.8844Z" fill="#7D4800"/>
<path d="M1065.11 69.8841C1065.93 69.0792 1065.99 67.761 1065.19 66.9442L1058.36 59.9723C1055.01 56.5545 1055.03 51.1067 1058.49 47.7378C1059.12 47.1156 1059.24 46.222 1058.89 45.4704L1040.84 26.9481C1040.5 26.6039 1040.04 26.4084 1039.56 26.404C1039.51 26.4035 1039.46 26.4066 1039.41 26.4103L1038.17 109.802L1038.32 109.936L1038.32 110.042L1053.38 97.4066C1053.78 97.0201 1054.05 96.5387 1054.06 95.9881C1054.07 95.4375 1053.9 94.953 1053.51 94.5607C1051.74 92.7533 1050.76 90.3082 1050.8 87.7717C1050.84 85.2343 1051.88 82.7991 1053.7 81.0187L1065.11 69.8841Z" fill="#633900"/>
<path d="M1065.11 69.8844C1065.93 69.0794 1065.99 67.7612 1065.19 66.9445L1058.36 59.9726C1055.01 56.5546 1055.03 51.1069 1058.49 47.7378C1059.12 47.1156 1059.24 46.2219 1058.89 45.4704L1040.84 26.9483C1040.5 26.6042 1040.04 26.4085 1039.56 26.4043C1039.08 26.4 1038.61 26.5879 1038.27 26.9259L1019.67 45.077C1019.3 45.8236 1019.39 46.7186 1020.01 47.3499C1023.36 50.7685 1023.23 56.2153 1019.78 59.5838L1012.74 66.4538C1011.92 67.2586 1011.94 68.5772 1012.74 69.3945L1023.81 80.6941C1025.58 82.5009 1026.55 84.9509 1026.51 87.4883C1026.47 90.0248 1025.42 92.455 1023.6 94.2363C1023.2 94.6226 1023.02 95.1049 1023.01 95.6555C1023 96.2062 1023.26 96.6914 1023.64 97.0836L1038.32 109.937L1038.32 110.043L1053.38 97.4075C1053.78 97.021 1054.05 96.5396 1054.06 95.989C1054.07 95.4384 1053.9 94.9539 1053.51 94.5616C1051.74 92.7542 1050.77 90.3091 1050.8 87.7726C1050.84 85.2352 1051.88 82.8 1053.7 81.0196L1065.11 69.8844Z" fill="#8CCE69"/>
<path d="M1065.11 69.8841C1065.93 69.0792 1065.99 67.761 1065.19 66.9442L1058.36 59.9723C1055.01 56.5545 1055.03 51.1067 1058.49 47.7378C1059.12 47.1156 1059.24 46.222 1058.89 45.4704L1040.84 26.9481C1040.5 26.6039 1040.04 26.4084 1039.56 26.404C1039.51 26.4035 1039.46 26.4066 1039.41 26.4103L1038.17 109.802L1038.32 109.936L1038.32 110.042L1053.38 97.4066C1053.78 97.0201 1054.05 96.5387 1054.06 95.9881C1054.07 95.4375 1053.9 94.953 1053.51 94.5607C1051.74 92.7533 1050.76 90.3082 1050.8 87.7717C1050.84 85.2343 1051.88 82.7991 1053.7 81.0187L1065.11 69.8841Z" fill="#70C244"/>
<path d="M1069.44 146.116C1070 147.115 1071.26 147.506 1072.27 146.942L1080.84 142.129C1085.05 139.769 1090.31 141.176 1092.64 145.355C1093.08 146.127 1093.91 146.467 1094.73 146.323L1117.49 133.63C1117.91 133.394 1118.22 133.001 1118.36 132.537C1118.49 132.073 1118.43 131.577 1118.2 131.157L1105.62 108.64C1105 108.094 1104.11 107.955 1103.33 108.391C1099.13 110.751 1093.9 109.238 1091.56 105.06L1086.8 96.5376C1086.24 95.5389 1084.96 95.2239 1083.96 95.7879L1070.06 103.589C1067.84 104.836 1065.21 105.144 1062.76 104.464C1060.32 103.784 1058.25 102.156 1057.02 99.9464C1056.75 99.4669 1056.33 99.1699 1055.8 99.0226C1055.27 98.8751 1054.73 99 1054.25 99.2708L1037.88 110.153L1037.78 110.125L1045.96 127.837C1046.23 128.317 1046.62 128.701 1047.15 128.848C1047.68 128.996 1048.2 128.958 1048.68 128.687C1050.9 127.439 1053.53 127.118 1055.98 127.797C1058.42 128.477 1060.5 130.094 1061.73 132.303L1069.44 146.116Z" fill="#8CCE69"/>
<path d="M1069.44 146.116C1070 147.115 1071.26 147.506 1072.27 146.942L1080.84 142.129C1085.05 139.769 1090.31 141.176 1092.64 145.355C1093.08 146.127 1093.91 146.466 1094.73 146.323L1117.49 133.63C1117.91 133.394 1118.22 133.001 1118.36 132.537C1118.37 132.487 1118.38 132.437 1118.39 132.387L1038.05 110.039L1037.88 110.153L1037.77 110.124L1045.96 127.837C1046.23 128.317 1046.62 128.7 1047.15 128.848C1047.68 128.996 1048.2 128.958 1048.68 128.687C1050.9 127.439 1053.53 127.117 1055.97 127.797C1058.42 128.477 1060.5 130.094 1061.73 132.303L1069.44 146.116Z" fill="#70C244"/>
</g>
<defs>
<clipPath id="clip0">
<rect width="116.682" height="125.823" fill="white" transform="translate(935.105 310.011) rotate(-154.261)"/>
</clipPath>
<clipPath id="clip1">
<rect width="932.4" height="932.4" fill="white" transform="translate(324 221)"/>
</clipPath>
<clipPath id="clip2">
<rect width="169" height="185" fill="white" transform="translate(140 626.854) rotate(-71.0638)"/>
</clipPath>
<clipPath id="clip3">
<rect width="90.9654" height="111.516" fill="white" transform="translate(1475.12 1015.61) rotate(-153.097)"/>
</clipPath>
<clipPath id="clip4">
<rect width="109.083" height="158.161" fill="white" transform="translate(1435.8 509.253) rotate(127.945)"/>
</clipPath>
<clipPath id="clip5">
<rect width="132.925" height="133.958" fill="white" transform="translate(1073.87) rotate(52.9178)"/>
</clipPath>
</defs>
</svg>
