<?xml version="1.0" encoding="utf-8"?>
<!-- Generator: Adobe Illustrator 21.0.2, SVG Export Plug-In . SVG Version: 6.00 Build 0)  -->
<svg version="1.1" id="Layer_1" xmlns="http://www.w3.org/2000/svg" xmlns:xlink="http://www.w3.org/1999/xlink" x="0px" y="0px" width="140"
	 viewBox="0 0 920 140" style="enable-background:new 0 0 920 140;" xml:space="preserve">
<g fill="#040d14">
	<g>
		<path d="M329.3,127.6l-11.5-19.9c5.4-10.1,5.3-22.2,5.3-37.7c0-19.9,0.2-34.3-11.5-46c-8.1-8.1-18-12.6-31.1-12.6
			c-13.1,0-23.1,4.5-31.2,12.6c-11.7,11.7-11.3,26.1-11.3,46c0,19.9-0.3,34.3,11.3,46c8.1,8.1,18.1,12.6,31.2,12.6
			c3.5,0,6.7-0.3,9.8-1H329.3z M266.1,102.4c-4.4-4.9-5.5-10.2-5.5-32.4c0-22.2,1.1-27.5,5.5-32.4c3.2-3.7,8.4-6.1,14.6-6.1
			c6.1,0,11.2,2.4,14.4,6.1c4.4,4.9,5.7,10.2,5.7,32.4c0,22.2-1.3,27.5-5.7,32.4c-3.2,3.7-8.3,6.1-14.4,6.1
			C274.5,108.5,269.3,106.1,266.1,102.4z"/>
		<path d="M592.6,127.6V12.4h22.2v115.2H592.6z"/>
		<path d="M57.1,128.6c-17.5,0-30.7-3.7-42.1-15.2l14.6-14.6c7.3,7.3,17.2,9.7,27.8,9.7c13.3,0,20.4-5,20.4-14.2
			c0-4-1.1-7.4-3.6-9.7c-2.3-2.1-4.9-3.2-10.2-4l-13.9-1.9C40.2,77.1,33,74,27.8,69c-5.5-5.5-8.3-12.9-8.3-22.7
			c0-20.6,15.2-35,40.1-35c15.9,0,27.3,3.9,37.2,13.4L82.6,38.9C75.4,32,66.6,31,59,31c-12,0-17.8,6.6-17.8,14.6c0,2.9,1,6,3.4,8.3
			c2.3,2.1,6,3.9,10.7,4.5l13.6,1.9c10.5,1.5,17.2,4.4,22,8.9c6.1,5.8,8.9,14.2,8.9,24.4C99.8,116,81.2,128.6,57.1,128.6z"/>
		<path d="M132.7,127.6V12.4h75.9v20.1h-53.4v27h45.5v20.1h-45.5v28h53.4v20.1H132.7z"/>
		<path d="M399.5,128.6c-23.6,0-42.4-16-42.4-40.5V12.4h22.5v74.9c0,13.3,7.8,21.2,19.9,21.2c12.1,0,20.1-7.9,20.1-21.2V12.4h22.3
			v75.7C441.9,112.6,423.1,128.6,399.5,128.6z"/>
		<path d="M548.1,116c-8.1,8.1-18,12.6-31.1,12.6c-13.1,0-23.1-4.5-31.2-12.6c-11.7-11.7-11.3-26.1-11.3-46c0-19.9-0.3-34.3,11.3-46
			c8.1-8.1,18.1-12.6,31.2-12.6c13.1,0,23,4.5,31.1,12.6c11.7,11.7,11.5,26.1,11.5,46C559.6,89.9,559.8,104.3,548.1,116z
			 M531.4,37.6c-3.2-3.7-8.3-6.1-14.4-6.1c-6.1,0-11.3,2.4-14.6,6.1c-4.4,4.9-5.5,10.2-5.5,32.4s1.1,27.5,5.5,32.4
			c3.2,3.7,8.4,6.1,14.6,6.1c6.1,0,11.2-2.4,14.4-6.1c4.4-4.9,5.7-10.2,5.7-32.4S535.8,42.5,531.4,37.6z"/>
		<path d="M720.8,127.6l-6.8-20.4H673l-7,20.4h-23.5l41.9-115.2h17.6l42.1,115.2H720.8z M693.9,46.4l-14.6,41.9H708L693.9,46.4z"/>
	</g>
	<g>
		<rect x="876.2" y="12.4" width="28.8" height="28.8"/>
		<g>
			<polygon points="804.2,103 804.2,12.4 789.8,12.4 789.8,117.4 			"/>
			<polygon points="814.4,113.2 800,127.6 905,127.6 905,113.2 			"/>
		</g>
		<g>
			<polygon points="833,74.2 833,12.4 818.6,12.4 818.6,88.6 			"/>
			<polygon points="843.2,84.4 828.8,98.8 905,98.8 905,84.4 			"/>
		</g>
		<g>
			<polygon points="861.8,45.4 861.8,12.4 847.4,12.4 847.4,59.8 			"/>
			<polygon points="872,55.6 857.6,70 905,70 905,55.6 			"/>
		</g>
	</g>
</g>
</svg>
