<?xml version="1.0" encoding="utf-8"?>
<!-- Generator: Adobe Illustrator 21.0.2, SVG Export Plug-In . SVG Version: 6.00 Build 0)  -->
<svg version="1.1" id="Layer_1" xmlns="http://www.w3.org/2000/svg" xmlns:xlink="http://www.w3.org/1999/xlink" x="0px" y="0px"
	 viewBox="0 0 1803 650.6" style="enable-background:new 0 0 1803 650.6;" xml:space="preserve">
<style type="text/css">
	.st0{fill:#001A72;}
	.st1{fill:#FFFFFF;}
</style>
<title>spark_white_logo1</title>
<path class="st0" d="M1615.1,331.2c-21.2,0-42.4,0-63.6,0c-1.6,0.1-3.2-0.7-4.1-2.1c-25.5-35.2-51.1-70.3-76.7-105.4
	c-0.8-1.1-1.6-2.2-2-2.6c-5,4.7-10.1,9.2-15,14c-4.9,4.8-9.4,9.6-14,14.6c-1,1.2-1.6,2.7-1.7,4.3c-0.1,24.5-0.1,49.1-0.1,73.6v3.4
	h-57.4V70.4h57.3V184c4.5-4.8,8.5-9,12.4-13.3c30.4-32.8,60.8-65.6,91.2-98.4c1.2-1.5,3.1-2.3,5-2.2c21,0.1,42,0,63,0h3.6
	L1507,180.9c6.2,8.4,12.3,16.7,18.5,25c29,39.3,58.1,78.5,87.1,117.8c0.7,1,1.6,1.9,2.4,2.8L1615.1,331.2z"/>
<path class="st0" d="M1124.4,247.7v83.4H1067V70.2h3.3c40.2,0,80.3-0.1,120.5,0.1c17.9,0.1,35.1,3.4,51.2,11.6
	c24.3,12.4,37.9,32.4,41.8,59.2c2.6,18,1.3,35.7-5.9,52.6c-8.7,20.5-24.3,34-44.5,42.6l-3.8,1.6c-0.1,0-0.1,0.2-0.4,0.5l63.5,92.9
	h-3c-20.6,0-41.2,0-61.8,0c-1.6,0.1-3.2-0.7-4-2.2c-17.5-26.2-35.1-52.4-52.6-78.7c-1.4-2.2-2.9-2.9-5.4-2.8
	c-12.5,0.1-25,0.1-37.5,0.1L1124.4,247.7z M1124.5,196.9c14.9,0,29.5,0,44,0c7.4,0,14.9,0.1,22.2-0.6c10.2-0.9,19.5-4.4,26.6-12
	c8.6-9.3,10.2-20.5,8.4-32.5c-1.8-11.7-8.3-20-19-24.9c-7.9-3.6-16.3-4.7-24.8-4.8c-18.1-0.1-36.2,0-54.2,0c-1,0-2.1,0.1-3.2,0.1
	L1124.5,196.9z"/>
<path class="st0" d="M790.5,70.2h3.3c28.7,0,57.5,0,86.2,0c1.9,0,3.1,0.2,4,2.3c36.4,85.2,72.9,170.4,109.5,255.6
	c0.4,0.9,0.7,1.8,1.2,2.9h-60.2c-3.2-7.6-6.4-15.5-9.6-23.3c-4.5-10.9-9-21.8-13.3-32.8c-0.7-1.8-1.6-2.3-3.4-2.3
	c-35.1,0-70.2,0-105.2,0c-2,0-2.9,0.7-3.6,2.5c-7.2,17.8-14.5,35.6-21.7,53.4c-0.8,2-1.8,2.7-4,2.7c-18.5-0.1-36.9-0.1-55.8-0.1
	c1.1-2.6,2.1-5,3.1-7.4c31.3-73.1,62.7-146.1,94-219.2c1-2.2,0.7-3.6-0.8-5.4c-7.1-8.4-14.1-17-21.1-25.6
	C792.4,72.7,791.6,71.7,790.5,70.2z M855.5,137.5l-34.4,84.1H890C878.5,193.6,867.1,165.8,855.5,137.5z"/>
<path class="st0" d="M537.6,252.9V331h-57.4V70.3c1.1,0,2.1-0.1,3.1-0.1c35.9,0,71.7-0.2,107.6,0.1c22.3,0.2,43.3,5.5,61.7,18.9
	c19.1,13.8,29.6,32.9,33,55.9c2.7,18.8,1.2,37.3-6.6,54.8c-10.1,22.5-27.8,36.7-50.5,45.2c-14.7,5.5-30,7.8-45.6,7.9
	c-13.8,0.1-27.6,0-41.3,0L537.6,252.9z M537.8,201.6h3.1c14.4,0,28.7,0.1,43.1-0.1c4.9-0.1,9.7-0.7,14.5-1.8
	c17.5-4.2,29.3-18.3,29.9-35c0.5-11.5-1.7-22.2-10.3-30.7c-7.8-7.6-17.5-11.1-28.1-11.5c-17-0.6-34-0.4-51-0.6
	c-0.4,0.1-0.8,0.2-1.2,0.3V201.6z"/>
<path class="st1" d="M1124.5,196.9v-74.7c1.1,0,2.1-0.1,3.2-0.1c18.1,0,36.2-0.1,54.2,0c8.5,0.1,17,1.2,24.8,4.8
	c10.7,5,17.2,13.2,19,24.9c1.8,12,0.3,23.3-8.4,32.5c-7.1,7.7-16.4,11.1-26.6,12c-7.4,0.6-14.8,0.5-22.2,0.6
	C1154,196.9,1139.4,196.9,1124.5,196.9z"/>
<path class="st1" d="M855.5,137.5c11.6,28.3,23,56,34.5,84.1h-68.9L855.5,137.5z"/>
<path class="st1" d="M537.8,201.6v-79.3c0.4-0.2,0.8-0.3,1.2-0.3c17,0.1,34-0.1,51,0.6c10.6,0.4,20.3,3.9,28.1,11.5
	c8.6,8.4,10.7,19.1,10.3,30.7c-0.6,16.7-12.4,30.7-29.9,35c-4.7,1.1-9.6,1.7-14.5,1.8c-14.4,0.2-28.7,0.1-43.1,0.1H537.8z"/>
<path class="st0" d="M186,293.4l37.8-38.2c0,0,31.6,26.3,72.4,28.5c33,1.8,53.6-26.4,30.4-42.5c-21.8-15.2-68.3-18.6-98.4-35.9
	s-31.9-46.8-32.2-58.1c-1.8-64.8,61.9-81.8,94.7-81c63.6,1.7,94.3,32.8,94.3,32.8l-38.2,37.2c0,0-26.2-19.3-51.9-19.3
	c-13.6,0-38.4,0.5-40.3,23.1c-2.5,29.3,53.6,29.7,84.7,43.4c31.9,14.1,55.5,38.4,53.4,70.1c-1.8,28.5-13.2,80.9-97.3,80.9
	c-26.5,0-48.9-7.4-70.2-16C204.6,310.3,186,293.4,186,293.4z"/>
<path class="st0" d="M1514.8,580h-88.2V457.6h27.4v97.1h60.8V580z"/>
<path class="st0" d="M1254.7,456.9c8,0,15.7,0,23.5,0c1.5,0,2.2,0.6,2.7,1.9c5.3,12.6,10.6,25.1,15.9,37.7
	c4.2,9.8,8.4,19.6,12.6,29.4c4.8,11.4,9.6,22.8,14.5,34.2c2.4,5.7,4.9,11.5,7.4,17.2c0.3,0.8,0.6,1.6,1.1,2.8h-10.5
	c-5.1,0-10.2-0.1-15.3,0.1c-2.3,0.1-3.3-0.8-4.1-2.8c-3-7.7-6.1-15.3-9.3-22.9c-0.4-0.8-1.5-1.9-2.2-2c-16.4-0.1-32.8-0.1-49.2-0.1
	c-3.8,9.2-7.5,18.4-11.3,27.6h-28.1L1254.7,456.9z M1251.5,528.1h31c-5.1-12.6-10.2-25-15.5-37.9L1251.5,528.1z"/>
<path class="st0" d="M493.6,579.9l52.4-123.1c8,0,15.9,0,23.9,0.1c1,0.2,1.8,0.8,2.2,1.6c4.2,9.8,8.3,19.6,12.5,29.4
	c4.2,9.8,8.3,19.4,12.4,29.2c4.9,11.6,9.8,23.1,14.7,34.7c3.6,8.5,7.3,16.9,11,25.4c0.3,0.8,0.6,1.6,1,2.7h-22.1c-6.7,0-6.7,0-9.1-6
	c-2.7-6.7-5.2-13.4-8-20c-0.6-0.9-1.5-1.5-2.6-1.6c-16.2-0.1-32.4-0.1-48.8-0.1c-3.8,9.2-7.5,18.4-11.3,27.6L493.6,579.9z
	 M573.8,528.1c-5.2-12.6-10.3-25-15.6-37.9c-5.3,13-10.4,25.3-15.5,37.9H573.8z"/>
<path class="st0" d="M716,457.5c16.7,0,33.2-0.1,49.7,0c6.8,0,13.5,1.1,19.9,3.3c15,5.4,23.9,15.8,26.3,31.7
	c1.4,9.2,0.7,18.2-3.2,26.7c-5.2,11.1-14.2,18-25.8,21.2c-6.1,1.6-12.4,2.6-18.8,3c-6.9,0.5-13.9,0.1-21.2,0.1v36.4H716V457.5z
	 M743.1,518.6c0.3,0.1,0.6,0.1,0.9,0.2c7.2,0,14.3,0.1,21.5,0c6.7-0.1,12.5-2.3,16.4-8c5.3-7.7,3.9-21.3-5.8-25.4
	c-4-1.7-8.2-2.7-12.5-3c-6.8-0.5-13.6-0.1-20.5-0.1V518.6z"/>
<path class="st0" d="M1098.4,579.9h-27.2v-97h-36.9v-25.2h101v25h-36.8L1098.4,579.9z"/>
<path class="st0" d="M934.8,579.9h-26.7V457.6h26.7V579.9z"/>
<path class="st0" d="M397.9,540.7c0,0-15.9,14.8-30.9,14.2c-20.4-0.9-37.1-16.2-37.1-37c0-20.8,16-39.4,37.2-38.6
	c16.2,0.5,29.6,14.3,29.6,14.3l17-19.6c-12.4-13-29.6-20.3-47.5-20.3c-35.8,0-64.9,28.4-64.9,63.5c0,35.1,29.1,62.4,64.9,63.5
	c30.5,1,48.9-22.2,48.9-22.2L397.9,540.7z"/>
</svg>
