<?xml version="1.0" encoding="utf-8"?>
<!-- Generator: Adobe Illustrator 21.0.2, SVG Export Plug-In . SVG Version: 6.00 Build 0)  -->
<svg version="1.1" id="Layer_1" xmlns="http://www.w3.org/2000/svg" xmlns:xlink="http://www.w3.org/1999/xlink" x="0px" y="0px" width="75"
	 viewBox="0 0 330 140" style="enable-background:new 0 0 330 140;" xml:space="preserve">
<style type="text/css">
	.st0{fill:#040d14;}
</style>
<g>
	<g>
		<path class="st0" d="M78.6,4.2H54.1L27.8,64V4.2H3.5v131.2h24.3V98.3l8.4-17.2l18,54.4h25.5L52.9,59.3L78.6,4.2z M131.4,4.2H91.2
			v131.2h24.3V84.8h15.9c18.4,0,29.6-10.6,29.6-29.2v-22C161,14.8,149.8,4.2,131.4,4.2z M137.5,56.2c0,6.5-2.5,9.8-8.6,9.8h-13.3
			V24.2h13.3c6.1,0,8.6,3.3,8.6,9.8V56.2z M208.8,1.3c-23.3,0-37.6,15.7-37.6,35.9v64.7c0,20.2,14.3,36.5,37.6,36.5
			c23.1,0,35.3-15.2,35.3-34.8V87.7h-21.8v15.7c0,7.6-4.3,13.6-13.1,13.6c-8.8,0-13.3-5.9-13.3-13.2V35.2c0-7.2,4.5-12.5,13.3-12.5
			c8.8,0,13.1,5.3,13.1,12.9v15.7h21.8V35.4C244.1,15.8,231.9,1.3,208.8,1.3z M310.4,67.9c11.2-2.4,15.5-10.8,15.5-22V31.9
			c0-18-11-27.6-28.8-27.6h-40.8v131.2h41.2c17.8,0,29-9.4,29-27.6V90.1C326.5,79.1,322.2,71.1,310.4,67.9z M280.8,24.2H294
			c6.1,0,8.6,3.5,8.6,9.4v16.3c0,6.9-3.3,10.2-9.6,10.2h-12.2V24.2z M303,106c0,6.1-2.4,9.4-8.4,9.4h-13.7V77.9h12.6
			c6.3,0,9.6,3.5,9.6,10.4V106z"/>
	</g>
</g>
</svg>
