<svg width="25" height="25" viewBox="0 0 25 25" fill="none" xmlns="http://www.w3.org/2000/svg">
<path d="M15.479 4.17724C15.4116 4.06358 15.3664 3.94969 15.3211 3.8358C15.1625 3.42575 15.1577 2.96836 15.0653 2.55762C14.9944 2.10092 14.7915 1.66845 14.5013 1.32838C14.2111 0.988305 13.7898 0.763948 13.3265 0.74587C11.3855 0.697344 10.4677 3.63444 10.0862 5.12506C9.81094 6.22575 9.77868 7.36968 9.39292 8.44865C9.32867 8.63229 9.24213 8.79329 9.1333 8.93164C8.65344 9.43979 8.22835 8.84952 8.04699 8.37109C7.66127 7.32298 6.98181 5.59175 5.57471 5.99514C5.26697 6.08981 4.96207 6.45892 4.78852 6.73517C4.31078 7.44915 4.25292 8.25026 4.19553 9.09711C4.14051 10.1727 4.19597 11.2699 4.38349 12.343C4.47736 12.8909 4.63715 13.4153 4.84103 13.9393C4.95412 14.2125 5.22391 14.7129 5.11698 15.0343C4.96808 15.5618 4.15894 14.0835 4.00317 13.9479C3.71393 13.6993 3.25114 13.727 3.01192 14.0497C2.99011 14.0728 2.96829 14.0959 2.96853 14.1187C2.49056 14.8098 2.72075 15.7452 2.35349 16.4809C2.31058 16.5957 2.24514 16.665 2.13537 16.7119C2.06946 16.7354 1.98103 16.7135 1.91465 16.6913C-0.0294452 16.3455 0.177953 19.3395 0.235306 20.6198C0.288398 21.4883 0.497964 22.5611 1.27465 23.0334C2.27348 23.6635 3.489 23.9254 4.65902 24.0505C5.58602 24.1324 7.39853 24.5482 7.82696 23.3316C8.06311 22.7116 7.39785 22.3525 7.54746 21.8935C7.82487 20.9986 9.24854 22.1961 9.62479 22.3295C10.3773 22.5961 11.2121 22.2902 11.6239 21.5997C11.9928 21.0241 11.9852 20.2923 11.4513 19.8404C11.2735 19.705 11.0737 19.5698 10.8956 19.4116C10.7401 19.2988 10.6718 19.0937 10.692 18.9105C10.8188 18.3831 11.6835 18.8316 11.9708 18.8973C12.5014 19.029 13.0318 19.1379 13.5837 19.2008C14.7542 19.3716 16.0778 19.4266 17.1746 18.8663C17.5696 18.6792 17.8972 18.3785 18.136 18.0101C18.2872 17.7112 18.328 17.3905 18.2365 17.0713C18.1445 16.7063 17.9428 16.3882 17.6754 16.1165C17.3634 15.7995 16.8323 15.622 16.6732 15.1662C16.6052 14.984 16.6253 14.8008 16.7342 14.6624C16.8214 14.57 16.9089 14.5005 17.0189 14.4765C17.4803 14.3116 18.0092 14.2833 18.471 14.1641C18.9988 14.0214 19.5043 13.8561 19.9872 13.6453C20.9531 13.2236 21.8062 12.5515 22.4143 11.6532C22.9354 10.8701 22.6393 9.95832 21.8195 9.57799C21.5091 9.4211 21.1113 9.33373 20.801 9.17684C20.3576 8.95271 20.3315 8.56415 20.5475 8.12735C21.1744 6.90866 22.1346 5.9381 22.917 4.83216C22.917 4.83216 25.0686 1.7908 23.3574 0.504821C22.7568 0.00785604 21.9176 -0.120688 21.193 0.184144C20.6885 0.440956 20.2513 0.81143 19.9253 1.27224C19.3819 2.03264 16.6447 6.01779 15.479 4.17724Z" fill="#64AE3D"/>
</svg>
