<?xml version="1.0" encoding="utf-8"?>
<!-- Generator: Adobe Illustrator 21.0.2, SVG Export Plug-In . SVG Version: 6.00 Build 0)  -->
<svg version="1.1" id="Secured" xmlns="http://www.w3.org/2000/svg" xmlns:xlink="http://www.w3.org/1999/xlink" x="0px" y="0px"
	 viewBox="0 0 168 190" style="enable-background:new 0 0 168 190;" xml:space="preserve">
<style type="text/css">
	.st0{opacity:0;fill:#FFFFFF;}
	.st1{fill:none;stroke:#6AAC0E;stroke-linejoin:round;}
	.st2{fill:#6AAC0E;}
</style>
<g id="Rounded_Rectangle_557">
	<path class="st0" d="M26.4,54.5v-12c0-21,17-38,38-38s38,17,38,38v12"/>
	<path class="st1" d="M26.4,54.5v-12c0-21,17-38,38-38s38,17,38,38v12"/>
</g>
<path class="st2" d="M74.4,98.8c0-5.2-4.3-9.5-9.5-9.5s-9.5,4.3-9.5,9.5c0,2.7,1.2,5.2,3,6.9v11.1c0,3.6,2.9,6.5,6.5,6.5
	c3.6,0,6.5-2.9,6.5-6.5v-11.1C73.3,104,74.4,101.5,74.4,98.8z"/>
<path id="Rounded_Rectangle_1921_copy" class="st2" d="M133,130.4c0.7,0.7,0.8,1.9,0,2.6c0,0,0,0,0,0l-14.3,17.7
	c-0.8,0.7-2,0.7-2.8,0c-0.7-0.7-0.8-1.9,0-2.6c0,0,0,0,0,0l14.3-17.7C131,129.7,132.2,129.7,133,130.4z M107.6,142.6
	c0.8-0.7,2-0.7,2.8,0l7.9,5.8c0.7,0.7,0.8,1.9,0,2.6c0,0,0,0,0,0c-0.8,0.7-2,0.7-2.8,0l-7.9-5.8C107,144.6,107.1,143.4,107.6,142.6z
	"/>
<path class="st2" d="M89.4,116.4l1.4,4.3h4.5l-3.6,2.6l1.4,4.3l-3.6-2.6l-3.6,2.6l1.4-4.3l-3.6-2.6H88L89.4,116.4z M102.4,103.3
	l1.4,4.3h4.5l-3.6,2.6l1.4,4.3l-3.6-2.6l-3.6,2.6l1.4-4.3l-3.6-2.6h4.5L102.4,103.3z M120.9,98.3l1.4,4.3h4.5l-3.6,2.6l1.4,4.3
	l-3.6-2.6l-3.6,2.6l1.4-4.3l-3.6-2.6h4.5L120.9,98.3z M139.2,103.3l1.4,4.3h4.5l-3.6,2.6l1.4,4.3l-3.6-2.6l-3.6,2.6l1.4-4.3
	l-3.6-2.6h4.5L139.2,103.3z M152.7,116.7l1.4,4.3h4.5l-3.6,2.6l1.4,4.3l-3.6-2.6l-3.6,2.6l1.4-4.3l-3.6-2.6h4.5L152.7,116.7z
	 M157.7,135.1l1.4,4.3h4.5L160,142l1.4,4.3l-3.6-2.6l-3.6,2.6l1.4-4.3l-3.6-2.6h4.5L157.7,135.1z M152.7,153.6l1.4,4.3h4.5l-3.6,2.6
	l1.4,4.3l-3.6-2.6l-3.6,2.6l1.4-4.3l-3.6-2.6h4.5L152.7,153.6z M139.2,166.9l1.4,4.3h4.5l-3.6,2.6l1.4,4.3l-3.6-2.6l-3.6,2.6
	l1.4-4.3l-3.6-2.6h4.5L139.2,166.9z M121,171.8l1.4,4.3h4.5l-3.6,2.6l1.4,4.3l-3.6-2.6l-3.6,2.6l1.4-4.3l-3.6-2.6h4.5L121,171.8z
	 M102.4,166.8l1.4,4.3h4.5l-3.6,2.6l1.4,4.3l-3.6-2.6l-3.6,2.6l1.4-4.3l-3.6-2.6h4.5L102.4,166.8z M89.2,153.5l1.4,4.3h4.5l-3.6,2.6
	l1.4,4.3l-3.6-2.6l-3.6,2.6l1.4-4.3l-3.6-2.6h4.5L89.2,153.5z M84.1,134.8l1.4,4.3h4.5l-3.7,2.7l1.4,4.3l-3.7-2.7l-3.7,2.7l1.4-4.3
	l-3.7-2.7h4.5L84.1,134.8z"/>
<path class="st2" d="M70.7,154.8H6.4c-1.4,0-2.5-1.1-2.5-2.5v-93c0-1.4,1.1-2.5,2.5-2.5h96.5v-1H6.4c-1.9,0-3.5,1.6-3.5,3.5v93
	c0,1.9,1.6,3.5,3.5,3.5H71"/>
<path class="st2" d="M125.9,88.8V59.3c0-1.9-1.6-3.5-3.5-3.5h-20.5v1h20.5c1.4,0,2.5,1.1,2.5,2.5v29.4"/>
</svg>
